Exo-ExtraBoldItalic.ufo
<glyph name="percent" format="1">
  <advance width="966"/>
  <unicode hex="0025"/>
  <note>
    GF Latin Plus glyph
  </note>
  <outline>
    <contour>
      <point x="702" y="163" type="curve" smooth="yes"/>
      <point x="712" y="226" type="line" smooth="yes"/>
      <point x="718" y="267"/>
      <point x="738" y="275"/>
      <point x="768" y="275" type="curve" smooth="yes"/>
      <point x="824" y="275" type="line" smooth="yes"/>
      <point x="851" y="275"/>
      <point x="865" y="268"/>
      <point x="865" y="243" type="curve" smooth="yes"/>
      <point x="865" y="238"/>
      <point x="865" y="232"/>
      <point x="864" y="226" type="curve" smooth="yes"/>
      <point x="854" y="163" type="line" smooth="yes"/>
      <point x="849" y="133"/>
      <point x="836" y="114"/>
      <point x="796" y="114" type="curve" smooth="yes"/>
      <point x="740" y="114" type="line" smooth="yes"/>
      <point x="710" y="114"/>
      <point x="700" y="126"/>
      <point x="700" y="146" type="curve" smooth="yes"/>
      <point x="700" y="151"/>
      <point x="701" y="157"/>
    </contour>
    <contour>
      <point x="586" y="137" type="line" smooth="yes"/>
      <point x="584" y="124"/>
      <point x="583" y="112"/>
      <point x="583" y="101" type="curve" smooth="yes"/>
      <point x="583" y="38"/>
      <point x="617" y="3"/>
      <point x="700" y="3" type="curve" smooth="yes"/>
      <point x="801" y="3" type="line" smooth="yes"/>
      <point x="902" y="3"/>
      <point x="947" y="52"/>
      <point x="961" y="137" type="curve" smooth="yes"/>
      <point x="979" y="252" type="line" smooth="yes"/>
      <point x="981" y="264"/>
      <point x="982" y="277"/>
      <point x="982" y="288" type="curve" smooth="yes"/>
      <point x="982" y="351"/>
      <point x="948" y="386"/>
      <point x="864" y="386" type="curve" smooth="yes"/>
      <point x="762" y="386" type="line" smooth="yes"/>
      <point x="662" y="386"/>
      <point x="618" y="337"/>
      <point x="605" y="252" type="curve" smooth="yes"/>
    </contour>
    <contour>
      <point x="198" y="0" type="line"/>
      <point x="316" y="0" type="line"/>
      <point x="877" y="732" type="line"/>
      <point x="766" y="732" type="line"/>
    </contour>
    <contour>
      <point x="220" y="509" type="curve" smooth="yes"/>
      <point x="230" y="572" type="line" smooth="yes"/>
      <point x="236" y="613"/>
      <point x="257" y="621"/>
      <point x="286" y="621" type="curve" smooth="yes"/>
      <point x="343" y="621" type="line" smooth="yes"/>
      <point x="370" y="621"/>
      <point x="383" y="614"/>
      <point x="383" y="589" type="curve" smooth="yes"/>
      <point x="383" y="584"/>
      <point x="383" y="578"/>
      <point x="382" y="572" type="curve" smooth="yes"/>
      <point x="372" y="509" type="line" smooth="yes"/>
      <point x="367" y="479"/>
      <point x="355" y="460"/>
      <point x="316" y="460" type="curve" smooth="yes"/>
      <point x="259" y="460" type="line" smooth="yes"/>
      <point x="228" y="460"/>
      <point x="218" y="472"/>
      <point x="218" y="492" type="curve" smooth="yes"/>
      <point x="218" y="497"/>
      <point x="220" y="503"/>
    </contour>
    <contour>
      <point x="105" y="483" type="line" smooth="yes"/>
      <point x="103" y="470"/>
      <point x="102" y="458"/>
      <point x="102" y="447" type="curve" smooth="yes"/>
      <point x="102" y="384"/>
      <point x="136" y="349"/>
      <point x="219" y="349" type="curve" smooth="yes"/>
      <point x="320" y="349" type="line" smooth="yes"/>
      <point x="421" y="349"/>
      <point x="466" y="398"/>
      <point x="479" y="483" type="curve" smooth="yes"/>
      <point x="498" y="598" type="line" smooth="yes"/>
      <point x="500" y="610"/>
      <point x="501" y="623"/>
      <point x="501" y="634" type="curve" smooth="yes"/>
      <point x="501" y="697"/>
      <point x="466" y="732"/>
      <point x="383" y="732" type="curve" smooth="yes"/>
      <point x="282" y="732" type="line" smooth="yes"/>
      <point x="181" y="732"/>
      <point x="136" y="683"/>
      <point x="123" y="598" type="curve" smooth="yes"/>
    </contour>
  </outline>
</glyph>
<glyph name="ampersand" format="1">
  <advance width="707"/>
  <unicode hex="0026"/>
  <note>
    GF Latin Plus glyph
  </note>
  <outline>
    <contour>
      <point x="287" y="152" type="curve" smooth="yes"/>
      <point x="254" y="152"/>
      <point x="233" y="175"/>
      <point x="233" y="209" type="curve" smooth="yes"/>
      <point x="233" y="244"/>
      <point x="244" y="271"/>
      <point x="288" y="296" type="curve" smooth="yes"/>
      <point x="318" y="312" type="line"/>
      <point x="385" y="203" type="line"/>
      <point x="358" y="180" type="line" smooth="yes"/>
      <point x="333" y="158"/>
      <point x="311" y="152"/>
    </contour>
    <contour>
      <point x="234" y="-6" type="curve" smooth="yes"/>
      <point x="303" y="-6"/>
      <point x="355" y="11"/>
      <point x="413" y="55" type="curve" smooth="yes"/>
      <point x="456" y="88" type="line"/>
      <point x="514" y="0" type="line"/>
      <point x="690" y="0" type="line"/>
      <point x="588" y="174" type="line"/>
      <point x="648" y="226" type="line"/>
      <point x="725" y="342" type="line"/>
      <point x="675" y="420" type="line"/>
      <point x="514" y="295" type="line"/>
      <point x="422" y="456" type="line" smooth="yes"/>
      <point x="401" y="494"/>
      <point x="390" y="519"/>
      <point x="390" y="538" type="curve" smooth="yes"/>
      <point x="390" y="565"/>
      <point x="407" y="586"/>
      <point x="451" y="586" type="curve" smooth="yes"/>
      <point x="600" y="586" type="line"/>
      <point x="620" y="712" type="line"/>
      <point x="584" y="723"/>
      <point x="511" y="738"/>
      <point x="442" y="738" type="curve" smooth="yes"/>
      <point x="286" y="738"/>
      <point x="218" y="654"/>
      <point x="218" y="557" type="curve" smooth="yes"/>
      <point x="218" y="528"/>
      <point x="222" y="493"/>
      <point x="246" y="448" type="curve" smooth="yes"/>
      <point x="255" y="430" type="line"/>
      <point x="183" y="389" type="line" smooth="yes"/>
      <point x="99" y="340"/>
      <point x="58" y="274"/>
      <point x="58" y="166" type="curve" smooth="yes"/>
      <point x="58" y="63"/>
      <point x="128" y="-6"/>
    </contour>
  </outline>
</glyph>
<glyph name="asterisk" format="1">
  <advance width="425"/>
  <unicode hex="002A"/>
  <note>
    GF Latin Plus glyph
  </note>
  <outline>
    <contour>
      <point x="324" y="569" type="line"/>
      <point x="366" y="502" type="line"/>
      <point x="484" y="598" type="line"/>
      <point x="455" y="650" type="line"/>
    </contour>
    <contour>
      <point x="274" y="722" type="line"/>
      <point x="295" y="585" type="line"/>
      <point x="379" y="616" type="line"/>
      <point x="337" y="742" type="line"/>
    </contour>
    <contour>
      <point x="254" y="464" type="line"/>
      <point x="367" y="397" type="line"/>
      <point x="412" y="447" type="line"/>
      <point x="312" y="536" type="line"/>
    </contour>
    <contour>
      <point x="148" y="417" type="line"/>
      <point x="205" y="398" type="line"/>
      <point x="275" y="533" type="line"/>
      <point x="195" y="554" type="line"/>
    </contour>
    <contour>
      <point x="120" y="569" type="line"/>
      <point x="263" y="564" type="line"/>
      <point x="272" y="649" type="line"/>
      <point x="130" y="632" type="line"/>
    </contour>
  </outline>
</glyph>
<glyph name="comma" format="1">
  <advance width="246"/>
  <unicode hex="002C"/>
  <note>
    GF Latin Plus glyph
  </note>
  <outline>
    <contour>
      <point x="59" y="52" type="line" smooth="yes"/>
      <point x="57" y="42"/>
      <point x="56" y="35"/>
      <point x="56" y="31" type="curve" smooth="yes"/>
      <point x="56" y="18"/>
      <point x="64" y="12"/>
      <point x="76" y="12" type="curve" smooth="yes"/>
      <point x="86" y="12" type="line"/>
      <point x="83" y="-10" type="line" smooth="yes"/>
      <point x="80" y="-27"/>
      <point x="70" y="-30"/>
      <point x="50" y="-30" type="curve"/>
      <point x="42" y="-86" type="line"/>
      <point x="42" y="-86"/>
      <point x="66" y="-94"/>
      <point x="96" y="-94" type="curve" smooth="yes"/>
      <point x="135" y="-94"/>
      <point x="181" y="-80"/>
      <point x="192" y="-14" type="curve" smooth="yes"/>
      <point x="213" y="112" type="line" smooth="yes"/>
      <point x="215" y="122"/>
      <point x="216" y="131"/>
      <point x="216" y="135" type="curve" smooth="yes"/>
      <point x="216" y="146"/>
      <point x="211" y="153"/>
      <point x="197" y="153" type="curve" smooth="yes"/>
      <point x="98" y="153" type="line" smooth="yes"/>
      <point x="84" y="153"/>
      <point x="73" y="145"/>
      <point x="71" y="128" type="curve" smooth="yes"/>
    </contour>
  </outline>
</glyph>
<glyph name="zero" format="1">
  <advance width="644"/>
  <unicode hex="0030"/>
  <note>
    GF Latin Plus glyph
  </note>
  <outline>
    <contour>
      <point x="254" y="219" type="curve" smooth="yes"/>
      <point x="303" y="524" type="line" smooth="yes"/>
      <point x="310" y="570"/>
      <point x="334" y="593"/>
      <point x="376" y="593" type="curve" smooth="yes"/>
      <point x="458" y="593" type="line" smooth="yes"/>
      <point x="488" y="593"/>
      <point x="508" y="581"/>
      <point x="508" y="544" type="curve" smooth="yes"/>
      <point x="508" y="539"/>
      <point x="508" y="532"/>
      <point x="507" y="524" type="curve" smooth="yes"/>
      <point x="459" y="218" type="line" smooth="yes"/>
      <point x="451" y="171"/>
      <point x="426" y="150"/>
      <point x="381" y="150" type="curve" smooth="yes"/>
      <point x="312" y="150" type="line" smooth="yes"/>
      <point x="273" y="150"/>
      <point x="252" y="164"/>
      <point x="252" y="199" type="curve" smooth="yes"/>
      <point x="252" y="206"/>
      <point x="253" y="211"/>
    </contour>
    <contour>
      <point x="77" y="192" type="line" smooth="yes"/>
      <point x="74" y="175"/>
      <point x="73" y="160"/>
      <point x="73" y="145" type="curve" smooth="yes"/>
      <point x="73" y="48"/>
      <point x="131" y="-5"/>
      <point x="245" y="-5" type="curve" smooth="yes"/>
      <point x="404" y="-5" type="line" smooth="yes"/>
      <point x="526" y="-5"/>
      <point x="607" y="68"/>
      <point x="627" y="192" type="curve" smooth="yes"/>
      <point x="683" y="542" type="line" smooth="yes"/>
      <point x="686" y="560"/>
      <point x="687" y="577"/>
      <point x="687" y="593" type="curve" smooth="yes"/>
      <point x="687" y="692"/>
      <point x="632" y="748"/>
      <point x="524" y="748" type="curve" smooth="yes"/>
      <point x="366" y="748" type="line" smooth="yes"/>
      <point x="239" y="748"/>
      <point x="154" y="675"/>
      <point x="132" y="542" type="curve" smooth="yes"/>
    </contour>
  </outline>
</glyph>
<glyph name="three" format="1">
  <advance width="577"/>
  <unicode hex="0033"/>
  <note>
    GF Latin Plus glyph
  </note>
  <outline>
    <contour>
      <point x="142" y="593" type="line"/>
      <point x="347" y="593" type="line" smooth="yes"/>
      <point x="402" y="593"/>
      <point x="440" y="580"/>
      <point x="440" y="535" type="curve" smooth="yes"/>
      <point x="440" y="531"/>
      <point x="440" y="526"/>
      <point x="437" y="505" type="curve" smooth="yes"/>
      <point x="431" y="467"/>
      <point x="398" y="448"/>
      <point x="342" y="445" type="curve" smooth="yes"/>
      <point x="168" y="435" type="line"/>
      <point x="148" y="310" type="line"/>
      <point x="305" y="304" type="line" smooth="yes"/>
      <point x="365" y="301"/>
      <point x="404" y="280"/>
      <point x="404" y="243" type="curve" smooth="yes"/>
      <point x="404" y="240"/>
      <point x="403" y="233"/>
      <point x="399" y="209" type="curve" smooth="yes"/>
      <point x="391" y="162"/>
      <point x="360" y="148"/>
      <point x="281" y="148" type="curve" smooth="yes"/>
      <point x="59" y="148" type="line"/>
      <point x="38" y="18" type="line"/>
      <point x="118" y="3"/>
      <point x="217" y="-6"/>
      <point x="324" y="-6" type="curve" smooth="yes"/>
      <point x="457" y="-6"/>
      <point x="548" y="59"/>
      <point x="567" y="178" type="curve" smooth="yes"/>
      <point x="573" y="222"/>
      <point x="576" y="239"/>
      <point x="576" y="252" type="curve" smooth="yes"/>
      <point x="576" y="315"/>
      <point x="546" y="358"/>
      <point x="499" y="373" type="curve"/>
      <point x="560" y="392"/>
      <point x="597" y="437"/>
      <point x="609" y="509" type="curve" smooth="yes"/>
      <point x="620" y="576"/>
      <point x="620" y="590"/>
      <point x="620" y="602" type="curve" smooth="yes"/>
      <point x="620" y="714"/>
      <point x="549" y="748"/>
      <point x="426" y="748" type="curve" smooth="yes"/>
      <point x="333" y="748"/>
      <point x="242" y="735"/>
      <point x="163" y="722" type="curve"/>
    </contour>
  </outline>
</glyph>
<glyph name="five" format="1">
  <advance width="599"/>
  <unicode hex="0035"/>
  <note>
    GF Latin Plus glyph
  </note>
  <outline>
    <contour>
      <point x="56" y="12" type="line"/>
      <point x="136" y="4"/>
      <point x="228" y="-6"/>
      <point x="304" y="-6" type="curve" smooth="yes"/>
      <point x="474" y="-6"/>
      <point x="569" y="50"/>
      <point x="590" y="184" type="curve" smooth="yes"/>
      <point x="608" y="292" type="line" smooth="yes"/>
      <point x="610" y="306"/>
      <point x="611" y="320"/>
      <point x="611" y="333" type="curve" smooth="yes"/>
      <point x="611" y="413"/>
      <point x="566" y="472"/>
      <point x="466" y="472" type="curve" smooth="yes"/>
      <point x="388" y="472" type="line" smooth="yes"/>
      <point x="358" y="472"/>
      <point x="330" y="462"/>
      <point x="307" y="446" type="curve"/>
      <point x="335" y="587" type="line"/>
      <point x="624" y="587" type="line"/>
      <point x="649" y="742" type="line"/>
      <point x="195" y="742" type="line"/>
      <point x="101" y="281" type="line"/>
      <point x="266" y="281" type="line"/>
      <point x="276" y="312"/>
      <point x="292" y="325"/>
      <point x="329" y="325" type="curve" smooth="yes"/>
      <point x="380" y="325" type="line" smooth="yes"/>
      <point x="417" y="325"/>
      <point x="432" y="309"/>
      <point x="432" y="281" type="curve" smooth="yes"/>
      <point x="432" y="274"/>
      <point x="431" y="268"/>
      <point x="430" y="261" type="curve" smooth="yes"/>
      <point x="423" y="220" type="line" smooth="yes"/>
      <point x="419" y="190"/>
      <point x="404" y="149"/>
      <point x="337" y="149" type="curve" smooth="yes"/>
      <point x="78" y="149" type="line"/>
    </contour>
  </outline>
</glyph>
<glyph name="F" format="1">
  <advance width="568"/>
  <unicode hex="0046"/>
  <note>
    GF Latin Plus glyph
  </note>
  <outline>
    <contour>
      <point x="58" y="0" type="line"/>
      <point x="231" y="0" type="line"/>
      <point x="274" y="268" type="line"/>
      <point x="537" y="277" type="line"/>
      <point x="560" y="414" type="line"/>
      <point x="298" y="422" type="line"/>
      <point x="313" y="520" type="line" smooth="yes"/>
      <point x="319" y="560"/>
      <point x="336" y="581"/>
      <point x="381" y="581" type="curve" smooth="yes"/>
      <point x="634" y="581" type="line"/>
      <point x="657" y="727" type="line"/>
      <point x="574" y="736"/>
      <point x="458" y="742"/>
      <point x="353" y="742" type="curve" smooth="yes"/>
      <point x="266" y="742"/>
      <point x="170" y="708"/>
      <point x="148" y="567" type="curve" smooth="yes"/>
    </contour>
    <contour>
      <point x="437" y="810" type="move" name="top"/>
    </contour>
  </outline>
</glyph>
<glyph name="J" format="1">
  <advance width="405"/>
  <unicode hex="004A"/>
  <note>
    GF Latin Plus glyph
  </note>
  <outline>
    <contour>
      <point x="34" y="16" type="line"/>
      <point x="62" y="3"/>
      <point x="111" y="-6"/>
      <point x="154" y="-6" type="curve" smooth="yes"/>
      <point x="292" y="-6"/>
      <point x="357" y="46"/>
      <point x="380" y="186" type="curve" smooth="yes"/>
      <point x="468" y="742" type="line"/>
      <point x="295" y="742" type="line"/>
      <point x="213" y="224" type="line" smooth="yes"/>
      <point x="206" y="176"/>
      <point x="182" y="151"/>
      <point x="124" y="151" type="curve" smooth="yes"/>
      <point x="120" y="151"/>
      <point x="60" y="152"/>
      <point x="56" y="153" type="curve"/>
    </contour>
    <contour>
      <point x="391" y="810" type="move" name="top"/>
    </contour>
  </outline>
</glyph>
<glyph name="K" format="1">
  <advance width="657"/>
  <unicode hex="004B"/>
  <note>
    GF Latin Plus glyph
  </note>
  <outline>
    <contour>
      <point x="58" y="0" type="line"/>
      <point x="231" y="0" type="line"/>
      <point x="277" y="295" type="line"/>
      <point x="373" y="295" type="line"/>
      <point x="482" y="0" type="line"/>
      <point x="653" y="0" type="line"/>
      <point x="515" y="369" type="line"/>
      <point x="752" y="742" type="line"/>
      <point x="576" y="742" type="line"/>
      <point x="388" y="450" type="line"/>
      <point x="302" y="450" type="line"/>
      <point x="349" y="742" type="line"/>
      <point x="176" y="742" type="line"/>
    </contour>
    <contour>
      <point x="452" y="810" type="move" name="top"/>
    </contour>
    <contour>
      <point x="300" y="-150" type="move" name="bottom"/>
    </contour>
  </outline>
</glyph>
<glyph name="L" format="1">
  <advance width="534"/>
  <unicode hex="004C"/>
  <note>
    GF Latin Plus glyph
  </note>
  <outline>
    <contour>
      <point x="89" y="191" type="line" smooth="yes"/>
      <point x="86" y="173"/>
      <point x="85" y="158"/>
      <point x="85" y="143" type="curve" smooth="yes"/>
      <point x="85" y="44"/>
      <point x="145" y="0"/>
      <point x="239" y="0" type="curve" smooth="yes"/>
      <point x="514" y="0" type="line"/>
      <point x="539" y="155" type="line"/>
      <point x="316" y="155" type="line" smooth="yes"/>
      <point x="281" y="155"/>
      <point x="264" y="168"/>
      <point x="264" y="198" type="curve" smooth="yes"/>
      <point x="264" y="203"/>
      <point x="264" y="208"/>
      <point x="265" y="214" type="curve" smooth="yes"/>
      <point x="349" y="742" type="line"/>
      <point x="176" y="742" type="line"/>
    </contour>
    <contour>
      <point x="274" y="810" type="move" name="top"/>
    </contour>
    <contour>
      <point x="379" y="624" type="move" name="altcaron"/>
    </contour>
    <contour>
      <point x="413" y="400" type="move" name="dot"/>
    </contour>
    <contour>
      <point x="249" y="-150" type="move" name="bottom"/>
    </contour>
  </outline>
</glyph>
<glyph name="M" format="1">
  <advance width="889"/>
  <unicode hex="004D"/>
  <note>
    GF Latin Plus glyph
  </note>
  <outline>
    <contour>
      <point x="35" y="0" type="line"/>
      <point x="206" y="0" type="line"/>
      <point x="323" y="428" type="line"/>
      <point x="368" y="0" type="line"/>
      <point x="530" y="0" type="line"/>
      <point x="713" y="435" type="line"/>
      <point x="695" y="0" type="line"/>
      <point x="862" y="0" type="line"/>
      <point x="891" y="742" type="line"/>
      <point x="731" y="742" type="line"/>
      <point x="482" y="200" type="line"/>
      <point x="406" y="742" type="line"/>
      <point x="244" y="742" type="line"/>
    </contour>
    <contour>
      <point x="564" y="810" type="move" name="top"/>
    </contour>
    <contour>
      <point x="412" y="-150" type="move" name="bottom"/>
    </contour>
  </outline>
</glyph>
<glyph name="O" format="1">
  <advance width="701"/>
  <unicode hex="004F"/>
  <note>
    GF Latin Plus glyph
  </note>
  <outline>
    <contour>
      <point x="259" y="243" type="curve" smooth="yes"/>
      <point x="259" y="272"/>
      <point x="265" y="321"/>
      <point x="274" y="372" type="curve" smooth="yes"/>
      <point x="301" y="548"/>
      <point x="341" y="593"/>
      <point x="444" y="593" type="curve" smooth="yes"/>
      <point x="522" y="593"/>
      <point x="557" y="575"/>
      <point x="557" y="494" type="curve" smooth="yes"/>
      <point x="557" y="464"/>
      <point x="551" y="413"/>
      <point x="543" y="361" type="curve" smooth="yes"/>
      <point x="519" y="212"/>
      <point x="483" y="150"/>
      <point x="375" y="150" type="curve" smooth="yes"/>
      <point x="292" y="150"/>
      <point x="259" y="170"/>
    </contour>
    <contour>
      <point x="87" y="234" type="curve" smooth="yes"/>
      <point x="87" y="35"/>
      <point x="194" y="-6"/>
      <point x="348" y="-6" type="curve" smooth="yes"/>
      <point x="569" y="-6"/>
      <point x="670" y="55"/>
      <point x="715" y="338" type="curve" smooth="yes"/>
      <point x="724" y="395"/>
      <point x="730" y="454"/>
      <point x="730" y="496" type="curve" smooth="yes"/>
      <point x="730" y="706"/>
      <point x="618" y="748"/>
      <point x="468" y="748" type="curve" smooth="yes"/>
      <point x="247" y="748"/>
      <point x="145" y="668"/>
      <point x="102" y="394" type="curve" smooth="yes"/>
      <point x="92" y="338"/>
      <point x="87" y="279"/>
    </contour>
    <contour>
      <point x="480" y="810" type="move" name="top"/>
    </contour>
    <contour>
      <point x="440" y="0" type="move" name="ogonek"/>
    </contour>
    <contour>
      <point x="328" y="-150" type="move" name="bottom"/>
    </contour>
  </outline>
</glyph>
<glyph name="P" format="1">
  <advance width="613"/>
  <unicode hex="0050"/>
  <note>
    GF Latin Plus glyph
  </note>
  <outline>
    <contour>
      <point x="290" y="371" type="line"/>
      <point x="324" y="587" type="line"/>
      <point x="443" y="587" type="line" smooth="yes"/>
      <point x="482" y="587"/>
      <point x="503" y="568"/>
      <point x="503" y="516" type="curve" smooth="yes"/>
      <point x="503" y="509"/>
      <point x="501" y="490"/>
      <point x="498" y="472" type="curve" smooth="yes"/>
      <point x="489" y="412"/>
      <point x="458" y="371"/>
      <point x="409" y="371" type="curve" smooth="yes"/>
    </contour>
    <contour>
      <point x="58" y="0" type="line"/>
      <point x="231" y="0" type="line"/>
      <point x="268" y="236" type="line"/>
      <point x="302" y="226"/>
      <point x="370" y="216"/>
      <point x="433" y="216" type="curve" smooth="yes"/>
      <point x="534" y="216"/>
      <point x="642" y="274"/>
      <point x="670" y="453" type="curve" smooth="yes"/>
      <point x="674" y="477"/>
      <point x="679" y="512"/>
      <point x="679" y="533" type="curve" smooth="yes"/>
      <point x="679" y="696"/>
      <point x="590" y="742"/>
      <point x="477" y="742" type="curve" smooth="yes"/>
      <point x="176" y="742" type="line"/>
    </contour>
    <contour>
      <point x="417" y="810" type="move" name="top"/>
    </contour>
  </outline>
</glyph>
<glyph name="T" format="1">
  <advance width="611"/>
  <unicode hex="0054"/>
  <note>
    GF Latin Plus glyph
  </note>
  <outline>
    <contour>
      <point x="114" y="587" type="line"/>
      <point x="307" y="587" type="line"/>
      <point x="214" y="0" type="line"/>
      <point x="387" y="0" type="line"/>
      <point x="480" y="587" type="line"/>
      <point x="672" y="587" type="line"/>
      <point x="697" y="742" type="line"/>
      <point x="139" y="742" type="line"/>
    </contour>
    <contour>
      <point x="429" y="810" type="move" name="top"/>
    </contour>
    <contour>
      <point x="277" y="-150" type="move" name="bottom"/>
    </contour>
  </outline>
</glyph>
<glyph name="U" format="1">
  <advance width="692"/>
  <unicode hex="0055"/>
  <note>
    GF Latin Plus glyph
  </note>
  <outline>
    <contour>
      <point x="113" y="346" type="line" smooth="yes"/>
      <point x="106" y="302"/>
      <point x="100" y="258"/>
      <point x="100" y="223" type="curve" smooth="yes"/>
      <point x="100" y="61"/>
      <point x="184" y="-6"/>
      <point x="348" y="-6" type="curve" smooth="yes"/>
      <point x="534" y="-6"/>
      <point x="640" y="39"/>
      <point x="681" y="294" type="curve" smooth="yes"/>
      <point x="752" y="742" type="line"/>
      <point x="579" y="742" type="line"/>
      <point x="512" y="320" type="line" smooth="yes"/>
      <point x="491" y="181"/>
      <point x="451" y="149"/>
      <point x="372" y="149" type="curve" smooth="yes"/>
      <point x="300" y="149"/>
      <point x="272" y="178"/>
      <point x="272" y="238" type="curve" smooth="yes"/>
      <point x="272" y="260"/>
      <point x="277" y="289"/>
      <point x="282" y="320" type="curve" smooth="yes"/>
      <point x="349" y="742" type="line"/>
      <point x="176" y="742" type="line"/>
    </contour>
    <contour>
      <point x="469" y="810" type="move" name="top"/>
    </contour>
    <contour>
      <point x="434" y="0" type="move" name="ogonek"/>
    </contour>
    <contour>
      <point x="317" y="-150" type="move" name="bottom"/>
    </contour>
  </outline>
</glyph>
<glyph name="a" format="1">
  <advance width="573"/>
  <unicode hex="0061"/>
  <note>
    GF Latin Plus glyph
  </note>
  <outline>
    <contour>
      <point x="249" y="284" type="curve" smooth="yes"/>
      <point x="262" y="359"/>
      <point x="293" y="406"/>
      <point x="359" y="406" type="curve" smooth="yes"/>
      <point x="385" y="406"/>
      <point x="408" y="398"/>
      <point x="415" y="395" type="curve"/>
      <point x="379" y="165" type="line"/>
      <point x="361" y="151"/>
      <point x="334" y="132"/>
      <point x="296" y="132" type="curve" smooth="yes"/>
      <point x="256" y="132"/>
      <point x="241" y="169"/>
      <point x="241" y="212" type="curve" smooth="yes"/>
      <point x="241" y="227"/>
      <point x="244" y="255"/>
    </contour>
    <contour>
      <point x="80" y="295" type="curve" smooth="yes"/>
      <point x="76" y="268"/>
      <point x="68" y="220"/>
      <point x="68" y="181" type="curve" smooth="yes"/>
      <point x="68" y="50"/>
      <point x="134" y="-6"/>
      <point x="210" y="-6" type="curve" smooth="yes"/>
      <point x="270" y="-6"/>
      <point x="334" y="27"/>
      <point x="362" y="53" type="curve"/>
      <point x="372" y="0" type="line"/>
      <point x="526" y="0" type="line"/>
      <point x="602" y="479" type="line"/>
      <point x="554" y="516"/>
      <point x="464" y="544"/>
      <point x="367" y="544" type="curve" smooth="yes"/>
      <point x="193" y="544"/>
      <point x="106" y="461"/>
    </contour>
    <contour>
      <point x="380" y="650" type="move" name="top"/>
    </contour>
    <contour>
      <point x="516" y="0" type="move" name="ogonek"/>
    </contour>
    <contour>
      <point x="254" y="-150" type="move" name="bottom"/>
    </contour>
  </outline>
</glyph>
<glyph name="e" format="1">
  <advance width="548"/>
  <unicode hex="0065"/>
  <note>
    GF Latin Plus glyph
  </note>
  <outline>
    <contour>
      <point x="254" y="295" type="curve"/>
      <point x="267" y="372"/>
      <point x="294" y="413"/>
      <point x="353" y="413" type="curve" smooth="yes"/>
      <point x="394" y="413"/>
      <point x="414" y="394"/>
      <point x="414" y="361" type="curve" smooth="yes"/>
      <point x="414" y="314"/>
      <point x="389" y="290"/>
      <point x="306" y="290" type="curve" smooth="yes"/>
      <point x="288" y="290"/>
      <point x="270" y="293"/>
    </contour>
    <contour>
      <point x="71" y="199" type="curve" smooth="yes"/>
      <point x="71" y="70"/>
      <point x="126" y="-6"/>
      <point x="283" y="-6" type="curve" smooth="yes"/>
      <point x="373" y="-6"/>
      <point x="455" y="6"/>
      <point x="512" y="19" type="curve"/>
      <point x="528" y="120" type="line"/>
      <point x="352" y="120" type="line" smooth="yes"/>
      <point x="274" y="120"/>
      <point x="241" y="138"/>
      <point x="241" y="177" type="curve" smooth="yes"/>
      <point x="241" y="186"/>
      <point x="242" y="196"/>
      <point x="243" y="205" type="curve"/>
      <point x="266" y="200"/>
      <point x="304" y="196"/>
      <point x="348" y="196" type="curve" smooth="yes"/>
      <point x="472" y="196"/>
      <point x="574" y="226"/>
      <point x="574" y="380" type="curve" smooth="yes"/>
      <point x="574" y="514"/>
      <point x="468" y="544"/>
      <point x="365" y="544" type="curve" smooth="yes"/>
      <point x="208" y="544"/>
      <point x="109" y="477"/>
      <point x="81" y="298" type="curve" smooth="yes"/>
      <point x="76" y="267"/>
      <point x="71" y="234"/>
    </contour>
    <contour>
      <point x="379" y="650" type="move" name="top"/>
    </contour>
    <contour>
      <point x="502" y="19" type="move" name="ogonek"/>
    </contour>
    <contour>
      <point x="273" y="-150" type="move" name="bottom"/>
    </contour>
  </outline>
</glyph>
<glyph name="g" format="1">
  <advance width="579"/>
  <unicode hex="0067"/>
  <note>
    GF Latin Plus glyph
  </note>
  <outline>
    <contour>
      <point x="251" y="288" type="curve" smooth="yes"/>
      <point x="266" y="375"/>
      <point x="308" y="406"/>
      <point x="358" y="406" type="curve" smooth="yes"/>
      <point x="371" y="406"/>
      <point x="405" y="403"/>
      <point x="417" y="399" type="curve"/>
      <point x="380" y="165" type="line"/>
      <point x="357" y="147"/>
      <point x="330" y="132"/>
      <point x="298" y="132" type="curve" smooth="yes"/>
      <point x="263" y="132"/>
      <point x="242" y="158"/>
      <point x="242" y="211" type="curve" smooth="yes"/>
      <point x="242" y="234"/>
      <point x="244" y="248"/>
    </contour>
    <contour>
      <point x="31" y="-222" type="line"/>
      <point x="159" y="-233" type="line" smooth="yes"/>
      <point x="383" y="-252"/>
      <point x="495" y="-202"/>
      <point x="518" y="-56" type="curve" smooth="yes"/>
      <point x="608" y="507" type="line"/>
      <point x="556" y="525"/>
      <point x="469" y="544"/>
      <point x="366" y="544" type="curve" smooth="yes"/>
      <point x="233" y="544"/>
      <point x="113" y="495"/>
      <point x="83" y="308" type="curve" smooth="yes"/>
      <point x="77" y="268"/>
      <point x="70" y="215"/>
      <point x="70" y="181" type="curve" smooth="yes"/>
      <point x="70" y="83"/>
      <point x="110" y="-6"/>
      <point x="208" y="-6" type="curve" smooth="yes"/>
      <point x="262" y="-6"/>
      <point x="330" y="22"/>
      <point x="363" y="53" type="curve"/>
      <point x="350" y="-29" type="line" smooth="yes"/>
      <point x="340" y="-89"/>
      <point x="293" y="-103"/>
      <point x="221" y="-103" type="curve" smooth="yes"/>
      <point x="49" y="-103" type="line"/>
    </contour>
    <contour>
      <point x="380" y="650" type="move" name="top"/>
    </contour>
    <contour>
      <point x="213" y="-350" type="move" name="bottom"/>
    </contour>
  </outline>
</glyph>
<glyph name="h" format="1">
  <advance width="596"/>
  <unicode hex="0068"/>
  <note>
    GF Latin Plus glyph
  </note>
  <outline>
    <contour>
      <point x="48" y="0" type="line"/>
      <point x="221" y="0" type="line"/>
      <point x="277" y="349" type="line"/>
      <point x="305" y="374"/>
      <point x="337" y="389"/>
      <point x="378" y="389" type="curve" smooth="yes"/>
      <point x="406" y="389"/>
      <point x="428" y="379"/>
      <point x="428" y="342" type="curve" smooth="yes"/>
      <point x="428" y="336"/>
      <point x="428" y="330"/>
      <point x="427" y="324" type="curve" smooth="yes"/>
      <point x="376" y="0" type="line"/>
      <point x="549" y="0" type="line"/>
      <point x="603" y="344" type="line" smooth="yes"/>
      <point x="607" y="368"/>
      <point x="609" y="389"/>
      <point x="609" y="409" type="curve" smooth="yes"/>
      <point x="609" y="506"/>
      <point x="561" y="544"/>
      <point x="476" y="544" type="curve" smooth="yes"/>
      <point x="398" y="544"/>
      <point x="336" y="515"/>
      <point x="298" y="485" type="curve"/>
      <point x="342" y="763" type="line"/>
      <point x="170" y="763" type="line"/>
    </contour>
    <contour>
      <point x="356" y="850" type="move" name="top"/>
    </contour>
    <contour>
      <point x="265" y="-150" type="move" name="bottom"/>
    </contour>
  </outline>
</glyph>
<glyph name="i" format="1">
  <advance width="268"/>
  <unicode hex="0069"/>
  <note>
    GF Latin Plus glyph
  </note>
  <outline>
    <contour>
      <point x="146" y="633" type="line" smooth="yes"/>
      <point x="144" y="620"/>
      <point x="152" y="611"/>
      <point x="165" y="611" type="curve" smooth="yes"/>
      <point x="300" y="611" type="line" smooth="yes"/>
      <point x="313" y="611"/>
      <point x="321" y="619"/>
      <point x="324" y="633" type="curve" smooth="yes"/>
      <point x="340" y="738" type="line" smooth="yes"/>
      <point x="342" y="751"/>
      <point x="337" y="761"/>
      <point x="323" y="761" type="curve" smooth="yes"/>
      <point x="189" y="761" type="line" smooth="yes"/>
      <point x="174" y="761"/>
      <point x="165" y="752"/>
      <point x="163" y="738" type="curve" smooth="yes"/>
    </contour>
    <component base="idotless" xOffset="-1"/>
    <contour>
      <point x="211" y="0" type="move" name="ogonek"/>
    </contour>
    <contour>
      <point x="120" y="-150" type="move" name="bottom"/>
    </contour>
  </outline>
</glyph>
<glyph name="k" format="1">
  <advance width="576"/>
  <unicode hex="006B"/>
  <note>
    GF Latin Plus glyph
  </note>
  <outline>
    <contour>
      <point x="48" y="0" type="line"/>
      <point x="221" y="0" type="line"/>
      <point x="257" y="229" type="line"/>
      <point x="270" y="229"/>
      <point x="292" y="232"/>
      <point x="307" y="236" type="curve"/>
      <point x="410" y="0" type="line"/>
      <point x="586" y="0" type="line"/>
      <point x="451" y="289" type="line"/>
      <point x="510" y="323"/>
      <point x="577" y="388"/>
      <point x="618" y="538" type="curve"/>
      <point x="445" y="538" type="line"/>
      <point x="419" y="434"/>
      <point x="362" y="376"/>
      <point x="278" y="357" type="curve"/>
      <point x="342" y="763" type="line"/>
      <point x="170" y="763" type="line"/>
    </contour>
    <contour>
      <point x="279" y="-150" type="move" name="bottom"/>
    </contour>
  </outline>
</glyph>
<glyph name="l" format="1">
  <advance width="333"/>
  <unicode hex="006C"/>
  <note>
    GF Latin Plus glyph
  </note>
  <outline>
    <contour>
      <point x="78" y="188" type="line" smooth="yes"/>
      <point x="75" y="169"/>
      <point x="74" y="149"/>
      <point x="74" y="125" type="curve" smooth="yes"/>
      <point x="74" y="51"/>
      <point x="133" y="0"/>
      <point x="248" y="0" type="curve" smooth="yes"/>
      <point x="315" y="0" type="line"/>
      <point x="334" y="125" type="line"/>
      <point x="301" y="130" type="line" smooth="yes"/>
      <point x="270" y="135"/>
      <point x="252" y="143"/>
      <point x="252" y="178" type="curve" smooth="yes"/>
      <point x="252" y="194"/>
      <point x="258" y="234"/>
      <point x="261" y="248" type="curve" smooth="yes"/>
      <point x="342" y="763" type="line"/>
      <point x="170" y="763" type="line"/>
    </contour>
    <contour>
      <point x="267" y="850" type="move" name="top"/>
    </contour>
    <contour>
      <point x="345" y="650" type="move" name="altcaron"/>
    </contour>
    <contour>
      <point x="319" y="356" type="move" name="dot"/>
    </contour>
    <contour>
      <point x="156" y="-150" type="move" name="bottom"/>
    </contour>
  </outline>
</glyph>
<glyph name="m" format="1">
  <advance width="924"/>
  <unicode hex="006D"/>
  <note>
    GF Latin Plus glyph
  </note>
  <outline>
    <contour>
      <point x="48" y="0" type="line"/>
      <point x="221" y="0" type="line"/>
      <point x="277" y="349" type="line"/>
      <point x="302" y="370"/>
      <point x="331" y="389"/>
      <point x="374" y="389" type="curve" smooth="yes"/>
      <point x="409" y="389"/>
      <point x="428" y="376"/>
      <point x="428" y="342" type="curve" smooth="yes"/>
      <point x="428" y="336"/>
      <point x="428" y="330"/>
      <point x="427" y="322" type="curve" smooth="yes"/>
      <point x="376" y="0" type="line"/>
      <point x="549" y="0" type="line"/>
      <point x="600" y="320" type="line" smooth="yes"/>
      <point x="601" y="331"/>
      <point x="602" y="340"/>
      <point x="603" y="348" type="curve"/>
      <point x="633" y="374"/>
      <point x="666" y="389"/>
      <point x="700" y="389" type="curve" smooth="yes"/>
      <point x="737" y="389"/>
      <point x="756" y="374"/>
      <point x="756" y="341" type="curve" smooth="yes"/>
      <point x="756" y="336"/>
      <point x="756" y="329"/>
      <point x="754" y="324" type="curve" smooth="yes"/>
      <point x="703" y="0" type="line"/>
      <point x="876" y="0" type="line"/>
      <point x="928" y="328" type="line" smooth="yes"/>
      <point x="933" y="356"/>
      <point x="936" y="385"/>
      <point x="936" y="416" type="curve" smooth="yes"/>
      <point x="936" y="493"/>
      <point x="899" y="544"/>
      <point x="793" y="544" type="curve" smooth="yes"/>
      <point x="736" y="544"/>
      <point x="663" y="522"/>
      <point x="605" y="466" type="curve"/>
      <point x="577" y="523"/>
      <point x="536" y="544"/>
      <point x="477" y="544" type="curve" smooth="yes"/>
      <point x="396" y="544"/>
      <point x="343" y="518"/>
      <point x="298" y="485" type="curve"/>
      <point x="277" y="538" type="line"/>
      <point x="133" y="538" type="line"/>
    </contour>
    <contour>
      <point x="571" y="650" type="move" name="top"/>
    </contour>
    <contour>
      <point x="445" y="-150" type="move" name="bottom"/>
    </contour>
  </outline>
</glyph>
<glyph name="o" format="1">
  <advance width="577"/>
  <unicode hex="006F"/>
  <note>
    GF Latin Plus glyph
  </note>
  <outline>
    <contour>
      <point x="248" y="262" type="curve" smooth="yes"/>
      <point x="266" y="382"/>
      <point x="285" y="409"/>
      <point x="351" y="409" type="curve" smooth="yes"/>
      <point x="398" y="409"/>
      <point x="417" y="396"/>
      <point x="417" y="353" type="curve" smooth="yes"/>
      <point x="417" y="328"/>
      <point x="414" y="299"/>
      <point x="408" y="262" type="curve" smooth="yes"/>
      <point x="391" y="156"/>
      <point x="371" y="132"/>
      <point x="306" y="132" type="curve" smooth="yes"/>
      <point x="262" y="132"/>
      <point x="242" y="145"/>
      <point x="242" y="191" type="curve" smooth="yes"/>
      <point x="242" y="211"/>
      <point x="244" y="234"/>
    </contour>
    <contour>
      <point x="79" y="286" type="curve" smooth="yes"/>
      <point x="74" y="255"/>
      <point x="71" y="222"/>
      <point x="71" y="183" type="curve" smooth="yes"/>
      <point x="71" y="60"/>
      <point x="142" y="-6"/>
      <point x="288" y="-6" type="curve" smooth="yes"/>
      <point x="463" y="-6"/>
      <point x="549" y="40"/>
      <point x="580" y="237" type="curve" smooth="yes"/>
      <point x="586" y="276"/>
      <point x="589" y="314"/>
      <point x="589" y="346" type="curve" smooth="yes"/>
      <point x="589" y="481"/>
      <point x="551" y="544"/>
      <point x="374" y="544" type="curve" smooth="yes"/>
      <point x="196" y="544"/>
      <point x="113" y="502"/>
    </contour>
    <contour>
      <point x="379" y="650" type="move" name="top"/>
    </contour>
    <contour>
      <point x="370" y="0" type="move" name="ogonek"/>
    </contour>
    <contour>
      <point x="253" y="-150" type="move" name="bottom"/>
    </contour>
  </outline>
</glyph>
<glyph name="p" format="1">
  <advance width="574"/>
  <unicode hex="0070"/>
  <note>
    GF Latin Plus glyph
  </note>
  <outline>
    <contour>
      <point x="244" y="150" type="curve"/>
      <point x="285" y="405" type="line"/>
      <point x="360" y="406" type="line" smooth="yes"/>
      <point x="402" y="406"/>
      <point x="418" y="379"/>
      <point x="418" y="319" type="curve" smooth="yes"/>
      <point x="418" y="304"/>
      <point x="416" y="289"/>
      <point x="414" y="273" type="curve" smooth="yes"/>
      <point x="397" y="176"/>
      <point x="364" y="140"/>
      <point x="307" y="140" type="curve" smooth="yes"/>
      <point x="280" y="140"/>
      <point x="261" y="144"/>
    </contour>
    <contour>
      <point x="10" y="-237" type="line"/>
      <point x="183" y="-237" type="line"/>
      <point x="223" y="12" type="line"/>
      <point x="245" y="0"/>
      <point x="286" y="-6"/>
      <point x="328" y="-6" type="curve" smooth="yes"/>
      <point x="451" y="-6"/>
      <point x="551" y="69"/>
      <point x="579" y="241" type="curve" smooth="yes"/>
      <point x="584" y="279"/>
      <point x="589" y="316"/>
      <point x="589" y="350" type="curve" smooth="yes"/>
      <point x="589" y="478"/>
      <point x="542" y="544"/>
      <point x="409" y="544" type="curve" smooth="yes"/>
      <point x="310" y="544"/>
      <point x="228" y="531"/>
      <point x="130" y="513" type="curve"/>
    </contour>
    <contour>
      <point x="388" y="650" type="move" name="top"/>
    </contour>
  </outline>
</glyph>
<glyph name="r" format="1">
  <advance width="428"/>
  <unicode hex="0072"/>
  <note>
    GF Latin Plus glyph
  </note>
  <outline>
    <contour>
      <point x="49" y="0" type="line"/>
      <point x="222" y="0" type="line"/>
      <point x="274" y="328" type="line"/>
      <point x="300" y="348"/>
      <point x="344" y="367"/>
      <point x="401" y="367" type="curve" smooth="yes"/>
      <point x="404" y="367"/>
      <point x="458" y="366"/>
      <point x="461" y="366" type="curve"/>
      <point x="487" y="539" type="line"/>
      <point x="471" y="543"/>
      <point x="457" y="544"/>
      <point x="437" y="544" type="curve" smooth="yes"/>
      <point x="378" y="544"/>
      <point x="332" y="509"/>
      <point x="296" y="467" type="curve"/>
      <point x="288" y="538" type="line"/>
      <point x="134" y="538" type="line"/>
    </contour>
    <contour>
      <point x="319" y="652" type="move" name="top"/>
    </contour>
    <contour>
      <point x="111" y="-150" type="move" name="bottom"/>
    </contour>
  </outline>
</glyph>
<glyph name="s" format="1">
  <advance width="514"/>
  <unicode hex="0073"/>
  <note>
    GF Latin Plus glyph
  </note>
  <outline>
    <contour>
      <point x="49" y="22" type="line"/>
      <point x="103" y="4"/>
      <point x="168" y="-6"/>
      <point x="264" y="-6" type="curve" smooth="yes"/>
      <point x="398" y="-6"/>
      <point x="486" y="31"/>
      <point x="502" y="134" type="curve" smooth="yes"/>
      <point x="509" y="181" type="line" smooth="yes"/>
      <point x="511" y="198"/>
      <point x="512" y="214"/>
      <point x="512" y="229" type="curve" smooth="yes"/>
      <point x="512" y="295"/>
      <point x="454" y="337"/>
      <point x="366" y="337" type="curve" smooth="yes"/>
      <point x="281" y="337" type="line" smooth="yes"/>
      <point x="253" y="337"/>
      <point x="246" y="345"/>
      <point x="246" y="359" type="curve" smooth="yes"/>
      <point x="246" y="363"/>
      <point x="247" y="369"/>
      <point x="248" y="376" type="curve" smooth="yes"/>
      <point x="250" y="385" type="line" smooth="yes"/>
      <point x="255" y="407"/>
      <point x="266" y="414"/>
      <point x="295" y="414" type="curve" smooth="yes"/>
      <point x="518" y="414" type="line"/>
      <point x="535" y="515" type="line"/>
      <point x="483" y="532"/>
      <point x="395" y="544"/>
      <point x="328" y="544" type="curve" smooth="yes"/>
      <point x="167" y="544"/>
      <point x="112" y="482"/>
      <point x="97" y="398" type="curve" smooth="yes"/>
      <point x="91" y="361" type="line" smooth="yes"/>
      <point x="88" y="344"/>
      <point x="88" y="328"/>
      <point x="88" y="314" type="curve" smooth="yes"/>
      <point x="88" y="234"/>
      <point x="157" y="200"/>
      <point x="245" y="200" type="curve" smooth="yes"/>
      <point x="319" y="200" type="line" smooth="yes"/>
      <point x="340" y="200"/>
      <point x="352" y="192"/>
      <point x="352" y="177" type="curve" smooth="yes"/>
      <point x="352" y="176"/>
      <point x="352" y="173"/>
      <point x="351" y="167" type="curve" smooth="yes"/>
      <point x="348" y="151" type="line" smooth="yes"/>
      <point x="345" y="133"/>
      <point x="329" y="123"/>
      <point x="303" y="123" type="curve" smooth="yes"/>
      <point x="65" y="123" type="line"/>
    </contour>
    <contour>
      <point x="372" y="650" type="move" name="top"/>
    </contour>
    <contour>
      <point x="246" y="-150" type="move" name="bottom"/>
    </contour>
  </outline>
</glyph>
<glyph name="u" format="1">
  <advance width="596"/>
  <unicode hex="0075"/>
  <note>
    GF Latin Plus glyph
  </note>
  <outline>
    <contour>
      <point x="76" y="188" type="line" smooth="yes"/>
      <point x="73" y="169"/>
      <point x="71" y="150"/>
      <point x="71" y="121" type="curve" smooth="yes"/>
      <point x="71" y="42"/>
      <point x="110" y="-6"/>
      <point x="202" y="-6" type="curve" smooth="yes"/>
      <point x="284" y="-6"/>
      <point x="327" y="14"/>
      <point x="382" y="53" type="curve"/>
      <point x="393" y="0" type="line"/>
      <point x="547" y="0" type="line"/>
      <point x="632" y="538" type="line"/>
      <point x="459" y="538" type="line"/>
      <point x="404" y="189" type="line"/>
      <point x="376" y="167"/>
      <point x="345" y="149"/>
      <point x="304" y="149" type="curve" smooth="yes"/>
      <point x="275" y="149"/>
      <point x="252" y="159"/>
      <point x="252" y="193" type="curve" smooth="yes"/>
      <point x="252" y="200"/>
      <point x="252" y="205"/>
      <point x="253" y="211" type="curve" smooth="yes"/>
      <point x="304" y="538" type="line"/>
      <point x="132" y="538" type="line"/>
    </contour>
    <contour>
      <point x="400" y="650" type="move" name="top"/>
    </contour>
    <contour>
      <point x="537" y="0" type="move" name="ogonek"/>
    </contour>
    <contour>
      <point x="274" y="-150" type="move" name="bottom"/>
    </contour>
  </outline>
</glyph>
<glyph name="v" format="1">
  <advance width="554"/>
  <unicode hex="0076"/>
  <note>
    GF Latin Plus glyph
  </note>
  <outline>
    <contour>
      <point x="79" y="538" type="line"/>
      <point x="166" y="0" type="line"/>
      <point x="365" y="0" type="line"/>
      <point x="521" y="312" type="line" smooth="yes"/>
      <point x="555" y="381"/>
      <point x="593" y="462"/>
      <point x="595" y="546" type="curve"/>
      <point x="435" y="546" type="line"/>
      <point x="429" y="482"/>
      <point x="414" y="438"/>
      <point x="392" y="384" type="curve" smooth="yes"/>
      <point x="294" y="160" type="line"/>
      <point x="257" y="538" type="line"/>
    </contour>
  </outline>
</glyph>
<glyph name="x" format="1">
  <advance width="566"/>
  <unicode hex="0078"/>
  <note>
    GF Latin Plus glyph
  </note>
  <outline>
    <contour>
      <point x="0" y="0" type="line"/>
      <point x="177" y="0" type="line"/>
      <point x="310" y="159" type="line"/>
      <point x="262" y="315" type="line"/>
    </contour>
    <contour>
      <point x="320" y="349" type="line"/>
      <point x="382" y="209" type="line"/>
      <point x="641" y="538" type="line"/>
      <point x="456" y="538" type="line"/>
    </contour>
    <contour>
      <point x="264" y="214" type="line"/>
      <point x="389" y="0" type="line"/>
      <point x="566" y="0" type="line"/>
      <point x="392" y="299" type="line"/>
      <point x="252" y="538" type="line"/>
      <point x="76" y="538" type="line"/>
    </contour>
    <contour>
      <point x="372" y="650" type="move" name="top"/>
    </contour>
    <contour>
      <point x="246" y="-150" type="move" name="bottom"/>
    </contour>
  </outline>
</glyph>
<glyph name="z" format="1">
  <advance width="501"/>
  <unicode hex="007A"/>
  <note>
    GF Latin Plus glyph
  </note>
  <outline>
    <contour>
      <point x="35" y="0" type="line"/>
      <point x="469" y="0" type="line"/>
      <point x="469" y="0"/>
      <point x="491" y="137"/>
      <point x="490" y="138" type="curve"/>
      <point x="256" y="138" type="line"/>
      <point x="532" y="414" type="line"/>
      <point x="551" y="538" type="line"/>
      <point x="109" y="538" type="line"/>
      <point x="87" y="400" type="line"/>
      <point x="330" y="400" type="line"/>
      <point x="55" y="124" type="line"/>
    </contour>
    <contour>
      <point x="327" y="650" type="move" name="top"/>
    </contour>
    <contour>
      <point x="201" y="-150" type="move" name="bottom"/>
    </contour>
  </outline>
</glyph>
<glyph name="cent" format="1">
  <advance width="485"/>
  <unicode hex="00A2"/>
  <note>
    GF Latin Plus glyph
  </note>
  <outline>
    <contour>
      <point x="60" y="195" type="curve" smooth="yes"/>
      <point x="60" y="40"/>
      <point x="127" y="6"/>
      <point x="216" y="-5" type="curve"/>
      <point x="202" y="-93" type="line"/>
      <point x="299" y="-93" type="line"/>
      <point x="313" y="-6" type="line"/>
      <point x="365" y="-2"/>
      <point x="414" y="6"/>
      <point x="463" y="32" type="curve"/>
      <point x="479" y="134" type="line"/>
      <point x="470" y="132"/>
      <point x="408" y="124"/>
      <point x="318" y="124" type="curve" smooth="yes"/>
      <point x="260" y="124"/>
      <point x="234" y="138"/>
      <point x="234" y="199" type="curve" smooth="yes"/>
      <point x="234" y="317"/>
      <point x="274" y="407"/>
      <point x="364" y="407" type="curve" smooth="yes"/>
      <point x="450" y="407"/>
      <point x="509" y="401"/>
      <point x="516" y="400" type="curve"/>
      <point x="532" y="501" type="line"/>
      <point x="488" y="519"/>
      <point x="443" y="530"/>
      <point x="402" y="534" type="curve"/>
      <point x="417" y="632" type="line"/>
      <point x="320" y="632" type="line"/>
      <point x="306" y="536" type="line"/>
      <point x="169" y="531"/>
      <point x="60" y="410"/>
    </contour>
  </outline>
</glyph>
<glyph name="section" format="1">
  <advance width="535"/>
  <unicode hex="00A7"/>
  <note>
    GF Latin Plus glyph
  </note>
  <outline>
    <contour>
      <point x="259" y="370" type="curve" smooth="yes"/>
      <point x="264" y="403" type="line" smooth="yes"/>
      <point x="267" y="427"/>
      <point x="282" y="438"/>
      <point x="314" y="438" type="curve" smooth="yes"/>
      <point x="362" y="438" type="line" smooth="yes"/>
      <point x="390" y="438"/>
      <point x="403" y="431"/>
      <point x="403" y="412" type="curve" smooth="yes"/>
      <point x="403" y="411"/>
      <point x="402" y="408"/>
      <point x="402" y="405" type="curve" smooth="yes"/>
      <point x="397" y="372" type="line" smooth="yes"/>
      <point x="392" y="340"/>
      <point x="378" y="336"/>
      <point x="343" y="336" type="curve" smooth="yes"/>
      <point x="298" y="336" type="line" smooth="yes"/>
      <point x="272" y="336"/>
      <point x="258" y="345"/>
      <point x="258" y="364" type="curve" smooth="yes"/>
      <point x="258" y="365"/>
      <point x="258" y="368"/>
    </contour>
    <contour>
      <point x="88" y="328" type="line" smooth="yes"/>
      <point x="87" y="318"/>
      <point x="86" y="309"/>
      <point x="86" y="301" type="curve" smooth="yes"/>
      <point x="86" y="229"/>
      <point x="144" y="207"/>
      <point x="234" y="207" type="curve" smooth="yes"/>
      <point x="323" y="207" type="line" smooth="yes"/>
      <point x="349" y="207"/>
      <point x="357" y="202"/>
      <point x="357" y="191" type="curve" smooth="yes"/>
      <point x="357" y="188"/>
      <point x="356" y="177"/>
      <point x="353" y="160" type="curve" smooth="yes"/>
      <point x="349" y="141"/>
      <point x="340" y="132"/>
      <point x="298" y="132" type="curve" smooth="yes"/>
      <point x="94" y="132" type="line"/>
      <point x="75" y="10" type="line"/>
      <point x="141" y="-3"/>
      <point x="238" y="-6"/>
      <point x="313" y="-6" type="curve" smooth="yes"/>
      <point x="423" y="-6"/>
      <point x="501" y="30"/>
      <point x="520" y="154" type="curve" smooth="yes"/>
      <point x="528" y="198" type="line" smooth="yes"/>
      <point x="530" y="210"/>
      <point x="531" y="221"/>
      <point x="531" y="231" type="curve" smooth="yes"/>
      <point x="531" y="270"/>
      <point x="515" y="297"/>
      <point x="480" y="309" type="curve"/>
      <point x="533" y="328"/>
      <point x="560" y="368"/>
      <point x="567" y="410" type="curve" smooth="yes"/>
      <point x="572" y="446" type="line" smooth="yes"/>
      <point x="574" y="456"/>
      <point x="575" y="465"/>
      <point x="575" y="474" type="curve" smooth="yes"/>
      <point x="575" y="542"/>
      <point x="524" y="568"/>
      <point x="425" y="568" type="curve" smooth="yes"/>
      <point x="337" y="568" type="line" smooth="yes"/>
      <point x="311" y="568"/>
      <point x="303" y="575"/>
      <point x="303" y="588" type="curve" smooth="yes"/>
      <point x="303" y="592"/>
      <point x="304" y="599"/>
      <point x="306" y="613" type="curve" smooth="yes"/>
      <point x="310" y="636"/>
      <point x="324" y="646"/>
      <point x="359" y="646" type="curve" smooth="yes"/>
      <point x="566" y="646" type="line"/>
      <point x="584" y="766" type="line"/>
      <point x="530" y="779"/>
      <point x="419" y="784"/>
      <point x="354" y="784" type="curve" smooth="yes"/>
      <point x="221" y="784"/>
      <point x="160" y="723"/>
      <point x="147" y="641" type="curve" smooth="yes"/>
      <point x="138" y="591" type="line" smooth="yes"/>
      <point x="136" y="577"/>
      <point x="136" y="564"/>
      <point x="136" y="551" type="curve" smooth="yes"/>
      <point x="136" y="514"/>
      <point x="147" y="484"/>
      <point x="183" y="465" type="curve"/>
      <point x="128" y="446"/>
      <point x="102" y="420"/>
      <point x="93" y="362" type="curve" smooth="yes"/>
    </contour>
  </outline>
</glyph>
<glyph name="copyright" format="1">
  <advance width="801"/>
  <unicode hex="00A9"/>
  <note>
    GF Latin Plus glyph
  </note>
  <outline>
    <contour>
      <point x="264" y="294" type="curve" smooth="yes"/>
      <point x="264" y="177"/>
      <point x="326" y="147"/>
      <point x="396" y="147" type="curve" smooth="yes"/>
      <point x="460" y="147"/>
      <point x="520" y="148"/>
      <point x="577" y="174" type="curve"/>
      <point x="589" y="256" type="line"/>
      <point x="550" y="248"/>
      <point x="501" y="240"/>
      <point x="444" y="240" type="curve" smooth="yes"/>
      <point x="392" y="240"/>
      <point x="368" y="261"/>
      <point x="368" y="317" type="curve" smooth="yes"/>
      <point x="368" y="404"/>
      <point x="404" y="490"/>
      <point x="487" y="490" type="curve" smooth="yes"/>
      <point x="516" y="490"/>
      <point x="564" y="486"/>
      <point x="619" y="478" type="curve"/>
      <point x="632" y="560" type="line"/>
      <point x="582" y="579"/>
      <point x="503" y="583"/>
      <point x="466" y="583" type="curve" smooth="yes"/>
      <point x="349" y="583"/>
      <point x="264" y="435"/>
    </contour>
    <contour>
      <point x="410" y="639" type="curve" smooth="yes"/>
      <point x="617" y="639" type="line" smooth="yes"/>
      <point x="708" y="639"/>
      <point x="743" y="572"/>
      <point x="743" y="488" type="curve" smooth="yes"/>
      <point x="743" y="252"/>
      <point x="634" y="93"/>
      <point x="521" y="93" type="curve" smooth="yes"/>
      <point x="323" y="93" type="line" smooth="yes"/>
      <point x="227" y="93"/>
      <point x="179" y="167"/>
      <point x="179" y="276" type="curve" smooth="yes"/>
      <point x="179" y="470"/>
      <point x="267" y="639"/>
    </contour>
    <contour>
      <point x="85" y="261" type="curve" smooth="yes"/>
      <point x="85" y="106"/>
      <point x="178" y="0"/>
      <point x="335" y="0" type="curve" smooth="yes"/>
      <point x="516" y="0" type="line" smooth="yes"/>
      <point x="701" y="0"/>
      <point x="836" y="244"/>
      <point x="836" y="503" type="curve" smooth="yes"/>
      <point x="836" y="640"/>
      <point x="759" y="732"/>
      <point x="606" y="732" type="curve" smooth="yes"/>
      <point x="425" y="732" type="line" smooth="yes"/>
      <point x="166" y="732"/>
      <point x="85" y="468"/>
    </contour>
  </outline>
</glyph>
<glyph name="registered" format="1">
  <advance width="801"/>
  <unicode hex="00AE"/>
  <note>
    GF Latin Plus glyph
  </note>
  <outline>
    <contour>
      <point x="407" y="394" type="line"/>
      <point x="421" y="487" type="line"/>
      <point x="503" y="487" type="line" smooth="yes"/>
      <point x="520" y="487"/>
      <point x="532" y="480"/>
      <point x="532" y="458" type="curve" smooth="yes"/>
      <point x="532" y="428"/>
      <point x="512" y="394"/>
      <point x="488" y="394" type="curve" smooth="yes"/>
    </contour>
    <contour>
      <point x="267" y="153" type="line"/>
      <point x="368" y="153" type="line"/>
      <point x="395" y="319" type="line"/>
      <point x="447" y="319" type="line"/>
      <point x="502" y="153" type="line"/>
      <point x="603" y="153" type="line"/>
      <point x="541" y="315" type="line"/>
      <point x="600" y="333"/>
      <point x="635" y="407"/>
      <point x="635" y="479" type="curve" smooth="yes"/>
      <point x="635" y="560"/>
      <point x="579" y="580"/>
      <point x="521" y="580" type="curve" smooth="yes"/>
      <point x="335" y="580" type="line"/>
    </contour>
    <contour>
      <point x="410" y="639" type="curve" smooth="yes"/>
      <point x="617" y="639" type="line" smooth="yes"/>
      <point x="708" y="639"/>
      <point x="743" y="572"/>
      <point x="743" y="488" type="curve" smooth="yes"/>
      <point x="743" y="252"/>
      <point x="634" y="93"/>
      <point x="521" y="93" type="curve" smooth="yes"/>
      <point x="323" y="93" type="line" smooth="yes"/>
      <point x="227" y="93"/>
      <point x="179" y="167"/>
      <point x="179" y="276" type="curve" smooth="yes"/>
      <point x="179" y="470"/>
      <point x="267" y="639"/>
    </contour>
    <contour>
      <point x="85" y="261" type="curve" smooth="yes"/>
      <point x="85" y="106"/>
      <point x="178" y="0"/>
      <point x="335" y="0" type="curve" smooth="yes"/>
      <point x="516" y="0" type="line" smooth="yes"/>
      <point x="701" y="0"/>
      <point x="836" y="244"/>
      <point x="836" y="503" type="curve" smooth="yes"/>
      <point x="836" y="640"/>
      <point x="759" y="732"/>
      <point x="606" y="732" type="curve" smooth="yes"/>
      <point x="425" y="732" type="line" smooth="yes"/>
      <point x="166" y="732"/>
      <point x="85" y="468"/>
    </contour>
  </outline>
</glyph>
<glyph name="threesuperior" format="1">
  <advance width="415"/>
  <unicode hex="00B3"/>
  <outline>
    <contour>
      <point x="157" y="718" type="line"/>
      <point x="293" y="718" type="line" smooth="yes"/>
      <point x="335" y="718"/>
      <point x="349" y="712"/>
      <point x="349" y="698" type="curve" smooth="yes"/>
      <point x="349" y="696"/>
      <point x="349" y="694"/>
      <point x="349" y="693" type="curve" smooth="yes"/>
      <point x="347" y="682" type="line" smooth="yes"/>
      <point x="344" y="667"/>
      <point x="328" y="661"/>
      <point x="294" y="659" type="curve" smooth="yes"/>
      <point x="182" y="652" type="line"/>
      <point x="165" y="547" type="line"/>
      <point x="282" y="542" type="line" smooth="yes"/>
      <point x="310" y="541"/>
      <point x="325" y="534"/>
      <point x="325" y="516" type="curve" smooth="yes"/>
      <point x="325" y="515"/>
      <point x="325" y="513"/>
      <point x="325" y="510" type="curve" smooth="yes"/>
      <point x="323" y="500" type="line" smooth="yes"/>
      <point x="321" y="484"/>
      <point x="309" y="479"/>
      <point x="258" y="479" type="curve" smooth="yes"/>
      <point x="114" y="479" type="line"/>
      <point x="96" y="370" type="line"/>
      <point x="153" y="358"/>
      <point x="220" y="351"/>
      <point x="292" y="351" type="curve" smooth="yes"/>
      <point x="382" y="351"/>
      <point x="443" y="392"/>
      <point x="456" y="471" type="curve" smooth="yes"/>
      <point x="459" y="492" type="line" smooth="yes"/>
      <point x="461" y="502"/>
      <point x="462" y="512"/>
      <point x="462" y="521" type="curve" smooth="yes"/>
      <point x="462" y="559"/>
      <point x="448" y="588"/>
      <point x="415" y="599" type="curve"/>
      <point x="461" y="614"/>
      <point x="478" y="646"/>
      <point x="484" y="689" type="curve" smooth="yes"/>
      <point x="490" y="721" type="line" smooth="yes"/>
      <point x="491" y="731"/>
      <point x="492" y="740"/>
      <point x="492" y="748" type="curve" smooth="yes"/>
      <point x="491" y="815"/>
      <point x="445" y="846"/>
      <point x="370" y="846" type="curve" smooth="yes"/>
      <point x="306" y="846"/>
      <point x="242" y="838"/>
      <point x="174" y="826" type="curve"/>
    </contour>
  </outline>
</glyph>
<glyph name="onesuperior" format="1">
  <advance width="415"/>
  <unicode hex="00B9"/>
  <outline>
    <contour>
      <point x="126" y="476" type="line"/>
      <point x="106" y="355" type="line"/>
      <point x="437" y="355" type="line"/>
      <point x="457" y="476" type="line"/>
    </contour>
    <contour>
      <point x="172" y="721" type="line"/>
      <point x="262" y="726" type="line"/>
      <point x="203" y="355" type="line"/>
      <point x="341" y="355" type="line"/>
      <point x="419" y="846" type="line"/>
      <point x="296" y="846" type="line"/>
      <point x="185" y="807" type="line"/>
    </contour>
  </outline>
</glyph>
<glyph name="Thorn" format="1">
  <advance width="576"/>
  <unicode hex="00DE"/>
  <note>
    GF Latin Plus glyph
  </note>
  <outline>
    <contour>
      <point x="348" y="742" type="line"/>
      <point x="176" y="742" type="line"/>
      <point x="58" y="0" type="line"/>
      <point x="231" y="0" type="line"/>
    </contour>
    <contour>
      <point x="257" y="466" type="line"/>
      <point x="379" y="466" type="line" smooth="yes"/>
      <point x="425" y="466"/>
      <point x="449" y="452"/>
      <point x="449" y="410" type="curve" smooth="yes"/>
      <point x="449" y="402"/>
      <point x="447" y="383"/>
      <point x="444" y="366" type="curve" smooth="yes"/>
      <point x="437" y="317"/>
      <point x="404" y="286"/>
      <point x="355" y="286" type="curve" smooth="yes"/>
      <point x="238" y="286" type="line"/>
      <point x="218" y="156" type="line"/>
      <point x="261" y="145"/>
      <point x="320" y="131"/>
      <point x="379" y="131" type="curve" smooth="yes"/>
      <point x="481" y="131"/>
      <point x="590" y="184"/>
      <point x="616" y="347" type="curve" smooth="yes"/>
      <point x="620" y="371"/>
      <point x="626" y="406"/>
      <point x="626" y="426" type="curve" smooth="yes"/>
      <point x="626" y="578"/>
      <point x="532" y="621"/>
      <point x="413" y="621" type="curve" smooth="yes"/>
      <point x="282" y="621" type="line"/>
    </contour>
  </outline>
</glyph>
<glyph name="ae" format="1">
  <advance width="868"/>
  <unicode hex="00E6"/>
  <note>
    GF Latin Plus glyph
  </note>
  <outline>
    <contour>
      <point x="571" y="295" type="curve"/>
      <point x="585" y="369"/>
      <point x="606" y="413"/>
      <point x="672" y="413" type="curve" smooth="yes"/>
      <point x="710" y="413"/>
      <point x="731" y="395"/>
      <point x="731" y="356" type="curve" smooth="yes"/>
      <point x="731" y="320"/>
      <point x="709" y="290"/>
      <point x="633" y="290" type="curve" smooth="yes"/>
      <point x="605" y="290"/>
      <point x="580" y="294"/>
    </contour>
    <contour>
      <point x="295" y="134" type="curve" smooth="yes"/>
      <point x="258" y="134"/>
      <point x="242" y="165"/>
      <point x="242" y="211" type="curve" smooth="yes"/>
      <point x="242" y="327"/>
      <point x="280" y="406"/>
      <point x="374" y="406" type="curve" smooth="yes"/>
      <point x="391" y="406"/>
      <point x="416" y="400"/>
      <point x="426" y="395" type="curve"/>
      <point x="402" y="343"/>
      <point x="388" y="275"/>
      <point x="388" y="210" type="curve" smooth="yes"/>
      <point x="388" y="200"/>
      <point x="389" y="189"/>
      <point x="389" y="180" type="curve"/>
      <point x="373" y="159"/>
      <point x="332" y="134"/>
    </contour>
    <contour>
      <point x="215" y="-6" type="curve" smooth="yes"/>
      <point x="288" y="-6"/>
      <point x="350" y="18"/>
      <point x="421" y="67" type="curve"/>
      <point x="444" y="21"/>
      <point x="516" y="-6"/>
      <point x="588" y="-6" type="curve" smooth="yes"/>
      <point x="671" y="-6"/>
      <point x="770" y="5"/>
      <point x="828" y="19" type="curve"/>
      <point x="844" y="120" type="line"/>
      <point x="661" y="120" type="line" smooth="yes"/>
      <point x="580" y="120"/>
      <point x="557" y="143"/>
      <point x="557" y="179" type="curve" smooth="yes"/>
      <point x="557" y="187"/>
      <point x="558" y="196"/>
      <point x="559" y="205" type="curve"/>
      <point x="574" y="201"/>
      <point x="630" y="196"/>
      <point x="670" y="196" type="curve" smooth="yes"/>
      <point x="826" y="196"/>
      <point x="892" y="261"/>
      <point x="892" y="375" type="curve" smooth="yes"/>
      <point x="892" y="493"/>
      <point x="818" y="544"/>
      <point x="670" y="544" type="curve" smooth="yes"/>
      <point x="649" y="544"/>
      <point x="556" y="534"/>
      <point x="524" y="510" type="curve"/>
      <point x="473" y="537"/>
      <point x="407" y="544"/>
      <point x="357" y="544" type="curve" smooth="yes"/>
      <point x="206" y="544"/>
      <point x="70" y="461"/>
      <point x="70" y="178" type="curve" smooth="yes"/>
      <point x="70" y="43"/>
      <point x="136" y="-6"/>
    </contour>
    <contour>
      <point x="533" y="650" type="move" name="top"/>
    </contour>
  </outline>
</glyph>
<glyph name="kgreenlandic" format="1">
  <advance width="576"/>
  <unicode hex="0138"/>
  <note>
    GF Latin Plus glyph
  </note>
  <outline>
    <contour>
      <point x="48" y="0" type="line"/>
      <point x="220" y="0" type="line"/>
      <point x="256" y="226" type="line"/>
      <point x="269" y="226"/>
      <point x="291" y="229"/>
      <point x="306" y="233" type="curve"/>
      <point x="409" y="0" type="line"/>
      <point x="586" y="0" type="line"/>
      <point x="450" y="287" type="line"/>
      <point x="508" y="321"/>
      <point x="575" y="387"/>
      <point x="617" y="538" type="curve"/>
      <point x="444" y="538" type="line"/>
      <point x="418" y="432"/>
      <point x="361" y="373"/>
      <point x="277" y="355" type="curve"/>
      <point x="305" y="538" type="line"/>
      <point x="132" y="538" type="line"/>
    </contour>
  </outline>
</glyph>
<glyph name="oe" format="1">
  <advance width="882"/>
  <unicode hex="0153"/>
  <note>
    GF Latin Plus glyph
  </note>
  <outline>
    <contour>
      <point x="846" y="19" type="curve"/>
      <point x="862" y="120" type="line"/>
      <point x="686" y="120" type="line" smooth="yes"/>
      <point x="611" y="120"/>
      <point x="574" y="138"/>
      <point x="574" y="177" type="curve" smooth="yes"/>
      <point x="574" y="186"/>
      <point x="576" y="197"/>
      <point x="577" y="205" type="curve"/>
      <point x="600" y="200"/>
      <point x="637" y="196"/>
      <point x="681" y="196" type="curve" smooth="yes"/>
      <point x="806" y="196"/>
      <point x="908" y="226"/>
      <point x="908" y="380" type="curve" smooth="yes"/>
      <point x="908" y="514"/>
      <point x="806" y="544"/>
      <point x="707" y="544" type="curve" smooth="yes"/>
      <point x="632" y="544"/>
      <point x="577" y="518"/>
      <point x="530" y="465" type="curve"/>
      <point x="491" y="518"/>
      <point x="436" y="544"/>
      <point x="365" y="544" type="curve" smooth="yes"/>
      <point x="194" y="544"/>
      <point x="113" y="502"/>
      <point x="79" y="286" type="curve" smooth="yes"/>
      <point x="74" y="254"/>
      <point x="71" y="223"/>
      <point x="71" y="183" type="curve" smooth="yes"/>
      <point x="71" y="60"/>
      <point x="139" y="-6"/>
      <point x="279" y="-6" type="curve" smooth="yes"/>
      <point x="366" y="-6"/>
      <point x="423" y="20"/>
      <point x="475" y="59" type="curve"/>
      <point x="508" y="17"/>
      <point x="554" y="-6"/>
      <point x="646" y="-6" type="curve" smooth="yes"/>
      <point x="712" y="-6"/>
      <point x="791" y="6"/>
    </contour>
    <contour>
      <point x="588" y="295" type="curve"/>
      <point x="601" y="372"/>
      <point x="628" y="413"/>
      <point x="687" y="413" type="curve" smooth="yes"/>
      <point x="728" y="413"/>
      <point x="748" y="394"/>
      <point x="748" y="361" type="curve" smooth="yes"/>
      <point x="748" y="314"/>
      <point x="723" y="290"/>
      <point x="640" y="290" type="curve" smooth="yes"/>
      <point x="622" y="290"/>
      <point x="604" y="293"/>
    </contour>
    <contour>
      <point x="248" y="262" type="curve" smooth="yes"/>
      <point x="266" y="382"/>
      <point x="285" y="409"/>
      <point x="351" y="409" type="curve" smooth="yes"/>
      <point x="398" y="409"/>
      <point x="417" y="396"/>
      <point x="417" y="353" type="curve" smooth="yes"/>
      <point x="417" y="328"/>
      <point x="414" y="300"/>
      <point x="408" y="262" type="curve" smooth="yes"/>
      <point x="391" y="156"/>
      <point x="370" y="132"/>
      <point x="306" y="132" type="curve" smooth="yes"/>
      <point x="262" y="132"/>
      <point x="242" y="146"/>
      <point x="242" y="191" type="curve" smooth="yes"/>
      <point x="242" y="212"/>
      <point x="244" y="234"/>
    </contour>
  </outline>
</glyph>
<glyph name="Schwa" format="1">
  <advance width="637"/>
  <unicode hex="018F"/>
  <note>
    GF Latin Plus glyph
  </note>
  <outline>
    <contour>
      <point x="312" y="-6" type="curve" smooth="yes"/>
      <point x="476" y="-6"/>
      <point x="608" y="61"/>
      <point x="657" y="370" type="curve" smooth="yes"/>
      <point x="664" y="420"/>
      <point x="669" y="464"/>
      <point x="669" y="502" type="curve" smooth="yes"/>
      <point x="669" y="698"/>
      <point x="559" y="748"/>
      <point x="402" y="748" type="curve" smooth="yes"/>
      <point x="308" y="748"/>
      <point x="235" y="734"/>
      <point x="189" y="718" type="curve"/>
      <point x="167" y="584" type="line"/>
      <point x="200" y="588"/>
      <point x="250" y="594"/>
      <point x="335" y="594" type="curve" smooth="yes"/>
      <point x="440" y="594"/>
      <point x="497" y="568"/>
      <point x="497" y="478" type="curve" smooth="yes"/>
      <point x="497" y="466"/>
      <point x="495" y="451"/>
      <point x="493" y="434" type="curve"/>
      <point x="108" y="434" type="line"/>
      <point x="91" y="326" type="line" smooth="yes"/>
      <point x="85" y="289"/>
      <point x="82" y="256"/>
      <point x="82" y="225" type="curve" smooth="yes"/>
      <point x="82" y="59"/>
      <point x="172" y="-6"/>
    </contour>
    <contour>
      <point x="334" y="149" type="curve" smooth="yes"/>
      <point x="274" y="149"/>
      <point x="256" y="183"/>
      <point x="256" y="240" type="curve" smooth="yes"/>
      <point x="256" y="257"/>
      <point x="258" y="275"/>
      <point x="262" y="296" type="curve"/>
      <point x="468" y="296" type="line"/>
      <point x="443" y="179"/>
      <point x="394" y="149"/>
    </contour>
  </outline>
</glyph>
<glyph name="florin" format="1">
  <advance width="609"/>
  <unicode hex="0192"/>
  <note>
    GF Latin Plus glyph
  </note>
  <outline>
    <contour>
      <point x="-16" y="-181" type="line"/>
      <point x="2" y="-192"/>
      <point x="43" y="-204"/>
      <point x="100" y="-204" type="curve" smooth="yes"/>
      <point x="228" y="-204"/>
      <point x="302" y="-102"/>
      <point x="365" y="88" type="curve" smooth="yes"/>
      <point x="457" y="365" type="line"/>
      <point x="554" y="365" type="line"/>
      <point x="591" y="485" type="line"/>
      <point x="490" y="485" type="line"/>
      <point x="521" y="573" type="line" smooth="yes"/>
      <point x="542" y="633"/>
      <point x="567" y="671"/>
      <point x="629" y="671" type="curve" smooth="yes"/>
      <point x="672" y="671" type="line"/>
      <point x="705" y="777" type="line"/>
      <point x="690" y="785"/>
      <point x="658" y="800"/>
      <point x="588" y="800" type="curve" smooth="yes"/>
      <point x="465" y="800"/>
      <point x="398" y="716"/>
      <point x="366" y="622" type="curve" smooth="yes"/>
      <point x="317" y="485" type="line"/>
      <point x="240" y="485" type="line"/>
      <point x="202" y="365" type="line"/>
      <point x="284" y="365" type="line"/>
      <point x="178" y="43" type="line" smooth="yes"/>
      <point x="150" y="-43"/>
      <point x="119" y="-75"/>
      <point x="62" y="-75" type="curve" smooth="yes"/>
      <point x="18" y="-75" type="line"/>
    </contour>
  </outline>
</glyph>
<glyph name="ohorn" format="1">
  <advance width="579"/>
  <unicode hex="01A1"/>
  <note>
    GF Latin Plus glyph
  </note>
  <outline>
    <component base="o"/>
    <component base="horncomb" xOffset="589"/>
    <contour>
      <point x="351" y="650" type="move" name="top"/>
    </contour>
    <contour>
      <point x="266" y="-150" type="move" name="bottom"/>
    </contour>
  </outline>
</glyph>
<glyph name="uhorn" format="1">
  <advance width="598"/>
  <unicode hex="01B0"/>
  <note>
    GF Latin Plus glyph
  </note>
  <outline>
    <contour>
      <point x="463" y="445" type="line"/>
      <point x="541" y="445" type="line" smooth="yes"/>
      <point x="636" y="445"/>
      <point x="707" y="516"/>
      <point x="728" y="647" type="curve"/>
      <point x="610" y="647" type="line"/>
      <point x="597" y="565"/>
      <point x="568" y="538"/>
      <point x="523" y="538" type="curve" smooth="yes"/>
      <point x="477" y="538" type="line"/>
    </contour>
    <component base="u"/>
    <contour>
      <point x="368" y="650" type="move" name="top"/>
    </contour>
    <contour>
      <point x="287" y="-150" type="move" name="bottom"/>
    </contour>
  </outline>
</glyph>
<glyph name="ring" format="1">
  <advance width="321"/>
  <unicode hex="02DA"/>
  <note>
    GF Latin Plus glyph
  </note>
  <outline>
    <contour>
      <point x="280" y="751" type="curve" smooth="yes"/>
      <point x="304" y="751"/>
      <point x="322" y="741"/>
      <point x="322" y="710" type="curve" smooth="yes"/>
      <point x="322" y="676"/>
      <point x="305" y="645"/>
      <point x="265" y="645" type="curve" smooth="yes"/>
      <point x="239" y="645"/>
      <point x="221" y="656"/>
      <point x="221" y="686" type="curve" smooth="yes"/>
      <point x="221" y="719"/>
      <point x="238" y="751"/>
    </contour>
    <contour>
      <point x="141" y="683" type="curve" smooth="yes"/>
      <point x="141" y="609"/>
      <point x="183" y="582"/>
      <point x="257" y="582" type="curve" smooth="yes"/>
      <point x="352" y="582"/>
      <point x="402" y="640"/>
      <point x="402" y="713" type="curve" smooth="yes"/>
      <point x="402" y="786"/>
      <point x="361" y="814"/>
      <point x="287" y="814" type="curve" smooth="yes"/>
      <point x="193" y="814"/>
      <point x="141" y="755"/>
    </contour>
  </outline>
</glyph>
<glyph name="ogonek" format="1">
  <advance width="205"/>
  <unicode hex="02DB"/>
  <note>
    GF Latin Plus glyph
  </note>
  <outline>
    <contour>
      <point x="95" y="0" type="line"/>
      <point x="47" y="-25"/>
      <point x="14" y="-66"/>
      <point x="14" y="-119" type="curve" smooth="yes"/>
      <point x="14" y="-157"/>
      <point x="38" y="-194"/>
      <point x="108" y="-194" type="curve" smooth="yes"/>
      <point x="122" y="-194"/>
      <point x="136" y="-192"/>
      <point x="143" y="-190" type="curve"/>
      <point x="155" y="-109" type="line"/>
      <point x="146" y="-109" type="line" smooth="yes"/>
      <point x="121" y="-109"/>
      <point x="103" y="-95"/>
      <point x="103" y="-71" type="curve" smooth="yes"/>
      <point x="103" y="-54"/>
      <point x="116" y="-24"/>
      <point x="157" y="0" type="curve"/>
    </contour>
  </outline>
</glyph>
<glyph name="tilde" format="1">
  <advance width="413"/>
  <unicode hex="02DC"/>
  <note>
    GF Latin Plus glyph
  </note>
  <outline>
    <contour>
      <point x="124" y="630" type="curve"/>
      <point x="210" y="630" type="line"/>
      <point x="215" y="648"/>
      <point x="228" y="666"/>
      <point x="252" y="666" type="curve" smooth="yes"/>
      <point x="283" y="666"/>
      <point x="335" y="631"/>
      <point x="392" y="631" type="curve" smooth="yes"/>
      <point x="456" y="631"/>
      <point x="494" y="670"/>
      <point x="519" y="767" type="curve"/>
      <point x="433" y="767" type="line"/>
      <point x="429" y="741"/>
      <point x="415" y="726"/>
      <point x="392" y="726" type="curve" smooth="yes"/>
      <point x="354" y="726"/>
      <point x="313" y="760"/>
      <point x="253" y="760" type="curve" smooth="yes"/>
      <point x="197" y="760"/>
      <point x="148" y="729"/>
    </contour>
  </outline>
</glyph>
<glyph name="pi" format="1">
  <advance width="644"/>
  <unicode hex="03C0"/>
  <outline>
    <contour>
      <point x="74" y="383" type="line"/>
      <point x="146" y="383" type="line"/>
      <point x="85" y="0" type="line"/>
      <point x="258" y="0" type="line"/>
      <point x="319" y="383" type="line"/>
      <point x="403" y="383" type="line"/>
      <point x="368" y="160" type="line" smooth="yes"/>
      <point x="366" y="144"/>
      <point x="364" y="128"/>
      <point x="364" y="114" type="curve" smooth="yes"/>
      <point x="364" y="35"/>
      <point x="407" y="-6"/>
      <point x="488" y="-6" type="curve" smooth="yes"/>
      <point x="544" y="-6"/>
      <point x="579" y="9"/>
      <point x="603" y="24" type="curve"/>
      <point x="619" y="125" type="line"/>
      <point x="578" y="125" type="line" smooth="yes"/>
      <point x="553" y="125"/>
      <point x="541" y="130"/>
      <point x="541" y="153" type="curve" smooth="yes"/>
      <point x="541" y="157"/>
      <point x="541" y="163"/>
      <point x="542" y="168" type="curve" smooth="yes"/>
      <point x="576" y="383" type="line"/>
      <point x="652" y="383" type="line"/>
      <point x="677" y="538" type="line"/>
      <point x="98" y="538" type="line"/>
    </contour>
  </outline>
</glyph>
<glyph name="Germandbls" format="1">
  <advance width="741"/>
  <unicode hex="1E9E"/>
  <note>
    GF Latin Plus glyph
  </note>
  <outline>
    <contour>
      <point x="540" y="377" type="line"/>
      <point x="732" y="595" type="line"/>
      <point x="754" y="730" type="line"/>
      <point x="540" y="591" type="line"/>
      <point x="391" y="419" type="line"/>
    </contour>
    <contour>
      <point x="370" y="281" type="line"/>
      <point x="501" y="281" type="line" smooth="yes"/>
      <point x="547" y="281"/>
      <point x="564" y="265"/>
      <point x="564" y="237" type="curve" smooth="yes"/>
      <point x="564" y="231"/>
      <point x="563" y="226"/>
      <point x="561" y="210" type="curve" smooth="yes"/>
      <point x="553" y="162"/>
      <point x="518" y="149"/>
      <point x="459" y="149" type="curve" smooth="yes"/>
      <point x="416" y="149"/>
      <point x="361" y="159"/>
      <point x="323" y="168" type="curve"/>
      <point x="298" y="14" type="line"/>
      <point x="343" y="2"/>
      <point x="410" y="-6"/>
      <point x="460" y="-6" type="curve" smooth="yes"/>
      <point x="605" y="-6"/>
      <point x="702" y="28"/>
      <point x="733" y="190" type="curve" smooth="yes"/>
      <point x="741" y="236"/>
      <point x="744" y="260"/>
      <point x="744" y="274" type="curve" smooth="yes"/>
      <point x="744" y="378"/>
      <point x="663" y="419"/>
      <point x="554" y="419" type="curve" smooth="yes"/>
      <point x="391" y="419" type="line"/>
    </contour>
    <contour>
      <point x="59" y="0" type="line"/>
      <point x="232" y="0" type="line"/>
      <point x="316" y="532" type="line" smooth="yes"/>
      <point x="321" y="564"/>
      <point x="344" y="587"/>
      <point x="387" y="587" type="curve" smooth="yes"/>
      <point x="647" y="587" type="line"/>
      <point x="754" y="730" type="line"/>
      <point x="671" y="735"/>
      <point x="539" y="742"/>
      <point x="405" y="742" type="curve" smooth="yes"/>
      <point x="281" y="742"/>
      <point x="167" y="685"/>
      <point x="143" y="529" type="curve" smooth="yes"/>
    </contour>
  </outline>
</glyph>
<glyph name="quoteleft" format="1">
  <advance width="238"/>
  <unicode hex="2018"/>
  <note>
    GF Latin Plus glyph
  </note>
  <outline>
    <contour>
      <point x="119" y="508" type="line" smooth="yes"/>
      <point x="119" y="505"/>
      <point x="118" y="503"/>
      <point x="118" y="501" type="curve" smooth="yes"/>
      <point x="118" y="489"/>
      <point x="124" y="482"/>
      <point x="138" y="482" type="curve" smooth="yes"/>
      <point x="245" y="482" type="line" smooth="yes"/>
      <point x="260" y="482"/>
      <point x="270" y="490"/>
      <point x="272" y="508" type="curve" smooth="yes"/>
      <point x="290" y="615" type="line" smooth="yes"/>
      <point x="290" y="617"/>
      <point x="290" y="619"/>
      <point x="290" y="620" type="curve" smooth="yes"/>
      <point x="290" y="633"/>
      <point x="281" y="639"/>
      <point x="270" y="639" type="curve" smooth="yes"/>
      <point x="259" y="639" type="line"/>
      <point x="262" y="660" type="line" smooth="yes"/>
      <point x="264" y="671"/>
      <point x="269" y="690"/>
      <point x="296" y="690" type="curve"/>
      <point x="307" y="754" type="line"/>
      <point x="298" y="757"/>
      <point x="290" y="758"/>
      <point x="268" y="758" type="curve" smooth="yes"/>
      <point x="224" y="758"/>
      <point x="157" y="744"/>
      <point x="144" y="664" type="curve" smooth="yes"/>
    </contour>
  </outline>
</glyph>
<glyph name="quoteright" format="1">
  <advance width="238"/>
  <unicode hex="2019"/>
  <note>
    GF Latin Plus glyph
  </note>
  <outline>
    <contour>
      <point x="137" y="624" type="line" smooth="yes"/>
      <point x="137" y="622"/>
      <point x="137" y="620"/>
      <point x="137" y="619" type="curve" smooth="yes"/>
      <point x="137" y="606"/>
      <point x="145" y="600"/>
      <point x="157" y="600" type="curve" smooth="yes"/>
      <point x="167" y="600" type="line"/>
      <point x="164" y="579" type="line" smooth="yes"/>
      <point x="162" y="568"/>
      <point x="158" y="549"/>
      <point x="130" y="549" type="curve"/>
      <point x="119" y="486" type="line"/>
      <point x="128" y="483"/>
      <point x="137" y="482"/>
      <point x="158" y="482" type="curve" smooth="yes"/>
      <point x="203" y="482"/>
      <point x="270" y="496"/>
      <point x="282" y="575" type="curve" smooth="yes"/>
      <point x="307" y="732" type="line" smooth="yes"/>
      <point x="307" y="735"/>
      <point x="308" y="737"/>
      <point x="308" y="739" type="curve" smooth="yes"/>
      <point x="308" y="750"/>
      <point x="302" y="758"/>
      <point x="289" y="758" type="curve" smooth="yes"/>
      <point x="181" y="758" type="line" smooth="yes"/>
      <point x="166" y="758"/>
      <point x="157" y="749"/>
      <point x="154" y="732" type="curve" smooth="yes"/>
    </contour>
  </outline>
</glyph>
<glyph name="ellipsis" format="1">
  <advance width="816"/>
  <unicode hex="2026"/>
  <note>
    GF Latin Plus glyph
  </note>
  <outline>
    <contour>
      <point x="67" y="22" type="line" smooth="yes"/>
      <point x="66" y="21"/>
      <point x="66" y="19"/>
      <point x="66" y="18" type="curve" smooth="yes"/>
      <point x="66" y="7"/>
      <point x="73" y="0"/>
      <point x="86" y="0" type="curve" smooth="yes"/>
      <point x="186" y="0" type="line" smooth="yes"/>
      <point x="199" y="0"/>
      <point x="210" y="5"/>
      <point x="213" y="22" type="curve" smooth="yes"/>
      <point x="230" y="132" type="line" smooth="yes"/>
      <point x="231" y="134"/>
      <point x="231" y="136"/>
      <point x="231" y="138" type="curve" smooth="yes"/>
      <point x="231" y="149"/>
      <point x="224" y="155"/>
      <point x="210" y="155" type="curve" smooth="yes"/>
      <point x="110" y="155" type="line" smooth="yes"/>
      <point x="95" y="155"/>
      <point x="86" y="146"/>
      <point x="84" y="132" type="curve" smooth="yes"/>
    </contour>
    <contour>
      <point x="339" y="22" type="line" smooth="yes"/>
      <point x="338" y="21"/>
      <point x="338" y="19"/>
      <point x="338" y="18" type="curve" smooth="yes"/>
      <point x="338" y="7"/>
      <point x="345" y="0"/>
      <point x="358" y="0" type="curve" smooth="yes"/>
      <point x="458" y="0" type="line" smooth="yes"/>
      <point x="471" y="0"/>
      <point x="482" y="5"/>
      <point x="485" y="22" type="curve" smooth="yes"/>
      <point x="502" y="132" type="line" smooth="yes"/>
      <point x="503" y="134"/>
      <point x="503" y="136"/>
      <point x="503" y="138" type="curve" smooth="yes"/>
      <point x="503" y="149"/>
      <point x="496" y="155"/>
      <point x="482" y="155" type="curve" smooth="yes"/>
      <point x="382" y="155" type="line" smooth="yes"/>
      <point x="367" y="155"/>
      <point x="358" y="146"/>
      <point x="356" y="132" type="curve" smooth="yes"/>
    </contour>
    <contour>
      <point x="611" y="22" type="line" smooth="yes"/>
      <point x="610" y="21"/>
      <point x="610" y="19"/>
      <point x="610" y="18" type="curve" smooth="yes"/>
      <point x="610" y="7"/>
      <point x="617" y="0"/>
      <point x="630" y="0" type="curve" smooth="yes"/>
      <point x="730" y="0" type="line" smooth="yes"/>
      <point x="743" y="0"/>
      <point x="754" y="5"/>
      <point x="757" y="22" type="curve" smooth="yes"/>
      <point x="774" y="132" type="line" smooth="yes"/>
      <point x="775" y="134"/>
      <point x="775" y="136"/>
      <point x="775" y="138" type="curve" smooth="yes"/>
      <point x="775" y="149"/>
      <point x="768" y="155"/>
      <point x="754" y="155" type="curve" smooth="yes"/>
      <point x="654" y="155" type="line" smooth="yes"/>
      <point x="639" y="155"/>
      <point x="630" y="146"/>
      <point x="628" y="132" type="curve" smooth="yes"/>
    </contour>
  </outline>
</glyph>
<glyph name="minute" format="1">
  <advance width="208"/>
  <unicode hex="2032"/>
  <outline>
    <contour>
      <point x="97" y="440" type="line"/>
      <point x="216" y="440" type="line"/>
      <point x="308" y="763" type="line"/>
      <point x="152" y="763" type="line"/>
    </contour>
  </outline>
</glyph>
<glyph name="guilsinglleft" format="1">
  <advance width="373"/>
  <unicode hex="2039"/>
  <note>
    GF Latin Plus glyph
  </note>
  <outline>
    <contour>
      <point x="69" y="283" type="line"/>
      <point x="261" y="58" type="line"/>
      <point x="359" y="145" type="line"/>
      <point x="241" y="283" type="line"/>
      <point x="400" y="419" type="line"/>
      <point x="327" y="504" type="line"/>
    </contour>
  </outline>
</glyph>
<glyph name="i.superior" format="1">
  <advance width="207"/>
  <unicode hex="2071"/>
  <note>
    GF Latin Plus glyph
  </note>
  <outline>
    <contour>
      <point x="148" y="736" type="line" smooth="yes"/>
      <point x="145" y="726"/>
      <point x="152" y="720"/>
      <point x="162" y="720" type="curve" smooth="yes"/>
      <point x="275" y="720" type="line" smooth="yes"/>
      <point x="285" y="720"/>
      <point x="292" y="725"/>
      <point x="293" y="736" type="curve" smooth="yes"/>
      <point x="307" y="819" type="line" smooth="yes"/>
      <point x="308" y="830"/>
      <point x="304" y="838"/>
      <point x="293" y="838" type="curve" smooth="yes"/>
      <point x="181" y="838" type="line" smooth="yes"/>
      <point x="170" y="838"/>
      <point x="163" y="830"/>
      <point x="160" y="819" type="curve" smooth="yes"/>
    </contour>
    <contour>
      <point x="282" y="672" type="line"/>
      <point x="139" y="672" type="line"/>
      <point x="77" y="280" type="line"/>
      <point x="220" y="280" type="line"/>
    </contour>
    <contour>
      <point x="212" y="280" type="move" name="ogonek"/>
    </contour>
    <contour>
      <point x="137" y="171" type="move" name="bottom"/>
    </contour>
  </outline>
</glyph>
<glyph name="foursuperior" format="1">
  <advance width="415"/>
  <unicode hex="2074"/>
  <outline>
    <contour>
      <point x="84" y="501" type="line"/>
      <point x="98" y="441" type="line"/>
      <point x="302" y="441" type="line"/>
      <point x="288" y="355" type="line"/>
      <point x="426" y="355" type="line"/>
      <point x="440" y="441" type="line"/>
      <point x="480" y="462" type="line"/>
      <point x="496" y="555" type="line"/>
      <point x="458" y="555" type="line"/>
      <point x="478" y="686" type="line"/>
      <point x="367" y="686" type="line"/>
      <point x="330" y="622" type="line"/>
      <point x="320" y="555" type="line"/>
      <point x="257" y="555" type="line"/>
      <point x="418" y="842" type="line"/>
      <point x="278" y="842" type="line"/>
    </contour>
  </outline>
</glyph>
<glyph name="fivesuperior" format="1">
  <advance width="415"/>
  <unicode hex="2075"/>
  <outline>
    <contour>
      <point x="100" y="365" type="line"/>
      <point x="157" y="359"/>
      <point x="219" y="351"/>
      <point x="268" y="351" type="curve" smooth="yes"/>
      <point x="390" y="351"/>
      <point x="451" y="387"/>
      <point x="466" y="477" type="curve" smooth="yes"/>
      <point x="477" y="550" type="line" smooth="yes"/>
      <point x="479" y="558"/>
      <point x="480" y="568"/>
      <point x="479" y="576" type="curve" smooth="yes"/>
      <point x="479" y="630"/>
      <point x="451" y="668"/>
      <point x="384" y="668" type="curve" smooth="yes"/>
      <point x="334" y="668" type="line" smooth="yes"/>
      <point x="315" y="668"/>
      <point x="293" y="668"/>
      <point x="276" y="658" type="curve"/>
      <point x="288" y="721" type="line"/>
      <point x="483" y="721" type="line"/>
      <point x="502" y="842" type="line"/>
      <point x="190" y="842" type="line"/>
      <point x="128" y="535" type="line"/>
      <point x="258" y="535" type="line"/>
      <point x="262" y="548"/>
      <point x="268" y="555"/>
      <point x="288" y="555" type="curve" smooth="yes"/>
      <point x="315" y="555" type="line" smooth="yes"/>
      <point x="332" y="555"/>
      <point x="337" y="547"/>
      <point x="337" y="537" type="curve" smooth="yes"/>
      <point x="337" y="534"/>
      <point x="336" y="526"/>
      <point x="335" y="519" type="curve" smooth="yes"/>
      <point x="331" y="494" type="line" smooth="yes"/>
      <point x="329" y="480"/>
      <point x="317" y="472"/>
      <point x="294" y="472" type="curve" smooth="yes"/>
      <point x="118" y="472" type="line"/>
    </contour>
  </outline>
</glyph>
<glyph name="eightsuperior" format="1">
  <advance width="415"/>
  <unicode hex="2078"/>
  <outline>
    <contour>
      <point x="281" y="693" type="curve" smooth="yes"/>
      <point x="284" y="711" type="line" smooth="yes"/>
      <point x="286" y="727"/>
      <point x="294" y="732"/>
      <point x="308" y="732" type="curve" smooth="yes"/>
      <point x="338" y="732" type="line" smooth="yes"/>
      <point x="351" y="732"/>
      <point x="357" y="728"/>
      <point x="357" y="718" type="curve" smooth="yes"/>
      <point x="357" y="716"/>
      <point x="356" y="709"/>
      <point x="356" y="707" type="curve" smooth="yes"/>
      <point x="353" y="688" type="line" smooth="yes"/>
      <point x="350" y="672"/>
      <point x="343" y="661"/>
      <point x="328" y="661" type="curve" smooth="yes"/>
      <point x="297" y="661" type="line" smooth="yes"/>
      <point x="286" y="661"/>
      <point x="279" y="666"/>
      <point x="279" y="676" type="curve" smooth="yes"/>
      <point x="279" y="680"/>
      <point x="280" y="686"/>
    </contour>
    <contour>
      <point x="243" y="498" type="curve" smooth="yes"/>
      <point x="248" y="520" type="line" smooth="yes"/>
      <point x="251" y="539"/>
      <point x="264" y="548"/>
      <point x="278" y="548" type="curve" smooth="yes"/>
      <point x="310" y="548" type="line" smooth="yes"/>
      <point x="325" y="548"/>
      <point x="334" y="543"/>
      <point x="334" y="530" type="curve" smooth="yes"/>
      <point x="334" y="529"/>
      <point x="333" y="526"/>
      <point x="332" y="520" type="curve" smooth="yes"/>
      <point x="328" y="492" type="line" smooth="yes"/>
      <point x="326" y="476"/>
      <point x="316" y="465"/>
      <point x="296" y="465" type="curve" smooth="yes"/>
      <point x="265" y="465" type="line" smooth="yes"/>
      <point x="251" y="465"/>
      <point x="242" y="469"/>
      <point x="242" y="482" type="curve" smooth="yes"/>
      <point x="242" y="485"/>
      <point x="242" y="492"/>
    </contour>
    <contour>
      <point x="101" y="464" type="line" smooth="yes"/>
      <point x="99" y="455"/>
      <point x="99" y="446"/>
      <point x="99" y="438" type="curve" smooth="yes"/>
      <point x="99" y="364"/>
      <point x="161" y="351"/>
      <point x="222" y="351" type="curve" smooth="yes"/>
      <point x="313" y="351" type="line" smooth="yes"/>
      <point x="380" y="351"/>
      <point x="445" y="366"/>
      <point x="461" y="464" type="curve" smooth="yes"/>
      <point x="472" y="528" type="line" smooth="yes"/>
      <point x="472" y="536"/>
      <point x="474" y="544"/>
      <point x="474" y="555" type="curve" smooth="yes"/>
      <point x="474" y="578"/>
      <point x="467" y="606"/>
      <point x="436" y="614" type="curve"/>
      <point x="472" y="618"/>
      <point x="484" y="673"/>
      <point x="487" y="690" type="curve" smooth="yes"/>
      <point x="495" y="745" type="line" smooth="yes"/>
      <point x="497" y="752"/>
      <point x="497" y="758"/>
      <point x="497" y="764" type="curve" smooth="yes"/>
      <point x="497" y="824"/>
      <point x="446" y="846"/>
      <point x="389" y="846" type="curve" smooth="yes"/>
      <point x="293" y="846" type="line" smooth="yes"/>
      <point x="230" y="846"/>
      <point x="167" y="820"/>
      <point x="155" y="745" type="curve" smooth="yes"/>
      <point x="149" y="704" type="line" smooth="yes"/>
      <point x="144" y="678"/>
      <point x="142" y="665"/>
      <point x="142" y="652" type="curve" smooth="yes"/>
      <point x="142" y="634"/>
      <point x="148" y="618"/>
      <point x="171" y="604" type="curve"/>
      <point x="137" y="596"/>
      <point x="115" y="560"/>
      <point x="112" y="542" type="curve" smooth="yes"/>
    </contour>
  </outline>
</glyph>
<glyph name="ninesuperior" format="1">
  <advance width="415"/>
  <unicode hex="2079"/>
  <outline>
    <contour>
      <point x="347" y="647" type="curve"/>
      <point x="303" y="647" type="line" smooth="yes"/>
      <point x="278" y="647"/>
      <point x="270" y="652"/>
      <point x="270" y="666" type="curve" smooth="yes"/>
      <point x="270" y="670"/>
      <point x="271" y="676"/>
      <point x="272" y="682" type="curve" smooth="yes"/>
      <point x="275" y="699" type="line" smooth="yes"/>
      <point x="278" y="716"/>
      <point x="286" y="725"/>
      <point x="303" y="725" type="curve" smooth="yes"/>
      <point x="317" y="725" type="line" smooth="yes"/>
      <point x="340" y="725"/>
      <point x="351" y="716"/>
      <point x="351" y="685" type="curve" smooth="yes"/>
      <point x="351" y="676"/>
      <point x="349" y="662"/>
    </contour>
    <contour>
      <point x="488" y="710" type="curve" smooth="yes"/>
      <point x="487" y="815"/>
      <point x="443" y="846"/>
      <point x="357" y="846" type="curve" smooth="yes"/>
      <point x="290" y="846" type="line" smooth="yes"/>
      <point x="211" y="846"/>
      <point x="155" y="810"/>
      <point x="141" y="724" type="curve" smooth="yes"/>
      <point x="130" y="653" type="line" smooth="yes"/>
      <point x="128" y="642"/>
      <point x="127" y="630"/>
      <point x="127" y="620" type="curve" smooth="yes"/>
      <point x="127" y="570"/>
      <point x="150" y="534"/>
      <point x="238" y="534" type="curve" smooth="yes"/>
      <point x="288" y="534"/>
      <point x="306" y="536"/>
      <point x="331" y="547" type="curve"/>
      <point x="324" y="500"/>
      <point x="303" y="472"/>
      <point x="243" y="472" type="curve" smooth="yes"/>
      <point x="131" y="472" type="line"/>
      <point x="113" y="365" type="line"/>
      <point x="148" y="355"/>
      <point x="192" y="351"/>
      <point x="240" y="351" type="curve" smooth="yes"/>
      <point x="402" y="351"/>
      <point x="489" y="470"/>
    </contour>
  </outline>
</glyph>
<glyph name="franc" format="1">
  <advance width="609"/>
  <unicode hex="20A3"/>
  <note>
    GF Latin Plus glyph
  </note>
  <outline>
    <contour>
      <point x="129" y="0" type="line"/>
      <point x="302" y="0" type="line"/>
      <point x="351" y="313" type="line"/>
      <point x="556" y="322" type="line"/>
      <point x="577" y="459" type="line"/>
      <point x="376" y="468" type="line"/>
      <point x="386" y="532" type="line" smooth="yes"/>
      <point x="390" y="559"/>
      <point x="410" y="582"/>
      <point x="448" y="582" type="curve" smooth="yes"/>
      <point x="645" y="582" type="line"/>
      <point x="668" y="727" type="line"/>
      <point x="592" y="737"/>
      <point x="465" y="742"/>
      <point x="424" y="742" type="curve" smooth="yes"/>
      <point x="343" y="742"/>
      <point x="241" y="705"/>
      <point x="220" y="573" type="curve" smooth="yes"/>
    </contour>
    <contour>
      <point x="74" y="111" type="line"/>
      <point x="145" y="102" type="line"/>
      <point x="318" y="102" type="line"/>
      <point x="496" y="111" type="line"/>
      <point x="516" y="231" type="line"/>
      <point x="340" y="240" type="line"/>
      <point x="167" y="240" type="line"/>
      <point x="93" y="231" type="line"/>
    </contour>
  </outline>
</glyph>
<glyph name="lira" format="1">
  <advance width="609"/>
  <unicode hex="20A4"/>
  <note>
    GF Latin Plus glyph
  </note>
  <outline>
    <contour>
      <point x="56" y="0" type="line"/>
      <point x="564" y="0" type="line"/>
      <point x="589" y="155" type="line"/>
      <point x="340" y="155" type="line"/>
      <point x="354" y="241" type="line"/>
      <point x="524" y="244" type="line"/>
      <point x="536" y="320" type="line"/>
      <point x="367" y="327" type="line"/>
      <point x="375" y="374" type="line"/>
      <point x="546" y="378" type="line"/>
      <point x="558" y="454" type="line"/>
      <point x="388" y="460" type="line"/>
      <point x="396" y="508" type="line" smooth="yes"/>
      <point x="407" y="574"/>
      <point x="434" y="593"/>
      <point x="496" y="593" type="curve" smooth="yes"/>
      <point x="657" y="593" type="line"/>
      <point x="679" y="732" type="line"/>
      <point x="642" y="738"/>
      <point x="584" y="747"/>
      <point x="513" y="747" type="curve" smooth="yes"/>
      <point x="336" y="747"/>
      <point x="250" y="678"/>
      <point x="223" y="506" type="curve" smooth="yes"/>
      <point x="215" y="460" type="line"/>
      <point x="128" y="454" type="line"/>
      <point x="116" y="378" type="line"/>
      <point x="202" y="374" type="line"/>
      <point x="196" y="335" type="line"/>
      <point x="110" y="328" type="line"/>
      <point x="97" y="252" type="line"/>
      <point x="182" y="248" type="line"/>
      <point x="168" y="155" type="line"/>
      <point x="77" y="132" type="line"/>
    </contour>
  </outline>
</glyph>
<glyph name="peseta" format="1">
  <advance width="609"/>
  <unicode hex="20A7"/>
  <note>
    GF Latin Plus glyph
  </note>
  <outline>
    <contour>
      <point x="283" y="309" type="line"/>
      <point x="327" y="587" type="line"/>
      <point x="417" y="587" type="line" smooth="yes"/>
      <point x="442" y="587"/>
      <point x="457" y="567"/>
      <point x="457" y="520" type="curve" smooth="yes"/>
      <point x="457" y="365"/>
      <point x="421" y="309"/>
      <point x="363" y="309" type="curve" smooth="yes"/>
    </contour>
    <contour>
      <point x="62" y="0" type="line"/>
      <point x="234" y="0" type="line"/>
      <point x="262" y="172" type="line"/>
      <point x="290" y="168"/>
      <point x="325" y="154"/>
      <point x="374" y="154" type="curve" smooth="yes"/>
      <point x="479" y="154"/>
      <point x="633" y="237"/>
      <point x="633" y="551" type="curve" smooth="yes"/>
      <point x="633" y="718"/>
      <point x="540" y="742"/>
      <point x="459" y="742" type="curve" smooth="yes"/>
      <point x="179" y="742" type="line"/>
    </contour>
    <contour>
      <point x="243" y="400" type="line"/>
      <point x="662" y="400" type="line"/>
      <point x="676" y="485" type="line"/>
      <point x="257" y="485" type="line"/>
    </contour>
    <contour>
      <point x="75" y="400" type="line"/>
      <point x="233" y="400" type="line"/>
      <point x="247" y="485" type="line"/>
      <point x="88" y="485" type="line"/>
    </contour>
  </outline>
</glyph>
<glyph name="euro" format="1">
  <advance width="609"/>
  <unicode hex="20AC"/>
  <note>
    GF Latin Plus glyph
  </note>
  <outline>
    <contour>
      <point x="80" y="394" type="line"/>
      <point x="153" y="385" type="line"/>
      <point x="290" y="385" type="line"/>
      <point x="560" y="393" type="line"/>
      <point x="572" y="470" type="line"/>
      <point x="305" y="477" type="line"/>
      <point x="177" y="477" type="line"/>
      <point x="92" y="468" type="line"/>
    </contour>
    <contour>
      <point x="57" y="248" type="line"/>
      <point x="139" y="241" type="line"/>
      <point x="267" y="241" type="line"/>
      <point x="537" y="248" type="line"/>
      <point x="549" y="326" type="line"/>
      <point x="282" y="334" type="line"/>
      <point x="145" y="334" type="line"/>
      <point x="69" y="326" type="line"/>
    </contour>
    <component base="C" xOffset="38"/>
  </outline>
</glyph>
<glyph name="kip" format="1">
  <advance width="609"/>
  <unicode hex="20AD"/>
  <note>
    GF Latin Plus glyph
  </note>
  <outline>
    <contour>
      <point x="58" y="285" type="line"/>
      <point x="620" y="285" type="line"/>
      <point x="645" y="449" type="line"/>
      <point x="84" y="449" type="line"/>
    </contour>
    <contour>
      <point x="62" y="0" type="line"/>
      <point x="234" y="0" type="line"/>
      <point x="280" y="290" type="line"/>
      <point x="346" y="290" type="line"/>
      <point x="417" y="0" type="line"/>
      <point x="598" y="0" type="line"/>
      <point x="494" y="369" type="line"/>
      <point x="708" y="742" type="line"/>
      <point x="527" y="742" type="line"/>
      <point x="372" y="444" type="line"/>
      <point x="305" y="444" type="line"/>
      <point x="352" y="742" type="line"/>
      <point x="179" y="742" type="line"/>
    </contour>
  </outline>
</glyph>
<glyph name="peso" format="1">
  <advance width="609"/>
  <unicode hex="20B1"/>
  <note>
    GF Latin Plus glyph
  </note>
  <outline>
    <contour>
      <point x="542" y="506" type="line"/>
      <point x="679" y="506" type="line"/>
      <point x="693" y="592" type="line"/>
      <point x="556" y="592" type="line"/>
    </contour>
    <contour>
      <point x="90" y="506" type="line"/>
      <point x="236" y="506" type="line"/>
      <point x="250" y="592" type="line"/>
      <point x="104" y="592" type="line"/>
    </contour>
    <contour>
      <point x="490" y="329" type="line"/>
      <point x="651" y="329" type="line"/>
      <point x="665" y="414" type="line"/>
      <point x="531" y="414" type="line"/>
    </contour>
    <contour>
      <point x="62" y="329" type="line"/>
      <point x="212" y="329" type="line"/>
      <point x="226" y="414" type="line"/>
      <point x="76" y="414" type="line"/>
    </contour>
    <contour>
      <point x="297" y="369" type="line"/>
      <point x="331" y="587" type="line"/>
      <point x="407" y="587" type="line" smooth="yes"/>
      <point x="439" y="587"/>
      <point x="458" y="567"/>
      <point x="458" y="522" type="curve" smooth="yes"/>
      <point x="458" y="430"/>
      <point x="426" y="369"/>
      <point x="370" y="369" type="curve" smooth="yes"/>
    </contour>
    <contour>
      <point x="83" y="0" type="line"/>
      <point x="238" y="0" type="line"/>
      <point x="274" y="232" type="line"/>
      <point x="298" y="226"/>
      <point x="338" y="214"/>
      <point x="373" y="214" type="curve" smooth="yes"/>
      <point x="506" y="214"/>
      <point x="617" y="310"/>
      <point x="617" y="567" type="curve" smooth="yes"/>
      <point x="617" y="720"/>
      <point x="528" y="742"/>
      <point x="449" y="742" type="curve" smooth="yes"/>
      <point x="201" y="742" type="line"/>
    </contour>
  </outline>
</glyph>
<glyph name="manat" format="1">
  <advance width="609"/>
  <unicode hex="20BC"/>
  <note>
    GF Latin Plus glyph
  </note>
  <outline>
    <contour>
      <point x="280" y="80" type="line"/>
      <point x="355" y="80" type="line"/>
      <point x="468" y="792" type="line"/>
      <point x="392" y="792" type="line"/>
    </contour>
    <contour>
      <point x="20" y="0" type="curve"/>
      <point x="175" y="0" type="line"/>
      <point x="232" y="295" type="line" smooth="yes"/>
      <point x="255" y="414"/>
      <point x="294" y="558"/>
      <point x="392" y="558" type="curve" smooth="yes"/>
      <point x="461" y="558"/>
      <point x="479" y="489"/>
      <point x="479" y="408" type="curve" smooth="yes"/>
      <point x="479" y="371"/>
      <point x="475" y="332"/>
      <point x="471" y="295" type="curve" smooth="yes"/>
      <point x="434" y="0" type="line"/>
      <point x="589" y="0" type="line"/>
      <point x="608" y="140"/>
      <point x="621" y="268"/>
      <point x="621" y="375" type="curve" smooth="yes"/>
      <point x="621" y="581"/>
      <point x="572" y="713"/>
      <point x="417" y="713" type="curve" smooth="yes"/>
      <point x="182" y="713"/>
      <point x="94" y="409"/>
    </contour>
  </outline>
</glyph>
<glyph name="partialdiff" format="1">
  <advance width="631"/>
  <unicode hex="2202"/>
  <outline>
    <contour>
      <point x="356" y="310" type="curve" smooth="yes"/>
      <point x="392" y="310"/>
      <point x="425" y="299"/>
      <point x="441" y="290" type="curve"/>
      <point x="435" y="236"/>
      <point x="407" y="148"/>
      <point x="330" y="148" type="curve" smooth="yes"/>
      <point x="288" y="148"/>
      <point x="253" y="171"/>
      <point x="253" y="219" type="curve" smooth="yes"/>
      <point x="253" y="261"/>
      <point x="280" y="310"/>
    </contour>
    <contour>
      <point x="80" y="194" type="curve" smooth="yes"/>
      <point x="80" y="59"/>
      <point x="175" y="-5"/>
      <point x="304" y="-5" type="curve" smooth="yes"/>
      <point x="553" y="-5"/>
      <point x="647" y="275"/>
      <point x="647" y="470" type="curve" smooth="yes"/>
      <point x="647" y="638"/>
      <point x="572" y="740"/>
      <point x="405" y="740" type="curve" smooth="yes"/>
      <point x="320" y="740"/>
      <point x="246" y="713"/>
      <point x="178" y="664" type="curve"/>
      <point x="183" y="533" type="line"/>
      <point x="224" y="557"/>
      <point x="294" y="585"/>
      <point x="365" y="585" type="curve" smooth="yes"/>
      <point x="447" y="585"/>
      <point x="475" y="545"/>
      <point x="475" y="469" type="curve" smooth="yes"/>
      <point x="475" y="452"/>
      <point x="473" y="434"/>
      <point x="471" y="413" type="curve"/>
      <point x="439" y="449"/>
      <point x="389" y="462"/>
      <point x="338" y="462" type="curve" smooth="yes"/>
      <point x="176" y="462"/>
      <point x="80" y="354"/>
    </contour>
  </outline>
</glyph>
<glyph name="increment" format="1">
  <advance width="700"/>
  <unicode hex="2206"/>
  <outline>
    <contour>
      <point x="259" y="146" type="line"/>
      <point x="446" y="594" type="line"/>
      <point x="490" y="146" type="line"/>
    </contour>
    <contour>
      <point x="19" y="0" type="line"/>
      <point x="687" y="0" type="line"/>
      <point x="579" y="742" type="line"/>
      <point x="363" y="742" type="line"/>
    </contour>
  </outline>
</glyph>
<glyph name="radical" format="1">
  <advance width="668"/>
  <unicode hex="221A"/>
  <outline>
    <contour>
      <point x="46" y="220" type="line"/>
      <point x="102" y="220" type="line"/>
      <point x="176" y="0" type="line"/>
      <point x="347" y="0" type="line"/>
      <point x="784" y="800" type="line"/>
      <point x="595" y="800" type="line"/>
      <point x="286" y="235" type="line"/>
      <point x="250" y="376" type="line"/>
      <point x="71" y="376" type="line"/>
    </contour>
  </outline>
</glyph>
<glyph name="lessequal" format="1">
  <advance width="609"/>
  <unicode hex="2264"/>
  <note>
    GF Latin Plus glyph
  </note>
  <outline>
    <contour>
      <point x="135" y="351" type="line"/>
      <point x="532" y="232" type="line"/>
      <point x="556" y="384" type="line"/>
      <point x="316" y="429" type="line"/>
      <point x="568" y="465" type="line"/>
      <point x="592" y="616" type="line"/>
      <point x="159" y="503" type="line"/>
    </contour>
    <component base="minus" xOffset="-40" yOffset="-250"/>
  </outline>
</glyph>
<glyph name="lozenge" format="1">
  <advance width="509"/>
  <unicode hex="25CA"/>
  <outline>
    <contour>
      <point x="223" y="366" type="line"/>
      <point x="283" y="214" type="line"/>
      <point x="405" y="379" type="line"/>
      <point x="344" y="521" type="line"/>
    </contour>
    <contour>
      <point x="71" y="373" type="line"/>
      <point x="338" y="732" type="line"/>
      <point x="406" y="732" type="line"/>
      <point x="553" y="373" type="line"/>
      <point x="290" y="0" type="line"/>
      <point x="222" y="0" type="line"/>
    </contour>
  </outline>
</glyph>
<glyph name="f_f_l" format="1">
  <advance width="1125"/>
  <unicode hex="FB04"/>
  <outline>
    <contour>
      <point x="75" y="400" type="line"/>
      <point x="148" y="400" type="line"/>
      <point x="85" y="0" type="line"/>
      <point x="258" y="0" type="line"/>
      <point x="321" y="400" type="line"/>
      <point x="644" y="400" type="line"/>
      <point x="665" y="538" type="line"/>
      <point x="343" y="538" type="line"/>
      <point x="346" y="567" type="line" smooth="yes"/>
      <point x="351" y="616"/>
      <point x="372" y="632"/>
      <point x="421" y="632" type="curve" smooth="yes"/>
      <point x="490" y="632" type="line"/>
      <point x="511" y="759" type="line"/>
      <point x="481" y="764"/>
      <point x="436" y="769"/>
      <point x="388" y="769" type="curve" smooth="yes"/>
      <point x="266" y="769"/>
      <point x="202" y="728"/>
      <point x="183" y="616" type="curve" smooth="yes"/>
      <point x="170" y="538" type="line"/>
      <point x="93" y="511" type="line"/>
    </contour>
    <component base="fl" xOffset="396"/>
  </outline>
</glyph>
<glyph name="s_t" format="1">
  <advance width="891"/>
  <unicode hex="FB06"/>
  <outline>
    <contour>
      <point x="49" y="22" type="line"/>
      <point x="102" y="4"/>
      <point x="168" y="-6"/>
      <point x="264" y="-6" type="curve" smooth="yes"/>
      <point x="398" y="-6"/>
      <point x="486" y="31"/>
      <point x="502" y="134" type="curve" smooth="yes"/>
      <point x="509" y="181" type="line" smooth="yes"/>
      <point x="512" y="198"/>
      <point x="512" y="214"/>
      <point x="512" y="229" type="curve" smooth="yes"/>
      <point x="512" y="296"/>
      <point x="454" y="337"/>
      <point x="366" y="337" type="curve" smooth="yes"/>
      <point x="281" y="337" type="line" smooth="yes"/>
      <point x="253" y="337"/>
      <point x="246" y="345"/>
      <point x="246" y="359" type="curve" smooth="yes"/>
      <point x="246" y="363"/>
      <point x="247" y="369"/>
      <point x="248" y="376" type="curve" smooth="yes"/>
      <point x="250" y="385" type="line" smooth="yes"/>
      <point x="255" y="407"/>
      <point x="267" y="414"/>
      <point x="298" y="414" type="curve" smooth="yes"/>
      <point x="733" y="414" type="line"/>
      <point x="683" y="522" type="line"/>
      <point x="594" y="533"/>
      <point x="467" y="544"/>
      <point x="331" y="544" type="curve" smooth="yes"/>
      <point x="166" y="544"/>
      <point x="112" y="482"/>
      <point x="97" y="398" type="curve" smooth="yes"/>
      <point x="91" y="361" type="line" smooth="yes"/>
      <point x="88" y="344"/>
      <point x="88" y="329"/>
      <point x="88" y="314" type="curve" smooth="yes"/>
      <point x="88" y="234"/>
      <point x="157" y="200"/>
      <point x="245" y="200" type="curve" smooth="yes"/>
      <point x="319" y="200" type="line" smooth="yes"/>
      <point x="340" y="200"/>
      <point x="352" y="192"/>
      <point x="352" y="177" type="curve" smooth="yes"/>
      <point x="352" y="176"/>
      <point x="352" y="173"/>
      <point x="351" y="167" type="curve" smooth="yes"/>
      <point x="348" y="151" type="line" smooth="yes"/>
      <point x="345" y="133"/>
      <point x="328" y="123"/>
      <point x="303" y="123" type="curve" smooth="yes"/>
      <point x="65" y="123" type="line"/>
    </contour>
    <contour>
      <point x="645" y="427" type="line"/>
      <point x="606" y="220" type="line" smooth="yes"/>
      <point x="599" y="180"/>
      <point x="596" y="148"/>
      <point x="596" y="124" type="curve" smooth="yes"/>
      <point x="596" y="39"/>
      <point x="654" y="0"/>
      <point x="768" y="0" type="curve" smooth="yes"/>
      <point x="854" y="0" type="line"/>
      <point x="875" y="128" type="line"/>
      <point x="815" y="134" type="line" smooth="yes"/>
      <point x="784" y="137"/>
      <point x="771" y="146"/>
      <point x="771" y="174" type="curve" smooth="yes"/>
      <point x="771" y="187"/>
      <point x="775" y="209"/>
      <point x="776" y="220" type="curve" smooth="yes"/>
      <point x="805" y="400" type="line"/>
      <point x="923" y="400" type="line"/>
      <point x="944" y="538" type="line"/>
      <point x="827" y="538" type="line"/>
      <point x="851" y="689" type="line"/>
      <point x="714" y="689" type="line"/>
      <point x="654" y="494" type="line"/>
    </contour>
  </outline>
</glyph>
<glyph name="A.smcp" format="1">
  <advance width="592"/>
  <note>
    GF Latin Plus glyph
  </note>
  <outline>
    <contour>
      <point x="283" y="221" type="line"/>
      <point x="364" y="428" type="line"/>
      <point x="379" y="221" type="line"/>
    </contour>
    <contour>
      <point x="23" y="0" type="line"/>
      <point x="190" y="0" type="line"/>
      <point x="224" y="82" type="line"/>
      <point x="395" y="82" type="line"/>
      <point x="403" y="0" type="line"/>
      <point x="572" y="0" type="line"/>
      <point x="488" y="560" type="line"/>
      <point x="284" y="560" type="line"/>
    </contour>
    <contour>
      <point x="395" y="650" type="move" name="top"/>
    </contour>
    <contour>
      <point x="455" y="0" type="move" name="ogonek"/>
    </contour>
    <contour>
      <point x="272" y="-150" type="move" name="bottom"/>
    </contour>
  </outline>
</glyph>
<glyph name="AE.smcp" format="1">
  <advance width="837"/>
  <note>
    GF Latin Plus glyph
  </note>
  <outline>
    <contour>
      <point x="329" y="213" type="line"/>
      <point x="443" y="390" type="line"/>
      <point x="415" y="213" type="line"/>
    </contour>
    <contour>
      <point x="16" y="0" type="line"/>
      <point x="175" y="0" type="line"/>
      <point x="237" y="82" type="line"/>
      <point x="398" y="82" type="line"/>
      <point x="397" y="64" type="line" smooth="yes"/>
      <point x="401" y="14"/>
      <point x="439" y="-5"/>
      <point x="536" y="-5" type="curve" smooth="yes"/>
      <point x="583" y="-5"/>
      <point x="692" y="0"/>
      <point x="782" y="11" type="curve"/>
      <point x="803" y="140" type="line"/>
      <point x="605" y="140" type="line" smooth="yes"/>
      <point x="568" y="140"/>
      <point x="550" y="149"/>
      <point x="556" y="177" type="curve" smooth="yes"/>
      <point x="562" y="210" type="line"/>
      <point x="775" y="218" type="line"/>
      <point x="794" y="341" type="line"/>
      <point x="584" y="349" type="line"/>
      <point x="588" y="379" type="line" smooth="yes"/>
      <point x="594" y="410"/>
      <point x="603" y="417"/>
      <point x="640" y="417" type="curve" smooth="yes"/>
      <point x="846" y="417" type="line"/>
      <point x="867" y="547" type="line"/>
      <point x="770" y="556"/>
      <point x="688" y="560"/>
      <point x="628" y="560" type="curve" smooth="yes"/>
      <point x="516" y="560"/>
      <point x="389" y="539"/>
      <point x="301" y="413" type="curve" smooth="yes"/>
    </contour>
    <contour>
      <point x="560" y="650" type="move" name="top"/>
    </contour>
  </outline>
</glyph>
<glyph name="D.smcp" format="1">
  <advance width="581"/>
  <note>
    GF Latin Plus glyph
  </note>
  <outline>
    <contour>
      <point x="241" y="139" type="line"/>
      <point x="286" y="421" type="line"/>
      <point x="339" y="421" type="line" smooth="yes"/>
      <point x="400" y="421"/>
      <point x="426" y="403"/>
      <point x="426" y="357" type="curve" smooth="yes"/>
      <point x="426" y="342"/>
      <point x="424" y="318"/>
      <point x="416" y="265" type="curve" smooth="yes"/>
      <point x="402" y="177"/>
      <point x="369" y="139"/>
      <point x="300" y="139" type="curve" smooth="yes"/>
    </contour>
    <contour>
      <point x="54" y="0" type="line"/>
      <point x="284" y="0" type="line" smooth="yes"/>
      <point x="455" y="0"/>
      <point x="552" y="60"/>
      <point x="583" y="259" type="curve" smooth="yes"/>
      <point x="590" y="296"/>
      <point x="592" y="331"/>
      <point x="592" y="364" type="curve" smooth="yes"/>
      <point x="591" y="476"/>
      <point x="546" y="560"/>
      <point x="378" y="560" type="curve" smooth="yes"/>
      <point x="143" y="560" type="line"/>
    </contour>
    <contour>
      <point x="377" y="650" type="move" name="top"/>
    </contour>
    <contour>
      <point x="243" y="-150" type="move" name="bottom"/>
    </contour>
  </outline>
</glyph>
<glyph name="E.smcp" format="1">
  <advance width="508"/>
  <note>
    GF Latin Plus glyph
  </note>
  <outline>
    <contour>
      <point x="75" y="132" type="line" smooth="yes"/>
      <point x="57" y="16"/>
      <point x="155" y="-4"/>
      <point x="214" y="-5" type="curve" smooth="yes"/>
      <point x="318" y="-5"/>
      <point x="370" y="2"/>
      <point x="454" y="10" type="curve"/>
      <point x="475" y="140" type="line"/>
      <point x="280" y="140" type="line" smooth="yes"/>
      <point x="251" y="140"/>
      <point x="243" y="155"/>
      <point x="246" y="177" type="curve" smooth="yes"/>
      <point x="252" y="212" type="line"/>
      <point x="445" y="220" type="line"/>
      <point x="465" y="343" type="line"/>
      <point x="275" y="351" type="line"/>
      <point x="278" y="377" type="line" smooth="yes"/>
      <point x="282" y="403"/>
      <point x="291" y="417"/>
      <point x="323" y="417" type="curve" smooth="yes"/>
      <point x="518" y="417" type="line"/>
      <point x="539" y="548" type="line"/>
      <point x="448" y="555"/>
      <point x="381" y="560"/>
      <point x="296" y="560" type="curve" smooth="yes"/>
      <point x="206" y="560"/>
      <point x="138" y="524"/>
      <point x="120" y="416" type="curve" smooth="yes"/>
    </contour>
    <contour>
      <point x="360" y="650" type="move" name="top"/>
    </contour>
    <contour>
      <point x="444" y="10" type="move" name="ogonek"/>
    </contour>
    <contour>
      <point x="225" y="-150" type="move" name="bottom"/>
    </contour>
  </outline>
</glyph>
<glyph name="Eth.smcp" format="1">
  <advance width="581"/>
  <note>
    GF Latin Plus glyph
  </note>
  <outline>
    <contour>
      <point x="52" y="231" type="line"/>
      <point x="319" y="231" type="line"/>
      <point x="335" y="330" type="line"/>
      <point x="67" y="330" type="line"/>
    </contour>
    <component base="D.smcp"/>
  </outline>
</glyph>
<glyph name="G.smcp" format="1">
  <advance width="544"/>
  <note>
    GF Latin Plus glyph
  </note>
  <outline>
    <contour>
      <point x="87" y="310" type="curve" smooth="yes"/>
      <point x="81" y="268"/>
      <point x="73" y="220"/>
      <point x="74" y="175" type="curve" smooth="yes"/>
      <point x="75" y="52"/>
      <point x="117" y="-5"/>
      <point x="230" y="-5" type="curve" smooth="yes"/>
      <point x="270" y="-5"/>
      <point x="340" y="17"/>
      <point x="372" y="36" type="curve"/>
      <point x="388" y="0" type="line"/>
      <point x="511" y="0" type="line"/>
      <point x="564" y="336" type="line"/>
      <point x="546" y="336"/>
      <point x="491" y="337"/>
      <point x="462" y="337" type="curve" smooth="yes"/>
      <point x="404" y="337"/>
      <point x="358" y="331"/>
      <point x="331" y="330" type="curve"/>
      <point x="310" y="206" type="line"/>
      <point x="387" y="206" type="line"/>
      <point x="376" y="144" type="line"/>
      <point x="359" y="141"/>
      <point x="318" y="138"/>
      <point x="288" y="138" type="curve" smooth="yes"/>
      <point x="254" y="138"/>
      <point x="240" y="160"/>
      <point x="240" y="191" type="curve" smooth="yes"/>
      <point x="239" y="212"/>
      <point x="242" y="239"/>
      <point x="248" y="277" type="curve" smooth="yes"/>
      <point x="266" y="397"/>
      <point x="286" y="426"/>
      <point x="375" y="426" type="curve" smooth="yes"/>
      <point x="465" y="426"/>
      <point x="519" y="421"/>
      <point x="546" y="416" type="curve"/>
      <point x="566" y="537" type="line"/>
      <point x="517" y="552"/>
      <point x="458" y="564"/>
      <point x="351" y="564" type="curve" smooth="yes"/>
      <point x="205" y="564"/>
      <point x="115" y="487"/>
    </contour>
    <contour>
      <point x="376" y="650" type="move" name="top"/>
    </contour>
    <contour>
      <point x="241" y="-150" type="move" name="bottom"/>
    </contour>
  </outline>
</glyph>
<glyph name="Germandbls.smcp" format="1">
  <advance width="635"/>
  <note>
    GF Latin Plus glyph
  </note>
  <outline>
    <contour>
      <point x="462" y="283" type="line"/>
      <point x="608" y="430" type="line"/>
      <point x="627" y="550" type="line"/>
      <point x="434" y="425" type="line"/>
      <point x="330" y="315" type="line"/>
    </contour>
    <contour>
      <point x="314" y="208" type="line"/>
      <point x="421" y="208" type="line" smooth="yes"/>
      <point x="445" y="208"/>
      <point x="460" y="200"/>
      <point x="460" y="184" type="curve" smooth="yes"/>
      <point x="460" y="180"/>
      <point x="459" y="175"/>
      <point x="457" y="163" type="curve" smooth="yes"/>
      <point x="453" y="141"/>
      <point x="436" y="134"/>
      <point x="395" y="134" type="curve" smooth="yes"/>
      <point x="362" y="134"/>
      <point x="320" y="143"/>
      <point x="288" y="151" type="curve"/>
      <point x="266" y="12" type="line"/>
      <point x="304" y="2"/>
      <point x="356" y="-5"/>
      <point x="400" y="-5" type="curve" smooth="yes"/>
      <point x="521" y="-5"/>
      <point x="596" y="19"/>
      <point x="619" y="138" type="curve" smooth="yes"/>
      <point x="626" y="168"/>
      <point x="628" y="187"/>
      <point x="628" y="196" type="curve" smooth="yes"/>
      <point x="628" y="280"/>
      <point x="557" y="315"/>
      <point x="468" y="315" type="curve" smooth="yes"/>
      <point x="330" y="315" type="line"/>
    </contour>
    <contour>
      <point x="54" y="0" type="line"/>
      <point x="218" y="0" type="line"/>
      <point x="280" y="389" type="line" smooth="yes"/>
      <point x="283" y="411"/>
      <point x="297" y="421"/>
      <point x="328" y="421" type="curve" smooth="yes"/>
      <point x="525" y="421" type="line"/>
      <point x="627" y="550" type="line"/>
      <point x="547" y="554"/>
      <point x="474" y="560"/>
      <point x="344" y="560" type="curve" smooth="yes"/>
      <point x="234" y="560"/>
      <point x="136" y="514"/>
      <point x="116" y="386" type="curve" smooth="yes"/>
    </contour>
  </outline>
</glyph>
<glyph name="J.smcp" format="1">
  <advance width="362"/>
  <note>
    GF Latin Plus glyph
  </note>
  <outline>
    <contour>
      <point x="39" y="11" type="line"/>
      <point x="63" y="2"/>
      <point x="106" y="-5"/>
      <point x="142" y="-5" type="curve" smooth="yes"/>
      <point x="258" y="-5"/>
      <point x="312" y="34"/>
      <point x="329" y="144" type="curve" smooth="yes"/>
      <point x="395" y="560" type="line"/>
      <point x="231" y="560" type="line"/>
      <point x="170" y="178" type="line" smooth="yes"/>
      <point x="166" y="152"/>
      <point x="152" y="139"/>
      <point x="108" y="136" type="curve" smooth="yes"/>
      <point x="105" y="136"/>
      <point x="61" y="134"/>
      <point x="58" y="135" type="curve"/>
    </contour>
    <contour>
      <point x="326" y="650" type="move" name="top"/>
    </contour>
  </outline>
</glyph>
<glyph name="K.smcp" format="1">
  <advance width="565"/>
  <note>
    GF Latin Plus glyph
  </note>
  <outline>
    <contour>
      <point x="54" y="0" type="line"/>
      <point x="218" y="0" type="line"/>
      <point x="252" y="211" type="line"/>
      <point x="317" y="211" type="line"/>
      <point x="393" y="0" type="line"/>
      <point x="556" y="0" type="line"/>
      <point x="451" y="278" type="line"/>
      <point x="628" y="560" type="line"/>
      <point x="462" y="560" type="line"/>
      <point x="330" y="350" type="line"/>
      <point x="274" y="350" type="line"/>
      <point x="307" y="560" type="line"/>
      <point x="143" y="560" type="line"/>
    </contour>
    <contour>
      <point x="380" y="650" type="move" name="top"/>
    </contour>
    <contour>
      <point x="259" y="-150" type="move" name="bottom"/>
    </contour>
  </outline>
</glyph>
<glyph name="L.smcp" format="1">
  <advance width="454"/>
  <note>
    GF Latin Plus glyph
  </note>
  <outline>
    <contour>
      <point x="79" y="154" type="line" smooth="yes"/>
      <point x="77" y="141"/>
      <point x="76" y="128"/>
      <point x="76" y="116" type="curve" smooth="yes"/>
      <point x="77" y="38"/>
      <point x="128" y="0"/>
      <point x="208" y="0" type="curve" smooth="yes"/>
      <point x="426" y="0" type="line"/>
      <point x="448" y="139" type="line"/>
      <point x="281" y="139" type="line" smooth="yes"/>
      <point x="256" y="139"/>
      <point x="246" y="150"/>
      <point x="246" y="167" type="curve" smooth="yes"/>
      <point x="246" y="171"/>
      <point x="246" y="178"/>
      <point x="248" y="187" type="curve" smooth="yes"/>
      <point x="307" y="560" type="line"/>
      <point x="143" y="560" type="line"/>
    </contour>
    <contour>
      <point x="239" y="650" type="move" name="top"/>
    </contour>
    <contour>
      <point x="338" y="476" type="move" name="altcaron"/>
    </contour>
    <contour>
      <point x="204" y="-150" type="move" name="bottom"/>
    </contour>
  </outline>
</glyph>
<glyph name="M.salt" format="1">
  <advance width="894"/>
  <outline>
    <contour>
      <point x="39" y="0" type="line"/>
      <point x="206" y="0" type="line"/>
      <point x="322" y="556" type="line" smooth="yes"/>
      <point x="327" y="579"/>
      <point x="335" y="585"/>
      <point x="346" y="585" type="curve" smooth="yes"/>
      <point x="354" y="585"/>
      <point x="358" y="578"/>
      <point x="358" y="564" type="curve" smooth="yes"/>
      <point x="362" y="254" type="line" smooth="yes"/>
      <point x="362" y="184"/>
      <point x="405" y="138"/>
      <point x="473" y="138" type="curve" smooth="yes"/>
      <point x="532" y="138"/>
      <point x="595" y="166"/>
      <point x="622" y="254" type="curve" smooth="yes"/>
      <point x="722" y="562" type="line" smooth="yes"/>
      <point x="729" y="580"/>
      <point x="736" y="586"/>
      <point x="743" y="586" type="curve" smooth="yes"/>
      <point x="750" y="586"/>
      <point x="755" y="582"/>
      <point x="755" y="568" type="curve" smooth="yes"/>
      <point x="755" y="566"/>
      <point x="755" y="564"/>
      <point x="754" y="560" type="curve" smooth="yes"/>
      <point x="694" y="0" type="line"/>
      <point x="861" y="0" type="line"/>
      <point x="922" y="601" type="line" smooth="yes"/>
      <point x="922" y="610"/>
      <point x="923" y="619"/>
      <point x="923" y="629" type="curve" smooth="yes"/>
      <point x="923" y="728"/>
      <point x="861" y="756"/>
      <point x="790" y="756" type="curve" smooth="yes"/>
      <point x="712" y="756"/>
      <point x="644" y="728"/>
      <point x="609" y="605" type="curve" smooth="yes"/>
      <point x="527" y="344" type="line" smooth="yes"/>
      <point x="522" y="326"/>
      <point x="513" y="320"/>
      <point x="503" y="320" type="curve" smooth="yes"/>
      <point x="494" y="320"/>
      <point x="488" y="325"/>
      <point x="488" y="344" type="curve" smooth="yes"/>
      <point x="486" y="605" type="line" smooth="yes"/>
      <point x="488" y="700"/>
      <point x="444" y="757"/>
      <point x="353" y="757" type="curve" smooth="yes"/>
      <point x="274" y="757"/>
      <point x="192" y="722"/>
      <point x="167" y="599" type="curve" smooth="yes"/>
    </contour>
    <contour>
      <point x="569" y="810" type="move" name="top"/>
    </contour>
    <contour>
      <point x="417" y="-150" type="move" name="bottom"/>
    </contour>
  </outline>
</glyph>
<glyph name="M.salt.smcp" format="1">
  <advance width="752"/>
  <outline>
    <contour>
      <point x="38" y="0" type="line"/>
      <point x="197" y="0" type="line"/>
      <point x="278" y="402" type="line" smooth="yes"/>
      <point x="281" y="415"/>
      <point x="285" y="418"/>
      <point x="291" y="418" type="curve" smooth="yes"/>
      <point x="296" y="418"/>
      <point x="298" y="414"/>
      <point x="297" y="396" type="curve" smooth="yes"/>
      <point x="293" y="190" type="line" smooth="yes"/>
      <point x="292" y="130"/>
      <point x="332" y="91"/>
      <point x="393" y="91" type="curve" smooth="yes"/>
      <point x="447" y="91"/>
      <point x="503" y="115"/>
      <point x="526" y="190" type="curve" smooth="yes"/>
      <point x="592" y="404" type="line" smooth="yes"/>
      <point x="596" y="416"/>
      <point x="600" y="419"/>
      <point x="604" y="419" type="curve" smooth="yes"/>
      <point x="608" y="419"/>
      <point x="611" y="417"/>
      <point x="611" y="411" type="curve" smooth="yes"/>
      <point x="611" y="409"/>
      <point x="610" y="399"/>
      <point x="608" y="387" type="curve" smooth="yes"/>
      <point x="565" y="0" type="line"/>
      <point x="722" y="0" type="line"/>
      <point x="768" y="444" type="line" smooth="yes"/>
      <point x="769" y="451"/>
      <point x="770" y="459"/>
      <point x="770" y="467" type="curve" smooth="yes"/>
      <point x="769" y="549"/>
      <point x="711" y="572"/>
      <point x="647" y="572" type="curve" smooth="yes"/>
      <point x="576" y="572"/>
      <point x="509" y="550"/>
      <point x="483" y="443" type="curve" smooth="yes"/>
      <point x="437" y="275" type="line" smooth="yes"/>
      <point x="432" y="258"/>
      <point x="428" y="254"/>
      <point x="422" y="254" type="curve" smooth="yes"/>
      <point x="413" y="254"/>
      <point x="410" y="258"/>
      <point x="411" y="278" type="curve" smooth="yes"/>
      <point x="416" y="443" type="line" smooth="yes"/>
      <point x="421" y="524"/>
      <point x="379" y="573"/>
      <point x="288" y="573" type="curve" smooth="yes"/>
      <point x="217" y="573"/>
      <point x="152" y="544"/>
      <point x="131" y="442" type="curve" smooth="yes"/>
    </contour>
    <contour>
      <point x="473" y="650" type="move" name="top"/>
    </contour>
    <contour>
      <point x="350" y="-150" type="move" name="bottom"/>
    </contour>
  </outline>
</glyph>
<glyph name="M.smcp" format="1">
  <advance width="754"/>
  <note>
    GF Latin Plus glyph
  </note>
  <outline>
    <contour>
      <point x="34" y="0" type="line"/>
      <point x="196" y="0" type="line"/>
      <point x="276" y="280" type="line"/>
      <point x="302" y="0" type="line"/>
      <point x="456" y="0" type="line"/>
      <point x="574" y="286" type="line"/>
      <point x="564" y="0" type="line"/>
      <point x="722" y="0" type="line"/>
      <point x="740" y="560" type="line"/>
      <point x="588" y="560" type="line"/>
      <point x="409" y="175" type="line"/>
      <point x="351" y="560" type="line"/>
      <point x="198" y="560" type="line"/>
    </contour>
    <contour>
      <point x="470" y="650" type="move" name="top"/>
    </contour>
    <contour>
      <point x="348" y="-150" type="move" name="bottom"/>
    </contour>
  </outline>
</glyph>
<glyph name="N.salt.smcp" format="1">
  <advance width="690"/>
  <outline>
    <contour>
      <point x="53" y="0" type="line"/>
      <point x="217" y="0" type="line"/>
      <point x="278" y="386" type="line" smooth="yes"/>
      <point x="280" y="401"/>
      <point x="286" y="405"/>
      <point x="292" y="405" type="curve" smooth="yes"/>
      <point x="298" y="405"/>
      <point x="302" y="402"/>
      <point x="303" y="389" type="curve" smooth="yes"/>
      <point x="340" y="121" type="line" smooth="yes"/>
      <point x="350" y="38"/>
      <point x="394" y="-5"/>
      <point x="477" y="-5" type="curve" smooth="yes"/>
      <point x="571" y="-5"/>
      <point x="640" y="29"/>
      <point x="657" y="136" type="curve" smooth="yes"/>
      <point x="725" y="560" type="line"/>
      <point x="561" y="560" type="line"/>
      <point x="497" y="161" type="line" smooth="yes"/>
      <point x="496" y="152"/>
      <point x="491" y="150"/>
      <point x="487" y="150" type="curve" smooth="yes"/>
      <point x="481" y="150"/>
      <point x="478" y="152"/>
      <point x="476" y="163" type="curve" smooth="yes"/>
      <point x="439" y="434" type="line" smooth="yes"/>
      <point x="430" y="508"/>
      <point x="393" y="564"/>
      <point x="298" y="564" type="curve" smooth="yes"/>
      <point x="204" y="564"/>
      <point x="136" y="528"/>
      <point x="119" y="416" type="curve" smooth="yes"/>
    </contour>
    <contour>
      <point x="478" y="641" type="move" name="top"/>
    </contour>
    <contour>
      <point x="333" y="-150" type="move" name="bottom"/>
    </contour>
  </outline>
</glyph>
<glyph name="O.smcp" format="1">
  <advance width="587"/>
  <note>
    GF Latin Plus glyph
  </note>
  <outline>
    <contour>
      <point x="240" y="189" type="curve" smooth="yes"/>
      <point x="240" y="209"/>
      <point x="243" y="246"/>
      <point x="249" y="281" type="curve" smooth="yes"/>
      <point x="266" y="394"/>
      <point x="290" y="426"/>
      <point x="361" y="426" type="curve" smooth="yes"/>
      <point x="414" y="426"/>
      <point x="435" y="412"/>
      <point x="435" y="367" type="curve" smooth="yes"/>
      <point x="435" y="347"/>
      <point x="432" y="308"/>
      <point x="425" y="272" type="curve" smooth="yes"/>
      <point x="412" y="184"/>
      <point x="391" y="135"/>
      <point x="314" y="135" type="curve" smooth="yes"/>
      <point x="259" y="135"/>
      <point x="240" y="148"/>
    </contour>
    <contour>
      <point x="75" y="182" type="curve" smooth="yes"/>
      <point x="75" y="32"/>
      <point x="167" y="-5"/>
      <point x="292" y="-5" type="curve" smooth="yes"/>
      <point x="476" y="-5"/>
      <point x="556" y="42"/>
      <point x="589" y="252" type="curve" smooth="yes"/>
      <point x="596" y="293"/>
      <point x="600" y="338"/>
      <point x="600" y="368" type="curve" smooth="yes"/>
      <point x="599" y="527"/>
      <point x="503" y="565"/>
      <point x="382" y="565" type="curve" smooth="yes"/>
      <point x="200" y="565"/>
      <point x="118" y="502"/>
      <point x="86" y="301" type="curve" smooth="yes"/>
      <point x="79" y="262"/>
      <point x="75" y="216"/>
    </contour>
    <contour>
      <point x="394" y="650" type="move" name="top"/>
    </contour>
    <contour>
      <point x="358" y="0" type="move" name="ogonek"/>
    </contour>
    <contour>
      <point x="272" y="-149" type="move" name="bottom"/>
    </contour>
  </outline>
</glyph>
<glyph name="Ohorn.smcp" format="1">
  <advance width="587"/>
  <outline>
    <component base="O.smcp"/>
    <component base="horncomb" xOffset="609" yOffset="22"/>
    <contour>
      <point x="394" y="650" type="move" name="top"/>
    </contour>
    <contour>
      <point x="272" y="-149" type="move" name="bottom"/>
    </contour>
  </outline>
</glyph>
<glyph name="P.smcp" format="1">
  <advance width="517"/>
  <note>
    GF Latin Plus glyph
  </note>
  <outline>
    <contour>
      <point x="264" y="288" type="line"/>
      <point x="286" y="421" type="line"/>
      <point x="359" y="421" type="line" smooth="yes"/>
      <point x="383" y="421"/>
      <point x="394" y="410"/>
      <point x="395" y="384" type="curve" smooth="yes"/>
      <point x="395" y="373"/>
      <point x="394" y="360"/>
      <point x="391" y="342" type="curve" smooth="yes"/>
      <point x="386" y="310"/>
      <point x="373" y="288"/>
      <point x="340" y="288" type="curve" smooth="yes"/>
    </contour>
    <contour>
      <point x="54" y="0" type="line"/>
      <point x="218" y="0" type="line"/>
      <point x="245" y="166" type="line"/>
      <point x="265" y="158"/>
      <point x="316" y="148"/>
      <point x="365" y="148" type="curve" smooth="yes"/>
      <point x="448" y="148"/>
      <point x="533" y="196"/>
      <point x="552" y="310" type="curve" smooth="yes"/>
      <point x="558" y="348"/>
      <point x="562" y="376"/>
      <point x="562" y="402" type="curve" smooth="yes"/>
      <point x="562" y="529"/>
      <point x="485" y="560"/>
      <point x="390" y="560" type="curve" smooth="yes"/>
      <point x="143" y="560" type="line"/>
    </contour>
    <contour>
      <point x="349" y="650" type="move" name="top"/>
    </contour>
  </outline>
</glyph>
<glyph name="Q.smcp" format="1">
  <advance width="587"/>
  <note>
    GF Latin Plus glyph
  </note>
  <outline>
    <contour>
      <point x="249" y="-31" type="line"/>
      <point x="249" y="-125"/>
      <point x="322" y="-162"/>
      <point x="414" y="-162" type="curve" smooth="yes"/>
      <point x="435" y="-162"/>
      <point x="450" y="-162"/>
      <point x="464" y="-160" type="curve"/>
      <point x="482" y="-49" type="line"/>
      <point x="460" y="-52"/>
      <point x="434" y="-56"/>
      <point x="412" y="-56" type="curve" smooth="yes"/>
      <point x="378" y="-56"/>
      <point x="363" y="-49"/>
      <point x="362" y="-31" type="curve"/>
    </contour>
    <component base="O.smcp"/>
  </outline>
</glyph>
<glyph name="R.smcp" format="1">
  <advance width="540"/>
  <note>
    GF Latin Plus glyph
  </note>
  <outline>
    <contour>
      <point x="268" y="312" type="line"/>
      <point x="286" y="421" type="line"/>
      <point x="343" y="421" type="line" smooth="yes"/>
      <point x="371" y="421"/>
      <point x="387" y="412"/>
      <point x="387" y="390" type="curve" smooth="yes"/>
      <point x="387" y="384"/>
      <point x="386" y="373"/>
      <point x="384" y="358" type="curve" smooth="yes"/>
      <point x="379" y="325"/>
      <point x="364" y="312"/>
      <point x="324" y="312" type="curve" smooth="yes"/>
    </contour>
    <contour>
      <point x="54" y="0" type="line"/>
      <point x="218" y="0" type="line"/>
      <point x="248" y="189" type="line"/>
      <point x="264" y="189"/>
      <point x="282" y="188"/>
      <point x="299" y="189" type="curve"/>
      <point x="349" y="0" type="line"/>
      <point x="515" y="0" type="line"/>
      <point x="448" y="215" type="line"/>
      <point x="480" y="232"/>
      <point x="537" y="263"/>
      <point x="551" y="362" type="curve" smooth="yes"/>
      <point x="554" y="380"/>
      <point x="555" y="397"/>
      <point x="555" y="412" type="curve" smooth="yes"/>
      <point x="555" y="514"/>
      <point x="495" y="560"/>
      <point x="378" y="560" type="curve" smooth="yes"/>
      <point x="143" y="560" type="line"/>
    </contour>
    <contour>
      <point x="358" y="650" type="move" name="top"/>
    </contour>
    <contour>
      <point x="233" y="-150" type="move" name="bottom"/>
    </contour>
  </outline>
</glyph>
<glyph name="S.smcp" format="1">
  <advance width="485"/>
  <note>
    GF Latin Plus glyph
  </note>
  <outline>
    <contour>
      <point x="55" y="18" type="line"/>
      <point x="96" y="8"/>
      <point x="162" y="-5"/>
      <point x="259" y="-5" type="curve" smooth="yes"/>
      <point x="421" y="-5"/>
      <point x="470" y="47"/>
      <point x="484" y="136" type="curve" smooth="yes"/>
      <point x="494" y="200"/>
      <point x="494" y="209"/>
      <point x="494" y="218" type="curve" smooth="yes"/>
      <point x="494" y="297"/>
      <point x="460" y="350"/>
      <point x="324" y="350" type="curve" smooth="yes"/>
      <point x="293" y="350" type="line" smooth="yes"/>
      <point x="266" y="350"/>
      <point x="255" y="360"/>
      <point x="255" y="376" type="curve" smooth="yes"/>
      <point x="255" y="382"/>
      <point x="256" y="386"/>
      <point x="259" y="399" type="curve" smooth="yes"/>
      <point x="264" y="420"/>
      <point x="276" y="426"/>
      <point x="313" y="426" type="curve" smooth="yes"/>
      <point x="367" y="426"/>
      <point x="441" y="424"/>
      <point x="500" y="419" type="curve"/>
      <point x="519" y="542" type="line"/>
      <point x="451" y="559"/>
      <point x="393" y="565"/>
      <point x="332" y="565" type="curve" smooth="yes"/>
      <point x="204" y="565"/>
      <point x="122" y="522"/>
      <point x="104" y="414" type="curve" smooth="yes"/>
      <point x="97" y="360"/>
      <point x="96" y="350"/>
      <point x="96" y="339" type="curve" smooth="yes"/>
      <point x="96" y="261"/>
      <point x="155" y="204"/>
      <point x="254" y="204" type="curve" smooth="yes"/>
      <point x="281" y="204" type="line" smooth="yes"/>
      <point x="319" y="204"/>
      <point x="335" y="198"/>
      <point x="336" y="182" type="curve" smooth="yes"/>
      <point x="336" y="180"/>
      <point x="334" y="173"/>
      <point x="332" y="159" type="curve" smooth="yes"/>
      <point x="328" y="142"/>
      <point x="315" y="134"/>
      <point x="254" y="134" type="curve" smooth="yes"/>
      <point x="192" y="134"/>
      <point x="124" y="137"/>
      <point x="74" y="141" type="curve"/>
    </contour>
    <contour>
      <point x="341" y="650" type="move" name="top"/>
    </contour>
    <contour>
      <point x="219" y="-150" type="move" name="bottom"/>
    </contour>
  </outline>
</glyph>
<glyph name="Schwa.smcp" format="1">
  <advance width="541"/>
  <note>
    GF Latin Plus glyph
  </note>
  <outline>
    <contour>
      <point x="265" y="-5" type="curve" smooth="yes"/>
      <point x="399" y="-5"/>
      <point x="511" y="44"/>
      <point x="548" y="279" type="curve" smooth="yes"/>
      <point x="552" y="314"/>
      <point x="555" y="344"/>
      <point x="555" y="372" type="curve" smooth="yes"/>
      <point x="553" y="525"/>
      <point x="459" y="565"/>
      <point x="332" y="565" type="curve" smooth="yes"/>
      <point x="251" y="565"/>
      <point x="192" y="553"/>
      <point x="154" y="540" type="curve"/>
      <point x="135" y="420" type="line"/>
      <point x="161" y="423"/>
      <point x="203" y="427"/>
      <point x="287" y="427" type="curve" smooth="yes"/>
      <point x="346" y="427"/>
      <point x="393" y="414"/>
      <point x="393" y="361" type="curve" smooth="yes"/>
      <point x="393" y="357"/>
      <point x="392" y="345"/>
      <point x="391" y="339" type="curve"/>
      <point x="91" y="339" type="line"/>
      <point x="82" y="280" type="line" smooth="yes"/>
      <point x="73" y="226"/>
      <point x="71" y="196"/>
      <point x="71" y="175" type="curve" smooth="yes"/>
      <point x="72" y="46"/>
      <point x="150" y="-5"/>
    </contour>
    <contour>
      <point x="285" y="134" type="curve" smooth="yes"/>
      <point x="246" y="134"/>
      <point x="235" y="157"/>
      <point x="235" y="189" type="curve" smooth="yes"/>
      <point x="235" y="198"/>
      <point x="235" y="206"/>
      <point x="237" y="215" type="curve"/>
      <point x="370" y="215" type="line"/>
      <point x="354" y="151"/>
      <point x="320" y="134"/>
    </contour>
  </outline>
</glyph>
<glyph name="Thorn.smcp" format="1">
  <advance width="491"/>
  <note>
    GF Latin Plus glyph
  </note>
  <outline>
    <contour>
      <point x="308" y="560" type="line"/>
      <point x="143" y="560" type="line"/>
      <point x="54" y="0" type="line"/>
      <point x="218" y="0" type="line"/>
    </contour>
    <contour>
      <point x="227" y="336" type="line"/>
      <point x="314" y="336" type="line" smooth="yes"/>
      <point x="343" y="336"/>
      <point x="358" y="327"/>
      <point x="358" y="304" type="curve" smooth="yes"/>
      <point x="358" y="300"/>
      <point x="356" y="287"/>
      <point x="354" y="274" type="curve" smooth="yes"/>
      <point x="351" y="252"/>
      <point x="334" y="229"/>
      <point x="302" y="229" type="curve" smooth="yes"/>
      <point x="220" y="229" type="line"/>
      <point x="201" y="112" type="line"/>
      <point x="232" y="102"/>
      <point x="279" y="90"/>
      <point x="327" y="90" type="curve" smooth="yes"/>
      <point x="410" y="90"/>
      <point x="498" y="134"/>
      <point x="517" y="257" type="curve" smooth="yes"/>
      <point x="520" y="276"/>
      <point x="525" y="304"/>
      <point x="525" y="319" type="curve" smooth="yes"/>
      <point x="523" y="441"/>
      <point x="444" y="474"/>
      <point x="344" y="474" type="curve" smooth="yes"/>
      <point x="249" y="474" type="line"/>
    </contour>
  </outline>
</glyph>
<glyph name="U.smcp" format="1">
  <advance width="581"/>
  <note>
    GF Latin Plus glyph
  </note>
  <outline>
    <contour>
      <point x="96" y="265" type="line" smooth="yes"/>
      <point x="91" y="232"/>
      <point x="86" y="200"/>
      <point x="87" y="174" type="curve" smooth="yes"/>
      <point x="88" y="50"/>
      <point x="157" y="-5"/>
      <point x="292" y="-5" type="curve" smooth="yes"/>
      <point x="446" y="-5"/>
      <point x="531" y="30"/>
      <point x="561" y="217" type="curve" smooth="yes"/>
      <point x="616" y="560" type="line"/>
      <point x="452" y="560" type="line"/>
      <point x="401" y="241" type="line" smooth="yes"/>
      <point x="388" y="158"/>
      <point x="366" y="134"/>
      <point x="311" y="134" type="curve" smooth="yes"/>
      <point x="266" y="134"/>
      <point x="251" y="154"/>
      <point x="251" y="188" type="curve" smooth="yes"/>
      <point x="251" y="202"/>
      <point x="254" y="221"/>
      <point x="257" y="241" type="curve" smooth="yes"/>
      <point x="307" y="560" type="line"/>
      <point x="143" y="560" type="line"/>
    </contour>
    <contour>
      <point x="388" y="650" type="move" name="top"/>
    </contour>
    <contour>
      <point x="364" y="0" type="move" name="ogonek"/>
    </contour>
    <contour>
      <point x="261" y="-150" type="move" name="bottom"/>
    </contour>
  </outline>
</glyph>
<glyph name="V.smcp" format="1">
  <advance width="593"/>
  <note>
    GF Latin Plus glyph
  </note>
  <outline>
    <contour>
      <point x="111" y="560" type="line"/>
      <point x="195" y="0" type="line"/>
      <point x="399" y="0" type="line"/>
      <point x="660" y="560" type="line"/>
      <point x="492" y="560" type="line"/>
      <point x="324" y="168" type="line"/>
      <point x="280" y="560" type="line"/>
    </contour>
  </outline>
</glyph>
<glyph name="X.salt" format="1">
  <advance width="708"/>
  <outline>
    <contour>
      <point x="11" y="0" type="line"/>
      <point x="198" y="0" type="line"/>
      <point x="353" y="247" type="line" smooth="yes"/>
      <point x="386" y="297"/>
      <point x="404" y="363"/>
      <point x="404" y="420" type="curve" smooth="yes"/>
      <point x="404" y="449"/>
      <point x="400" y="475"/>
      <point x="392" y="498" type="curve" smooth="yes"/>
      <point x="307" y="742" type="line"/>
      <point x="128" y="742" type="line"/>
      <point x="215" y="459" type="line" smooth="yes"/>
      <point x="222" y="437"/>
      <point x="226" y="416"/>
      <point x="226" y="397" type="curve" smooth="yes"/>
      <point x="226" y="360"/>
      <point x="213" y="324"/>
      <point x="189" y="285" type="curve" smooth="yes"/>
    </contour>
    <contour>
      <point x="511" y="0" type="line"/>
      <point x="698" y="0" type="line"/>
      <point x="610" y="285" type="line" smooth="yes"/>
      <point x="604" y="306"/>
      <point x="600" y="326"/>
      <point x="600" y="345" type="curve" smooth="yes"/>
      <point x="600" y="382"/>
      <point x="614" y="419"/>
      <point x="639" y="459" type="curve" smooth="yes"/>
      <point x="815" y="742" type="line"/>
      <point x="637" y="742" type="line"/>
      <point x="475" y="498" type="line" smooth="yes"/>
      <point x="442" y="449"/>
      <point x="422" y="383"/>
      <point x="422" y="322" type="curve" smooth="yes"/>
      <point x="422" y="296"/>
      <point x="426" y="270"/>
      <point x="434" y="247" type="curve" smooth="yes"/>
    </contour>
    <contour>
      <point x="482" y="810" type="move" name="top"/>
    </contour>
    <contour>
      <point x="330" y="-150" type="move" name="bottom"/>
    </contour>
  </outline>
</glyph>
<glyph name="X.salt.smcp" format="1">
  <advance width="610"/>
  <outline>
    <contour>
      <point x="14" y="0" type="line"/>
      <point x="191" y="0" type="line"/>
      <point x="306" y="185" type="line" smooth="yes"/>
      <point x="330" y="224"/>
      <point x="343" y="275"/>
      <point x="343" y="322" type="curve" smooth="yes"/>
      <point x="343" y="342"/>
      <point x="341" y="360"/>
      <point x="328" y="397" type="curve" smooth="yes"/>
      <point x="271" y="560" type="line"/>
      <point x="102" y="560" type="line"/>
      <point x="167" y="345" type="line" smooth="yes"/>
      <point x="172" y="330"/>
      <point x="174" y="314"/>
      <point x="174" y="301" type="curve" smooth="yes"/>
      <point x="174" y="271"/>
      <point x="167" y="248"/>
      <point x="148" y="218" type="curve" smooth="yes"/>
    </contour>
    <contour>
      <point x="418" y="0" type="line"/>
      <point x="596" y="0" type="line"/>
      <point x="531" y="218" type="line" smooth="yes"/>
      <point x="527" y="233"/>
      <point x="524" y="248"/>
      <point x="524" y="261" type="curve" smooth="yes"/>
      <point x="524" y="290"/>
      <point x="532" y="313"/>
      <point x="550" y="342" type="curve" smooth="yes"/>
      <point x="685" y="560" type="line"/>
      <point x="516" y="560" type="line"/>
      <point x="400" y="388" type="line" smooth="yes"/>
      <point x="367" y="338"/>
      <point x="355" y="288"/>
      <point x="355" y="240" type="curve" smooth="yes"/>
      <point x="355" y="221"/>
      <point x="358" y="201"/>
      <point x="363" y="185" type="curve" smooth="yes"/>
    </contour>
    <contour>
      <point x="410" y="650" type="move" name="top"/>
    </contour>
    <contour>
      <point x="278" y="-150" type="move" name="bottom"/>
    </contour>
  </outline>
</glyph>
<glyph name="Y.smcp" format="1">
  <advance width="555"/>
  <note>
    GF Latin Plus glyph
  </note>
  <outline>
    <contour>
      <point x="108" y="560" type="line"/>
      <point x="214" y="147" type="line"/>
      <point x="191" y="0" type="line"/>
      <point x="355" y="0" type="line"/>
      <point x="378" y="147" type="line"/>
      <point x="624" y="560" type="line"/>
      <point x="440" y="560" type="line"/>
      <point x="322" y="314" type="line"/>
      <point x="286" y="560" type="line"/>
    </contour>
    <contour>
      <point x="380" y="650" type="move" name="top"/>
    </contour>
    <contour>
      <point x="249" y="-150" type="move" name="bottom"/>
    </contour>
  </outline>
</glyph>
<glyph name="a.salt" format="1">
  <advance width="573"/>
  <outline>
    <contour>
      <point x="249" y="284" type="curve" smooth="yes"/>
      <point x="262" y="360"/>
      <point x="293" y="406"/>
      <point x="359" y="406" type="curve" smooth="yes"/>
      <point x="385" y="406"/>
      <point x="408" y="398"/>
      <point x="415" y="395" type="curve"/>
      <point x="376" y="143" type="line"/>
      <point x="358" y="137"/>
      <point x="330" y="132"/>
      <point x="296" y="132" type="curve" smooth="yes"/>
      <point x="256" y="132"/>
      <point x="241" y="169"/>
      <point x="241" y="212" type="curve" smooth="yes"/>
      <point x="241" y="227"/>
      <point x="244" y="255"/>
    </contour>
    <contour>
      <point x="80" y="295" type="curve" smooth="yes"/>
      <point x="76" y="268"/>
      <point x="68" y="220"/>
      <point x="68" y="181" type="curve" smooth="yes"/>
      <point x="68" y="50"/>
      <point x="134" y="-6"/>
      <point x="262" y="-6" type="curve" smooth="yes"/>
      <point x="351" y="-6"/>
      <point x="455" y="10"/>
      <point x="532" y="33" type="curve"/>
      <point x="602" y="479" type="line"/>
      <point x="554" y="516"/>
      <point x="464" y="544"/>
      <point x="367" y="544" type="curve" smooth="yes"/>
      <point x="193" y="544"/>
      <point x="106" y="461"/>
    </contour>
    <contour>
      <point x="377" y="650" type="move" name="top"/>
    </contour>
    <contour>
      <point x="353" y="0" type="move" name="ogonek"/>
    </contour>
    <contour>
      <point x="250" y="-150" type="move" name="bottom"/>
    </contour>
  </outline>
</glyph>
<glyph name="a.superior" format="1">
  <advance width="426"/>
  <note>
    GF Latin Plus glyph
  </note>
  <outline>
    <contour>
      <point x="242" y="490" type="curve" smooth="yes"/>
      <point x="251" y="529"/>
      <point x="267" y="558"/>
      <point x="308" y="558" type="curve" smooth="yes"/>
      <point x="321" y="558"/>
      <point x="333" y="556"/>
      <point x="339" y="555" type="curve"/>
      <point x="316" y="413" type="line"/>
      <point x="306" y="404"/>
      <point x="289" y="394"/>
      <point x="268" y="394" type="curve" smooth="yes"/>
      <point x="242" y="394"/>
      <point x="235" y="416"/>
      <point x="235" y="437" type="curve" smooth="yes"/>
      <point x="235" y="450"/>
      <point x="238" y="470"/>
    </contour>
    <contour>
      <point x="101" y="498" type="curve" smooth="yes"/>
      <point x="98" y="479"/>
      <point x="92" y="443"/>
      <point x="92" y="413" type="curve" smooth="yes"/>
      <point x="92" y="317"/>
      <point x="140" y="276"/>
      <point x="195" y="276" type="curve" smooth="yes"/>
      <point x="237" y="276"/>
      <point x="282" y="298"/>
      <point x="302" y="318" type="curve"/>
      <point x="311" y="280" type="line"/>
      <point x="439" y="280" type="line"/>
      <point x="494" y="628" type="line"/>
      <point x="458" y="654"/>
      <point x="391" y="676"/>
      <point x="315" y="676" type="curve" smooth="yes"/>
      <point x="185" y="676"/>
      <point x="119" y="616"/>
    </contour>
    <contour>
      <point x="324" y="752" type="move" name="top"/>
    </contour>
    <contour>
      <point x="431" y="280" type="move" name="ogonek"/>
    </contour>
    <contour>
      <point x="233" y="171" type="move" name="bottom"/>
    </contour>
  </outline>
</glyph>
<glyph name="ampersand.salt" format="1">
  <advance width="995"/>
  <outline>
    <contour>
      <point x="464" y="293" type="line"/>
      <point x="472" y="341"/>
      <point x="486" y="345"/>
      <point x="509" y="345" type="curve" smooth="yes"/>
      <point x="538" y="345" type="line" smooth="yes"/>
      <point x="555" y="345"/>
      <point x="565" y="342"/>
      <point x="562" y="321" type="curve" smooth="yes"/>
      <point x="558" y="298"/>
      <point x="549" y="293"/>
      <point x="529" y="293" type="curve" smooth="yes"/>
    </contour>
    <contour>
      <point x="253" y="347" type="curve" smooth="yes"/>
      <point x="265" y="423" type="line" smooth="yes"/>
      <point x="275" y="485"/>
      <point x="286" y="510"/>
      <point x="387" y="510" type="curve"/>
      <point x="804" y="510" type="line"/>
      <point x="762" y="240" type="line" smooth="yes"/>
      <point x="751" y="171"/>
      <point x="725" y="133"/>
      <point x="639" y="133" type="curve" smooth="yes"/>
      <point x="484" y="133" type="line" smooth="yes"/>
      <point x="448" y="133"/>
      <point x="442" y="149"/>
      <point x="446" y="176" type="curve"/>
      <point x="513" y="176" type="line" smooth="yes"/>
      <point x="616" y="176"/>
      <point x="712" y="173"/>
      <point x="732" y="301" type="curve" smooth="yes"/>
      <point x="752" y="429"/>
      <point x="668" y="462"/>
      <point x="560" y="462" type="curve" smooth="yes"/>
      <point x="518" y="462" type="line" smooth="yes"/>
      <point x="394" y="462"/>
      <point x="312" y="419"/>
      <point x="291" y="295" type="curve"/>
      <point x="257" y="295"/>
      <point x="246" y="307"/>
    </contour>
    <contour>
      <point x="81" y="357" type="line" smooth="yes"/>
      <point x="62" y="214"/>
      <point x="150" y="170"/>
      <point x="272" y="170" type="curve"/>
      <point x="252" y="48"/>
      <point x="354" y="-1"/>
      <point x="459" y="-2" type="curve" smooth="yes"/>
      <point x="619" y="-2" type="line" smooth="yes"/>
      <point x="766" y="-2"/>
      <point x="902" y="15"/>
      <point x="934" y="211" type="curve" smooth="yes"/>
      <point x="978" y="511" type="line"/>
      <point x="1065" y="528" type="line"/>
      <point x="1083" y="643" type="line"/>
      <point x="998" y="643" type="line"/>
      <point x="1016" y="755" type="line"/>
      <point x="860" y="755" type="line"/>
      <point x="825" y="645" type="line"/>
      <point x="400" y="645" type="line" smooth="yes"/>
      <point x="218" y="643"/>
      <point x="117" y="624"/>
      <point x="92" y="441" type="curve" smooth="yes"/>
    </contour>
  </outline>
</glyph>
<glyph name="ampersand.smcp" format="1">
  <advance width="598"/>
  <note>
    GF Latin Plus glyph
  </note>
  <outline>
    <contour>
      <point x="253" y="134" type="curve" smooth="yes"/>
      <point x="229" y="134"/>
      <point x="220" y="148"/>
      <point x="220" y="166" type="curve" smooth="yes"/>
      <point x="220" y="185"/>
      <point x="227" y="199"/>
      <point x="249" y="212" type="curve" smooth="yes"/>
      <point x="265" y="223" type="line"/>
      <point x="307" y="161" type="line"/>
      <point x="296" y="152" type="line" smooth="yes"/>
      <point x="278" y="137"/>
      <point x="266" y="134"/>
    </contour>
    <contour>
      <point x="201" y="-5" type="curve" smooth="yes"/>
      <point x="256" y="-5"/>
      <point x="296" y="8"/>
      <point x="336" y="37" type="curve" smooth="yes"/>
      <point x="372" y="63" type="line"/>
      <point x="417" y="0" type="line"/>
      <point x="584" y="0" type="line"/>
      <point x="496" y="139" type="line"/>
      <point x="539" y="174" type="line"/>
      <point x="598" y="266" type="line"/>
      <point x="550" y="337" type="line"/>
      <point x="426" y="247" type="line"/>
      <point x="370" y="340" type="line" smooth="yes"/>
      <point x="353" y="367"/>
      <point x="343" y="383"/>
      <point x="343" y="396" type="curve" smooth="yes"/>
      <point x="343" y="414"/>
      <point x="355" y="420"/>
      <point x="375" y="420" type="curve" smooth="yes"/>
      <point x="498" y="420" type="line"/>
      <point x="515" y="534" type="line"/>
      <point x="486" y="543"/>
      <point x="420" y="556"/>
      <point x="364" y="556" type="curve" smooth="yes"/>
      <point x="232" y="556"/>
      <point x="180" y="487"/>
      <point x="181" y="414" type="curve" smooth="yes"/>
      <point x="181" y="393"/>
      <point x="183" y="368"/>
      <point x="201" y="334" type="curve" smooth="yes"/>
      <point x="207" y="323" type="line"/>
      <point x="158" y="297" type="line" smooth="yes"/>
      <point x="88" y="259"/>
      <point x="56" y="209"/>
      <point x="56" y="137" type="curve" smooth="yes"/>
      <point x="57" y="49"/>
      <point x="115" y="-5"/>
    </contour>
  </outline>
</glyph>
<glyph name="asterisk.smcp" format="1">
  <advance width="354"/>
  <note>
    GF Latin Plus glyph
  </note>
  <outline>
    <contour>
      <point x="265" y="421" type="line"/>
      <point x="305" y="378" type="line"/>
      <point x="394" y="446" type="line"/>
      <point x="366" y="492" type="line"/>
    </contour>
    <contour>
      <point x="222" y="543" type="line"/>
      <point x="243" y="439" type="line"/>
      <point x="310" y="472" type="line"/>
      <point x="280" y="561" type="line"/>
    </contour>
    <contour>
      <point x="210" y="341" type="line"/>
      <point x="295" y="294" type="line"/>
      <point x="336" y="339" type="line"/>
      <point x="251" y="398" type="line"/>
    </contour>
    <contour>
      <point x="119" y="316" type="line"/>
      <point x="173" y="298" type="line"/>
      <point x="222" y="404" type="line"/>
      <point x="155" y="413" type="line"/>
    </contour>
    <contour>
      <point x="100" y="425" type="line"/>
      <point x="216" y="430" type="line"/>
      <point x="216" y="494" type="line"/>
      <point x="109" y="481" type="line"/>
    </contour>
  </outline>
</glyph>
<glyph name="at.smcp" format="1">
  <advance width="778"/>
  <note>
    GF Latin Plus glyph
  </note>
  <outline>
    <contour>
      <point x="442" y="303" type="curve" smooth="yes"/>
      <point x="454" y="303"/>
      <point x="468" y="301"/>
      <point x="481" y="296" type="curve"/>
      <point x="459" y="150" type="line"/>
      <point x="444" y="135"/>
      <point x="420" y="120"/>
      <point x="392" y="120" type="curve" smooth="yes"/>
      <point x="368" y="120"/>
      <point x="354" y="138"/>
      <point x="354" y="170" type="curve" smooth="yes"/>
      <point x="353" y="245"/>
      <point x="389" y="303"/>
    </contour>
    <contour>
      <point x="50" y="47" type="line" smooth="yes"/>
      <point x="48" y="30"/>
      <point x="46" y="14"/>
      <point x="46" y="-2" type="curve" smooth="yes"/>
      <point x="47" y="-80"/>
      <point x="86" y="-151"/>
      <point x="232" y="-151" type="curve" smooth="yes"/>
      <point x="302" y="-151" type="line" smooth="yes"/>
      <point x="402" y="-151"/>
      <point x="495" y="-138"/>
      <point x="535" y="-130" type="curve"/>
      <point x="548" y="-44" type="line"/>
      <point x="240" y="-44" type="line" smooth="yes"/>
      <point x="185" y="-44"/>
      <point x="172" y="-18"/>
      <point x="171" y="7" type="curve" smooth="yes"/>
      <point x="171" y="16"/>
      <point x="172" y="28"/>
      <point x="175" y="46" type="curve" smooth="yes"/>
      <point x="225" y="360" type="line" smooth="yes"/>
      <point x="232" y="401"/>
      <point x="244" y="451"/>
      <point x="318" y="451" type="curve" smooth="yes"/>
      <point x="589" y="451" type="line" smooth="yes"/>
      <point x="635" y="451"/>
      <point x="670" y="432"/>
      <point x="670" y="392" type="curve" smooth="yes"/>
      <point x="670" y="382"/>
      <point x="668" y="372"/>
      <point x="666" y="360" type="curve" smooth="yes"/>
      <point x="638" y="174" type="line" smooth="yes"/>
      <point x="630" y="122"/>
      <point x="614" y="110"/>
      <point x="576" y="110" type="curve"/>
      <point x="616" y="359" type="line"/>
      <point x="575" y="390"/>
      <point x="528" y="411"/>
      <point x="454" y="411" type="curve" smooth="yes"/>
      <point x="328" y="411"/>
      <point x="230" y="312"/>
      <point x="231" y="144" type="curve" smooth="yes"/>
      <point x="232" y="50"/>
      <point x="278" y="4"/>
      <point x="346" y="4" type="curve" smooth="yes"/>
      <point x="402" y="4"/>
      <point x="437" y="42"/>
      <point x="448" y="57" type="curve"/>
      <point x="475" y="9" type="line"/>
      <point x="571" y="9" type="line" smooth="yes"/>
      <point x="676" y="9"/>
      <point x="745" y="46"/>
      <point x="761" y="151" type="curve" smooth="yes"/>
      <point x="789" y="344" type="line" smooth="yes"/>
      <point x="792" y="365"/>
      <point x="794" y="386"/>
      <point x="794" y="406" type="curve" smooth="yes"/>
      <point x="793" y="493"/>
      <point x="738" y="559"/>
      <point x="625" y="559" type="curve" smooth="yes"/>
      <point x="344" y="559" type="line" smooth="yes"/>
      <point x="219" y="559"/>
      <point x="128" y="538"/>
      <point x="105" y="392" type="curve" smooth="yes"/>
    </contour>
  </outline>
</glyph>
<glyph name="braceright.smcp" format="1">
  <advance width="282"/>
  <note>
    GF Latin Plus glyph
  </note>
  <outline>
    <contour>
      <point x="12" y="-44" type="curve"/>
      <point x="-6" y="-158" type="line"/>
      <point x="136" y="-158"/>
      <point x="194" y="-141"/>
      <point x="212" y="-29" type="curve" smooth="yes"/>
      <point x="236" y="126" type="line" smooth="yes"/>
      <point x="241" y="154"/>
      <point x="258" y="166"/>
      <point x="287" y="166" type="curve"/>
      <point x="310" y="306" type="line"/>
      <point x="287" y="309"/>
      <point x="268" y="316"/>
      <point x="268" y="338" type="curve" smooth="yes"/>
      <point x="268" y="353"/>
      <point x="295" y="512"/>
      <point x="295" y="521" type="curve" smooth="yes"/>
      <point x="295" y="595"/>
      <point x="237" y="634"/>
      <point x="119" y="634" type="curve"/>
      <point x="100" y="511" type="line"/>
      <point x="119" y="511"/>
      <point x="125" y="507"/>
      <point x="126" y="486" type="curve" smooth="yes"/>
      <point x="126" y="473"/>
      <point x="99" y="321"/>
      <point x="100" y="297" type="curve" smooth="yes"/>
      <point x="100" y="255"/>
      <point x="128" y="240"/>
      <point x="174" y="236" type="curve"/>
      <point x="119" y="226"/>
      <point x="84" y="202"/>
      <point x="77" y="158" type="curve" smooth="yes"/>
      <point x="51" y="-1" type="line" smooth="yes"/>
      <point x="48" y="-19"/>
      <point x="47" y="-44"/>
    </contour>
  </outline>
</glyph>
<glyph name="bracketright.smcp" format="1">
  <advance width="300"/>
  <note>
    GF Latin Plus glyph
  </note>
  <outline>
    <contour>
      <point x="14" y="-35" type="line"/>
      <point x="-5" y="-158" type="line"/>
      <point x="69" y="-158" type="line" smooth="yes"/>
      <point x="207" y="-158"/>
      <point x="243" y="-64"/>
      <point x="256" y="11" type="curve" smooth="yes"/>
      <point x="329" y="480" type="line" smooth="yes"/>
      <point x="332" y="496"/>
      <point x="333" y="510"/>
      <point x="333" y="523" type="curve" smooth="yes"/>
      <point x="332" y="598"/>
      <point x="290" y="634"/>
      <point x="194" y="634" type="curve" smooth="yes"/>
      <point x="120" y="634" type="line"/>
      <point x="100" y="511" type="line"/>
      <point x="124" y="511" type="line" smooth="yes"/>
      <point x="148" y="511"/>
      <point x="163" y="502"/>
      <point x="163" y="475" type="curve" smooth="yes"/>
      <point x="164" y="469"/>
      <point x="163" y="464"/>
      <point x="162" y="456" type="curve" smooth="yes"/>
      <point x="92" y="19" type="line" smooth="yes"/>
      <point x="86" y="-24"/>
      <point x="65" y="-35"/>
      <point x="37" y="-35" type="curve" smooth="yes"/>
    </contour>
  </outline>
</glyph>
<glyph name="brevebelowcomb" format="1">
  <note>
    GF Latin Plus glyph
  </note>
  <outline>
    <contour>
      <point x="-395" y="-74" type="line"/>
      <point x="-397" y="-89"/>
      <point x="-399" y="-102"/>
      <point x="-399" y="-115" type="curve" smooth="yes"/>
      <point x="-399" y="-191"/>
      <point x="-356" y="-228"/>
      <point x="-278" y="-228" type="curve" smooth="yes"/>
      <point x="-186" y="-228"/>
      <point x="-126" y="-179"/>
      <point x="-110" y="-74" type="curve"/>
      <point x="-192" y="-74" type="line"/>
      <point x="-200" y="-131"/>
      <point x="-230" y="-150"/>
      <point x="-266" y="-150" type="curve" smooth="yes"/>
      <point x="-292" y="-150"/>
      <point x="-318" y="-137"/>
      <point x="-318" y="-96" type="curve" smooth="yes"/>
      <point x="-318" y="-89"/>
      <point x="-317" y="-82"/>
      <point x="-316" y="-74" type="curve"/>
    </contour>
    <contour>
      <point x="-269" y="-150" type="move" name="_bottom"/>
    </contour>
  </outline>
</glyph>
<glyph name="brevecomb_gravecomb" format="1">
  <outline>
    <contour>
      <point x="-408" y="728" type="line"/>
      <point x="-410" y="719"/>
      <point x="-410" y="710"/>
      <point x="-410" y="701" type="curve" smooth="yes"/>
      <point x="-410" y="635"/>
      <point x="-366" y="604"/>
      <point x="-286" y="604" type="curve" smooth="yes"/>
      <point x="-193" y="604"/>
      <point x="-136" y="644"/>
      <point x="-123" y="728" type="curve"/>
      <point x="-204" y="728" type="line"/>
      <point x="-211" y="686"/>
      <point x="-241" y="673"/>
      <point x="-275" y="673" type="curve" smooth="yes"/>
      <point x="-303" y="673"/>
      <point x="-329" y="684"/>
      <point x="-329" y="716" type="curve" smooth="yes"/>
      <point x="-329" y="721"/>
      <point x="-329" y="724"/>
      <point x="-328" y="728" type="curve"/>
    </contour>
    <component base="gravecomb" xOffset="-9" yOffset="126"/>
    <contour>
      <point x="-269" y="650" type="move" name="_top"/>
    </contour>
  </outline>
</glyph>
<glyph name="brevecomb_tildecomb" format="1">
  <outline>
    <contour>
      <point x="-419" y="728" type="line"/>
      <point x="-421" y="719"/>
      <point x="-422" y="709"/>
      <point x="-422" y="700" type="curve" smooth="yes"/>
      <point x="-422" y="635"/>
      <point x="-377" y="604"/>
      <point x="-297" y="604" type="curve" smooth="yes"/>
      <point x="-205" y="604"/>
      <point x="-148" y="644"/>
      <point x="-134" y="728" type="curve"/>
      <point x="-216" y="728" type="line"/>
      <point x="-222" y="686"/>
      <point x="-252" y="673"/>
      <point x="-287" y="673" type="curve" smooth="yes"/>
      <point x="-314" y="673"/>
      <point x="-341" y="684"/>
      <point x="-341" y="716" type="curve" smooth="yes"/>
      <point x="-341" y="720"/>
      <point x="-341" y="724"/>
      <point x="-340" y="728" type="curve"/>
    </contour>
    <contour>
      <point x="-440" y="766" type="curve"/>
      <point x="-355" y="766" type="line"/>
      <point x="-351" y="778"/>
      <point x="-338" y="791"/>
      <point x="-316" y="791" type="curve" smooth="yes"/>
      <point x="-292" y="791"/>
      <point x="-252" y="768"/>
      <point x="-209" y="768" type="curve" smooth="yes"/>
      <point x="-146" y="768"/>
      <point x="-109" y="790"/>
      <point x="-88" y="878" type="curve"/>
      <point x="-173" y="878" type="line"/>
      <point x="-176" y="860"/>
      <point x="-189" y="849"/>
      <point x="-211" y="849" type="curve" smooth="yes"/>
      <point x="-240" y="849"/>
      <point x="-272" y="872"/>
      <point x="-317" y="872" type="curve" smooth="yes"/>
      <point x="-372" y="872"/>
      <point x="-418" y="856"/>
    </contour>
    <contour>
      <point x="-284" y="650" type="move" name="_top"/>
    </contour>
  </outline>
</glyph>
<glyph name="bullet.smcp" format="1">
  <advance width="266"/>
  <note>
    GF Latin Plus glyph
  </note>
  <outline>
    <contour>
      <point x="84" y="227" type="line" smooth="yes"/>
      <point x="82" y="212"/>
      <point x="90" y="203"/>
      <point x="106" y="203" type="curve" smooth="yes"/>
      <point x="227" y="203" type="line" smooth="yes"/>
      <point x="243" y="203"/>
      <point x="256" y="209"/>
      <point x="259" y="227" type="curve" smooth="yes"/>
      <point x="279" y="346" type="line" smooth="yes"/>
      <point x="282" y="363"/>
      <point x="275" y="373"/>
      <point x="255" y="373" type="curve" smooth="yes"/>
      <point x="134" y="373" type="line" smooth="yes"/>
      <point x="116" y="373"/>
      <point x="105" y="362"/>
      <point x="103" y="346" type="curve" smooth="yes"/>
    </contour>
  </outline>
</glyph>
<glyph name="c_h" format="1">
  <advance width="1047"/>
  <outline>
    <contour>
      <point x="348" y="124" type="curve" smooth="yes"/>
      <point x="273" y="124"/>
      <point x="244" y="152"/>
      <point x="244" y="218" type="curve" smooth="yes"/>
      <point x="244" y="226"/>
      <point x="245" y="242"/>
      <point x="249" y="269" type="curve" smooth="yes"/>
      <point x="265" y="361"/>
      <point x="294" y="413"/>
      <point x="372" y="413" type="curve" smooth="yes"/>
      <point x="502" y="413" type="line"/>
      <point x="519" y="512" type="line"/>
      <point x="457" y="530"/>
      <point x="392" y="544"/>
      <point x="332" y="544" type="curve" smooth="yes"/>
      <point x="205" y="544"/>
      <point x="108" y="479"/>
      <point x="81" y="297" type="curve" smooth="yes"/>
      <point x="75" y="260"/>
      <point x="72" y="224"/>
      <point x="72" y="201" type="curve" smooth="yes"/>
      <point x="72" y="45"/>
      <point x="149" y="-6"/>
      <point x="343" y="-6" type="curve" smooth="yes"/>
      <point x="517" y="-6"/>
      <point x="679" y="42"/>
      <point x="704" y="200" type="curve" smooth="yes"/>
      <point x="728" y="349" type="line"/>
      <point x="756" y="374"/>
      <point x="788" y="389"/>
      <point x="829" y="389" type="curve" smooth="yes"/>
      <point x="858" y="389"/>
      <point x="880" y="379"/>
      <point x="880" y="342" type="curve" smooth="yes"/>
      <point x="880" y="336"/>
      <point x="880" y="330"/>
      <point x="878" y="324" type="curve" smooth="yes"/>
      <point x="828" y="0" type="line"/>
      <point x="1000" y="0" type="line"/>
      <point x="1055" y="344" type="line" smooth="yes"/>
      <point x="1059" y="368"/>
      <point x="1060" y="389"/>
      <point x="1060" y="409" type="curve" smooth="yes"/>
      <point x="1060" y="506"/>
      <point x="1013" y="544"/>
      <point x="928" y="544" type="curve" smooth="yes"/>
      <point x="849" y="544"/>
      <point x="787" y="515"/>
      <point x="749" y="485" type="curve"/>
      <point x="794" y="763" type="line"/>
      <point x="621" y="763" type="line"/>
      <point x="535" y="222" type="line" smooth="yes"/>
      <point x="522" y="144"/>
      <point x="472" y="124"/>
    </contour>
  </outline>
</glyph>
<glyph name="c_t" format="1">
  <advance width="850"/>
  <outline>
    <contour>
      <point x="595" y="427" type="line"/>
      <point x="556" y="220" type="line" smooth="yes"/>
      <point x="549" y="180"/>
      <point x="546" y="148"/>
      <point x="546" y="124" type="curve" smooth="yes"/>
      <point x="546" y="39"/>
      <point x="604" y="0"/>
      <point x="718" y="0" type="curve" smooth="yes"/>
      <point x="804" y="0" type="line"/>
      <point x="825" y="128" type="line"/>
      <point x="765" y="134" type="line" smooth="yes"/>
      <point x="734" y="137"/>
      <point x="721" y="146"/>
      <point x="721" y="174" type="curve" smooth="yes"/>
      <point x="721" y="187"/>
      <point x="725" y="209"/>
      <point x="726" y="220" type="curve" smooth="yes"/>
      <point x="755" y="400" type="line"/>
      <point x="873" y="400" type="line"/>
      <point x="894" y="538" type="line"/>
      <point x="777" y="538" type="line"/>
      <point x="801" y="689" type="line"/>
      <point x="664" y="689" type="line"/>
      <point x="618" y="538" type="line"/>
    </contour>
    <contour>
      <point x="81" y="297" type="curve" smooth="yes"/>
      <point x="75" y="260"/>
      <point x="72" y="224"/>
      <point x="72" y="201" type="curve" smooth="yes"/>
      <point x="72" y="45"/>
      <point x="148" y="-6"/>
      <point x="271" y="-6" type="curve" smooth="yes"/>
      <point x="350" y="-6"/>
      <point x="403" y="8"/>
      <point x="449" y="26" type="curve"/>
      <point x="464" y="124" type="line"/>
      <point x="327" y="124" type="line" smooth="yes"/>
      <point x="272" y="124"/>
      <point x="244" y="152"/>
      <point x="244" y="218" type="curve" smooth="yes"/>
      <point x="244" y="226"/>
      <point x="245" y="242"/>
      <point x="249" y="269" type="curve" smooth="yes"/>
      <point x="265" y="361"/>
      <point x="294" y="413"/>
      <point x="372" y="413" type="curve" smooth="yes"/>
      <point x="675" y="413" type="line"/>
      <point x="710" y="543" type="line"/>
      <point x="704" y="544"/>
      <point x="366" y="544"/>
      <point x="349" y="544" type="curve" smooth="yes"/>
      <point x="222" y="544"/>
      <point x="108" y="479"/>
    </contour>
  </outline>
</glyph>
<glyph name="caroncomb" format="1">
  <note>
    GF Latin Plus glyph
  </note>
  <outline>
    <component base="caron" xOffset="-548"/>
    <contour>
      <point x="-269" y="650" type="move" name="_top"/>
    </contour>
  </outline>
</glyph>
<glyph name="cedi.smcp" format="1">
  <advance width="510"/>
  <note>
    GF Latin Plus glyph
  </note>
  <outline>
    <contour>
      <point x="337" y="-58" type="line"/>
      <point x="441" y="597" type="line"/>
      <point x="372" y="597" type="line"/>
      <point x="268" y="-58" type="line"/>
    </contour>
    <contour>
      <point x="80" y="185" type="curve" smooth="yes"/>
      <point x="81" y="54"/>
      <point x="156" y="-5"/>
      <point x="272" y="-5" type="curve" smooth="yes"/>
      <point x="368" y="-5"/>
      <point x="422" y="5"/>
      <point x="463" y="20" type="curve"/>
      <point x="481" y="132" type="line"/>
      <point x="455" y="129"/>
      <point x="408" y="126"/>
      <point x="330" y="126" type="curve" smooth="yes"/>
      <point x="254" y="126"/>
      <point x="229" y="147"/>
      <point x="228" y="205" type="curve" smooth="yes"/>
      <point x="226" y="300"/>
      <point x="270" y="427"/>
      <point x="392" y="427" type="curve" smooth="yes"/>
      <point x="426" y="427"/>
      <point x="488" y="425"/>
      <point x="527" y="422" type="curve"/>
      <point x="545" y="536" type="line"/>
      <point x="517" y="543"/>
      <point x="460" y="558"/>
      <point x="368" y="558" type="curve" smooth="yes"/>
      <point x="205" y="558"/>
      <point x="78" y="413"/>
    </contour>
  </outline>
</glyph>
<glyph name="circumflexcomb_hookabovecomb" format="1">
  <outline>
    <contour>
      <point x="-325" y="744" type="line"/>
      <point x="-447" y="631" type="line"/>
      <point x="-346" y="631" type="line"/>
      <point x="-281" y="668" type="line"/>
      <point x="-230" y="631" type="line"/>
      <point x="-131" y="631" type="line"/>
      <point x="-208" y="744" type="line"/>
    </contour>
    <contour>
      <point x="-166" y="793" type="line"/>
      <point x="-156" y="796"/>
      <point x="-142" y="799"/>
      <point x="-133" y="799" type="curve" smooth="yes"/>
      <point x="-122" y="799"/>
      <point x="-117" y="795"/>
      <point x="-117" y="787" type="curve" smooth="yes"/>
      <point x="-117" y="775"/>
      <point x="-123" y="764"/>
      <point x="-146" y="754" type="curve"/>
      <point x="-157" y="687" type="line"/>
      <point x="-66" y="712"/>
      <point x="-32" y="755"/>
      <point x="-32" y="808" type="curve" smooth="yes"/>
      <point x="-32" y="849"/>
      <point x="-54" y="868"/>
      <point x="-100" y="868" type="curve" smooth="yes"/>
      <point x="-121" y="868"/>
      <point x="-139" y="864"/>
      <point x="-155" y="860" type="curve"/>
    </contour>
    <contour>
      <point x="-284" y="650" type="move" name="_top"/>
    </contour>
  </outline>
</glyph>
<glyph name="colonsign.smcp" format="1">
  <advance width="510"/>
  <note>
    GF Latin Plus glyph
  </note>
  <outline>
    <contour>
      <point x="289" y="-83" type="line"/>
      <point x="628" y="597" type="line"/>
      <point x="558" y="597" type="line"/>
      <point x="219" y="-83" type="line"/>
    </contour>
    <contour>
      <point x="177" y="-83" type="line"/>
      <point x="517" y="597" type="line"/>
      <point x="447" y="597" type="line"/>
      <point x="107" y="-83" type="line"/>
    </contour>
    <contour>
      <point x="86" y="183" type="curve" smooth="yes"/>
      <point x="87" y="45"/>
      <point x="166" y="-5"/>
      <point x="278" y="-5" type="curve" smooth="yes"/>
      <point x="361" y="-5"/>
      <point x="416" y="5"/>
      <point x="458" y="20" type="curve"/>
      <point x="482" y="124" type="line"/>
      <point x="455" y="121"/>
      <point x="409" y="118"/>
      <point x="340" y="118" type="curve" smooth="yes"/>
      <point x="280" y="118"/>
      <point x="232" y="133"/>
      <point x="231" y="224" type="curve" smooth="yes"/>
      <point x="230" y="328"/>
      <point x="291" y="442"/>
      <point x="411" y="442" type="curve" smooth="yes"/>
      <point x="448" y="442"/>
      <point x="479" y="440"/>
      <point x="504" y="438" type="curve"/>
      <point x="578" y="535" type="line"/>
      <point x="550" y="546"/>
      <point x="494" y="564"/>
      <point x="398" y="564" type="curve" smooth="yes"/>
      <point x="234" y="564"/>
      <point x="83" y="430"/>
    </contour>
  </outline>
</glyph>
<glyph name="commaaccentcomb" format="1">
  <note>
    GF Latin Plus glyph
  </note>
  <outline>
    <contour>
      <point x="-427" y="-150" type="line"/>
      <point x="-438" y="-221" type="line"/>
      <point x="-382" y="-221" type="line" smooth="yes"/>
      <point x="-290" y="-221"/>
      <point x="-256" y="-178"/>
      <point x="-240" y="-76" type="curve"/>
      <point x="-344" y="-76" type="line"/>
      <point x="-351" y="-123"/>
      <point x="-362" y="-132"/>
      <point x="-399" y="-142" type="curve" smooth="yes"/>
    </contour>
    <contour>
      <point x="-339" y="-150" type="move" name="_bottom"/>
    </contour>
  </outline>
</glyph>
<glyph name="commaturnedabovecomb" format="1">
  <note>
    GF Latin Plus glyph
  </note>
  <outline>
    <contour>
      <point x="-105" y="706" type="line"/>
      <point x="-94" y="776" type="line"/>
      <point x="-150" y="776" type="line" smooth="yes"/>
      <point x="-242" y="776"/>
      <point x="-276" y="734"/>
      <point x="-292" y="632" type="curve"/>
      <point x="-188" y="632" type="line"/>
      <point x="-181" y="678"/>
      <point x="-170" y="688"/>
      <point x="-133" y="698" type="curve" smooth="yes"/>
    </contour>
    <contour>
      <point x="-215" y="650" type="move" name="_top"/>
    </contour>
  </outline>
</glyph>
<glyph name="d.superior" format="1">
  <advance width="430"/>
  <note>
    GF Latin Plus glyph
  </note>
  <outline>
    <contour>
      <point x="240" y="478" type="curve" smooth="yes"/>
      <point x="254" y="555"/>
      <point x="284" y="558"/>
      <point x="310" y="558" type="curve" smooth="yes"/>
      <point x="324" y="558"/>
      <point x="332" y="557"/>
      <point x="341" y="555" type="curve"/>
      <point x="319" y="413" type="line"/>
      <point x="307" y="403"/>
      <point x="293" y="394"/>
      <point x="271" y="394" type="curve" smooth="yes"/>
      <point x="253" y="394"/>
      <point x="237" y="403"/>
      <point x="236" y="439" type="curve" smooth="yes"/>
      <point x="236" y="453"/>
      <point x="238" y="464"/>
    </contour>
    <contour>
      <point x="102" y="501" type="curve" smooth="yes"/>
      <point x="97" y="472"/>
      <point x="94" y="441"/>
      <point x="95" y="416" type="curve" smooth="yes"/>
      <point x="95" y="329"/>
      <point x="129" y="276"/>
      <point x="203" y="276" type="curve" smooth="yes"/>
      <point x="241" y="276"/>
      <point x="276" y="292"/>
      <point x="304" y="318" type="curve"/>
      <point x="312" y="280" type="line"/>
      <point x="440" y="280" type="line"/>
      <point x="528" y="834" type="line"/>
      <point x="386" y="834" type="line"/>
      <point x="360" y="672" type="line"/>
      <point x="343" y="675"/>
      <point x="323" y="676"/>
      <point x="303" y="676" type="curve" smooth="yes"/>
      <point x="166" y="676"/>
      <point x="125" y="610"/>
    </contour>
    <contour>
      <point x="530" y="752" type="move" name="altcaron"/>
    </contour>
    <contour>
      <point x="242" y="171" type="move" name="bottom"/>
    </contour>
  </outline>
</glyph>
<glyph name="dieresiscomb" format="1">
  <note>
    GF Latin Plus glyph
  </note>
  <outline>
    <contour>
      <point x="-427" y="650" type="curve" smooth="yes"/>
      <point x="-427" y="638"/>
      <point x="-420" y="632"/>
      <point x="-408" y="632" type="curve" smooth="yes"/>
      <point x="-328" y="632" type="line" smooth="yes"/>
      <point x="-315" y="632"/>
      <point x="-305" y="639"/>
      <point x="-303" y="654" type="curve" smooth="yes"/>
      <point x="-286" y="760"/>
      <point x="-286" y="762"/>
      <point x="-286" y="763" type="curve" smooth="yes"/>
      <point x="-286" y="774"/>
      <point x="-291" y="782"/>
      <point x="-304" y="782" type="curve" smooth="yes"/>
      <point x="-384" y="782" type="line" smooth="yes"/>
      <point x="-400" y="782"/>
      <point x="-407" y="772"/>
      <point x="-409" y="758" type="curve" smooth="yes"/>
      <point x="-426" y="652"/>
      <point x="-427" y="651"/>
    </contour>
    <contour>
      <point x="-229" y="650" type="curve" smooth="yes"/>
      <point x="-229" y="638"/>
      <point x="-221" y="632"/>
      <point x="-210" y="632" type="curve" smooth="yes"/>
      <point x="-130" y="632" type="line" smooth="yes"/>
      <point x="-117" y="632"/>
      <point x="-106" y="639"/>
      <point x="-104" y="654" type="curve" smooth="yes"/>
      <point x="-87" y="760"/>
      <point x="-87" y="762"/>
      <point x="-87" y="763" type="curve" smooth="yes"/>
      <point x="-87" y="774"/>
      <point x="-93" y="782"/>
      <point x="-106" y="782" type="curve" smooth="yes"/>
      <point x="-186" y="782" type="line" smooth="yes"/>
      <point x="-201" y="782"/>
      <point x="-209" y="772"/>
      <point x="-211" y="758" type="curve" smooth="yes"/>
      <point x="-228" y="652"/>
      <point x="-229" y="651"/>
    </contour>
    <contour>
      <point x="-269" y="650" type="move" name="_top"/>
    </contour>
  </outline>
</glyph>
<glyph name="dong.smcp" format="1">
  <advance width="510"/>
  <note>
    GF Latin Plus glyph
  </note>
  <outline>
    <contour>
      <point x="53" y="-39" type="line"/>
      <point x="451" y="-39" type="line"/>
      <point x="471" y="83" type="line"/>
      <point x="72" y="83" type="line"/>
    </contour>
    <contour>
      <point x="284" y="485" type="line"/>
      <point x="567" y="485" type="line"/>
      <point x="576" y="544" type="line"/>
      <point x="294" y="544" type="line"/>
    </contour>
    <contour>
      <point x="292" y="328" type="curve" smooth="yes"/>
      <point x="314" y="328"/>
      <point x="325" y="323"/>
      <point x="336" y="317" type="curve"/>
      <point x="326" y="254" type="line"/>
      <point x="317" y="249"/>
      <point x="300" y="241"/>
      <point x="277" y="241" type="curve" smooth="yes"/>
      <point x="251" y="241"/>
      <point x="240" y="250"/>
      <point x="240" y="272" type="curve" smooth="yes"/>
      <point x="240" y="303"/>
      <point x="259" y="328"/>
    </contour>
    <contour>
      <point x="72" y="228" type="curve" smooth="yes"/>
      <point x="73" y="146"/>
      <point x="122" y="118"/>
      <point x="190" y="118" type="curve" smooth="yes"/>
      <point x="242" y="118"/>
      <point x="276" y="133"/>
      <point x="311" y="159" type="curve"/>
      <point x="330" y="123" type="line"/>
      <point x="469" y="123" type="line"/>
      <point x="544" y="589" type="line"/>
      <point x="380" y="589" type="line"/>
      <point x="354" y="428" type="line"/>
      <point x="330" y="437"/>
      <point x="296" y="444"/>
      <point x="264" y="444" type="curve" smooth="yes"/>
      <point x="114" y="444"/>
      <point x="71" y="321"/>
    </contour>
  </outline>
</glyph>
<glyph name="e.superior" format="1">
  <advance width="406"/>
  <note>
    GF Latin Plus glyph
  </note>
  <outline>
    <contour>
      <point x="244" y="498" type="curve"/>
      <point x="252" y="542"/>
      <point x="269" y="564"/>
      <point x="302" y="564" type="curve" smooth="yes"/>
      <point x="327" y="564"/>
      <point x="339" y="552"/>
      <point x="339" y="535" type="curve" smooth="yes"/>
      <point x="339" y="511"/>
      <point x="324" y="496"/>
      <point x="274" y="496" type="curve" smooth="yes"/>
      <point x="265" y="496"/>
      <point x="254" y="497"/>
    </contour>
    <contour>
      <point x="94" y="424" type="curve" smooth="yes"/>
      <point x="95" y="333"/>
      <point x="134" y="276"/>
      <point x="250" y="276" type="curve" smooth="yes"/>
      <point x="320" y="276"/>
      <point x="383" y="285"/>
      <point x="428" y="297" type="curve"/>
      <point x="442" y="383" type="line"/>
      <point x="309" y="383" type="line" smooth="yes"/>
      <point x="258" y="383"/>
      <point x="235" y="395"/>
      <point x="234" y="418" type="curve" smooth="yes"/>
      <point x="234" y="422"/>
      <point x="234" y="427"/>
      <point x="235" y="430" type="curve"/>
      <point x="250" y="427"/>
      <point x="272" y="425"/>
      <point x="299" y="425" type="curve" smooth="yes"/>
      <point x="395" y="425"/>
      <point x="471" y="445"/>
      <point x="471" y="552" type="curve" smooth="yes"/>
      <point x="471" y="655"/>
      <point x="388" y="676"/>
      <point x="312" y="676" type="curve" smooth="yes"/>
      <point x="198" y="676"/>
      <point x="122" y="632"/>
      <point x="100" y="498" type="curve" smooth="yes"/>
      <point x="97" y="476"/>
      <point x="94" y="453"/>
    </contour>
    <contour>
      <point x="324" y="752" type="move" name="top"/>
    </contour>
    <contour>
      <point x="327" y="280" type="move" name="ogonek"/>
    </contour>
    <contour>
      <point x="232" y="171" type="move" name="bottom"/>
    </contour>
  </outline>
</glyph>
<glyph name="eight.smcp" format="1">
  <advance width="516"/>
  <note>
    GF Latin Plus glyph
  </note>
  <outline>
    <contour>
      <point x="279" y="409" type="curve" smooth="yes"/>
      <point x="283" y="426"/>
      <point x="292" y="434"/>
      <point x="308" y="434" type="curve" smooth="yes"/>
      <point x="344" y="434" type="line" smooth="yes"/>
      <point x="359" y="434"/>
      <point x="367" y="429"/>
      <point x="367" y="417" type="curve" smooth="yes"/>
      <point x="367" y="409"/>
      <point x="364" y="397"/>
      <point x="360" y="375" type="curve" smooth="yes"/>
      <point x="358" y="361"/>
      <point x="349" y="352"/>
      <point x="332" y="352" type="curve" smooth="yes"/>
      <point x="294" y="352" type="line" smooth="yes"/>
      <point x="280" y="352"/>
      <point x="274" y="359"/>
      <point x="274" y="372" type="curve" smooth="yes"/>
      <point x="274" y="377"/>
      <point x="277" y="395"/>
    </contour>
    <contour>
      <point x="237" y="192" type="curve" smooth="yes"/>
      <point x="241" y="214"/>
      <point x="256" y="221"/>
      <point x="274" y="221" type="curve" smooth="yes"/>
      <point x="314" y="221" type="line" smooth="yes"/>
      <point x="332" y="221"/>
      <point x="340" y="214"/>
      <point x="340" y="195" type="curve" smooth="yes"/>
      <point x="340" y="190"/>
      <point x="339" y="180"/>
      <point x="334" y="154" type="curve" smooth="yes"/>
      <point x="330" y="136"/>
      <point x="324" y="126"/>
      <point x="302" y="126" type="curve" smooth="yes"/>
      <point x="259" y="126" type="line" smooth="yes"/>
      <point x="240" y="126"/>
      <point x="230" y="131"/>
      <point x="230" y="145" type="curve" smooth="yes"/>
      <point x="230" y="153"/>
      <point x="233" y="173"/>
    </contour>
    <contour>
      <point x="62" y="124" type="line" smooth="yes"/>
      <point x="60" y="111"/>
      <point x="58" y="100"/>
      <point x="58" y="87" type="curve" smooth="yes"/>
      <point x="59" y="46"/>
      <point x="79" y="-4"/>
      <point x="200" y="-4" type="curve" smooth="yes"/>
      <point x="324" y="-4" type="line" smooth="yes"/>
      <point x="402" y="-4"/>
      <point x="475" y="13"/>
      <point x="493" y="126" type="curve" smooth="yes"/>
      <point x="504" y="196" type="line" smooth="yes"/>
      <point x="505" y="207"/>
      <point x="507" y="217"/>
      <point x="506" y="230" type="curve" smooth="yes"/>
      <point x="506" y="256"/>
      <point x="499" y="288"/>
      <point x="461" y="298" type="curve"/>
      <point x="504" y="302"/>
      <point x="518" y="365"/>
      <point x="522" y="385" type="curve" smooth="yes"/>
      <point x="531" y="446" type="line" smooth="yes"/>
      <point x="533" y="459"/>
      <point x="534" y="469"/>
      <point x="534" y="478" type="curve" smooth="yes"/>
      <point x="534" y="542"/>
      <point x="492" y="565"/>
      <point x="416" y="565" type="curve" smooth="yes"/>
      <point x="290" y="565" type="line" smooth="yes"/>
      <point x="213" y="565"/>
      <point x="140" y="543"/>
      <point x="125" y="450" type="curve" smooth="yes"/>
      <point x="115" y="385" type="line" smooth="yes"/>
      <point x="113" y="370"/>
      <point x="110" y="355"/>
      <point x="110" y="342" type="curve" smooth="yes"/>
      <point x="111" y="320"/>
      <point x="118" y="302"/>
      <point x="145" y="287" type="curve"/>
      <point x="98" y="277"/>
      <point x="78" y="233"/>
      <point x="74" y="200" type="curve" smooth="yes"/>
    </contour>
  </outline>
</glyph>
